{"glyphs":{"0":{"ha":810,"x_min":35,"x_max":774,"o":"m 403 1 q 332 10 367 1 l 333 10 q 147 136 225 38 l 147 135 q 50 351 75 221 l 50 350 q 35 479 35 415 q 48 606 35 543 q 88 725 61 669 q 196 876 128 817 q 346 953 264 936 q 375 958 361 957 q 403 960 389 960 q 576 904 493 960 q 663 821 621 872 q 728 711 704 769 q 763 587 751 654 q 771 454 774 519 q 751 324 768 388 q 706 206 735 260 q 550 40 647 96 q 403 1 479 1 m 403 26 q 539 61 472 26 q 685 217 628 113 q 728 331 713 269 q 747 456 744 392 q 738 582 750 518 q 706 701 726 646 q 643 807 681 760 q 564 883 606 854 q 403 935 486 935 q 379 933 392 935 q 351 928 367 932 l 351 929 q 213 858 276 914 q 108 714 149 801 q 72 601 85 661 q 60 479 60 540 q 72 356 60 414 q 108 246 85 299 q 165 151 132 193 q 246 78 199 108 q 338 35 293 49 q 403 26 372 26 m 403 51 q 344 58 376 51 q 185 167 250 82 q 97 361 121 249 q 87 538 78 446 q 131 704 96 629 q 226 838 167 785 q 356 904 286 890 q 403 910 378 910 q 550 863 479 910 q 625 790 590 835 q 683 690 660 746 q 716 578 706 638 q 724 457 726 518 q 706 337 721 396 q 664 229 690 278 q 528 83 611 131 q 403 51 468 51 m 403 785 q 391 785 396 785 q 379 783 386 785 q 301 740 339 775 q 239 653 264 706 q 207 524 214 596 q 214 388 201 456 q 278 246 233 301 q 374 179 321 192 q 403 175 388 175 q 469 193 436 175 q 517 232 494 207 q 558 289 540 257 q 589 371 578 326 q 603 461 600 415 q 597 556 604 510 q 572 642 589 601 q 483 760 538 722 q 403 785 446 785 m 403 761 q 469 738 438 761 q 515 693 494 721 q 550 632 535 665 q 573 551 565 596 q 578 463 581 507 q 536 301 575 374 l 538 301 q 458 215 506 240 q 403 200 431 200 q 379 203 390 200 q 337 224 358 208 q 296 261 315 240 q 261 320 276 285 q 238 392 246 356 q 231 438 233 414 q 229 483 229 461 q 229 502 229 492 q 231 521 229 513 q 242 585 235 554 q 261 642 249 617 l 261 640 q 315 718 282 686 q 383 758 349 750 q 395 760 390 760 q 403 761 400 761 m 403 736 q 398 735 404 736 q 385 733 392 735 l 389 735 q 331 699 360 728 q 282 631 303 671 q 265 578 272 607 q 254 519 258 549 l 254 483 q 256 438 254 460 q 261 397 257 417 l 261 399 q 283 332 269 363 q 314 278 296 301 q 383 228 349 236 q 403 225 397 225 q 447 236 425 225 q 483 267 467 247 q 515 314 500 288 l 515 313 q 542 383 533 344 q 554 464 551 422 q 528 624 558 550 l 528 622 q 456 718 500 689 q 403 736 428 736 z "},"1":{"ha":311,"x_min":50,"x_max":260,"o":"m 260 122 q 229 40 260 74 q 154 7 199 7 q 80 40 110 7 q 50 122 50 74 l 50 850 q 80 931 50 897 q 154 964 110 964 q 229 931 199 964 q 260 850 260 897 l 260 122 m 236 850 q 213 913 236 886 q 154 939 189 939 q 97 913 121 939 q 72 850 72 886 l 72 122 q 97 59 72 85 q 154 33 121 33 q 213 59 189 33 q 236 122 236 85 l 236 850 m 214 850 l 214 122 q 197 76 214 94 q 154 58 179 58 q 113 76 131 58 q 96 122 96 94 l 96 850 q 113 894 96 876 q 154 913 131 913 q 197 894 179 913 q 214 850 214 876 z "},"2":{"ha":757,"x_min":40,"x_max":715,"o":"m 156 1 q 93 22 121 1 q 54 74 65 42 l 56 72 q 53 138 43 103 q 85 197 64 174 l 378 467 q 440 526 411 497 q 483 586 468 556 q 495 617 490 601 q 500 644 500 633 q 496 669 500 657 q 478 697 489 683 q 451 717 467 710 q 367 736 418 736 q 290 707 322 729 q 258 660 268 690 l 258 661 q 211 590 249 615 q 129 578 174 565 l 131 578 q 63 628 86 589 q 50 713 40 667 q 91 807 61 761 q 163 886 121 853 q 253 937 203 918 q 354 958 303 956 q 457 949 403 961 q 553 914 511 938 q 635 847 599 888 q 692 760 672 807 q 715 643 715 701 q 672 478 715 561 q 603 381 643 424 q 518 299 563 339 l 439 225 l 604 225 q 680 192 649 225 q 711 114 711 158 q 680 34 711 67 q 604 1 649 1 l 156 1 m 604 26 q 663 52 639 26 q 688 114 688 78 q 663 175 688 150 q 604 200 639 200 l 375 200 l 503 318 q 585 397 546 357 q 650 489 624 438 q 681 567 669 528 q 692 643 692 606 q 669 749 692 693 q 618 831 650 793 q 542 893 586 868 l 542 892 q 451 926 501 915 q 356 933 401 936 q 260 913 307 931 q 176 867 213 894 q 111 792 138 835 q 74 706 85 750 q 84 639 67 669 q 136 601 101 608 l 135 603 q 199 612 169 593 q 236 667 228 631 l 235 665 q 276 726 243 703 q 317 750 293 742 q 365 761 342 758 q 463 738 421 764 q 496 711 482 726 q 517 681 510 696 q 525 644 525 664 q 519 611 525 629 q 504 575 514 593 q 456 510 486 542 q 393 449 426 478 l 100 178 l 100 179 q 73 136 81 163 q 76 82 65 110 q 108 42 86 57 q 156 26 129 26 l 604 26 m 604 51 l 156 51 q 121 62 136 51 q 99 90 106 72 q 97 128 92 110 q 115 160 101 147 l 408 429 q 475 494 444 463 q 525 563 506 526 q 547 629 544 596 q 539 690 550 663 q 513 730 529 711 q 475 761 497 749 q 365 785 424 789 q 263 747 307 781 q 213 672 222 715 q 186 633 207 647 q 140 626 165 619 q 104 653 117 632 q 97 701 92 675 q 190 846 117 788 q 357 908 264 901 q 531 869 450 917 q 649 740 613 825 q 667 623 671 685 q 631 501 663 561 q 567 414 604 453 q 488 336 529 375 l 313 175 l 604 175 q 647 157 629 175 q 664 114 664 139 q 647 69 664 86 q 604 51 629 51 z "},"3":{"ha":743,"x_min":36,"x_max":703,"o":"m 354 3 q 300 6 326 3 q 247 17 274 8 q 140 64 189 32 q 58 138 92 96 q 41 171 46 153 q 36 208 36 189 q 47 257 36 233 q 78 297 57 281 l 76 297 q 143 321 104 321 q 190 310 167 321 q 228 276 213 299 l 226 278 q 300 233 249 247 q 324 228 311 229 q 353 226 338 226 q 413 235 388 226 q 453 254 436 243 q 482 281 471 265 q 488 311 492 294 l 488 308 q 458 342 483 322 q 424 360 443 353 q 383 369 404 367 q 317 408 343 376 q 290 482 290 439 q 317 555 290 524 q 383 593 343 586 q 424 603 404 596 q 458 621 443 610 q 488 653 482 638 q 482 683 492 669 q 413 728 461 713 q 385 735 400 733 q 353 736 369 736 q 326 735 340 736 q 300 729 313 733 q 257 711 276 722 q 226 686 238 700 l 228 688 q 190 653 213 664 q 143 642 167 642 q 107 648 124 642 q 76 665 90 654 l 78 665 q 47 707 57 683 q 36 756 36 731 q 41 792 36 775 q 58 825 46 810 q 140 899 92 867 q 247 947 189 932 q 353 961 297 961 q 476 942 414 961 l 475 942 q 581 890 533 924 q 658 811 628 857 q 691 740 679 779 q 703 664 703 701 q 690 582 703 621 l 690 583 q 632 482 671 525 q 667 433 653 458 q 690 379 681 408 l 690 381 q 703 300 703 343 q 691 223 703 261 q 658 151 679 185 q 581 72 628 106 q 475 21 533 39 l 476 21 q 354 3 418 3 m 354 28 q 411 31 382 28 q 468 44 440 35 q 565 92 521 60 q 638 167 610 124 q 669 233 658 199 q 679 300 679 267 q 677 338 679 319 q 668 374 675 357 l 668 372 q 641 431 657 404 q 599 482 625 458 q 641 532 625 506 q 668 592 657 558 l 668 590 q 679 664 679 622 q 669 731 679 697 q 638 797 658 765 q 565 872 610 840 q 468 918 521 903 q 411 932 440 928 q 353 936 382 936 q 253 922 303 936 q 153 878 199 908 q 76 808 107 849 q 60 756 60 785 q 92 686 60 714 q 116 672 103 678 q 143 667 129 667 q 208 701 182 667 q 294 754 238 739 q 322 760 307 758 q 353 761 338 761 q 419 751 392 761 q 501 697 476 735 q 510 646 518 672 l 510 647 q 471 600 500 619 q 386 569 438 576 q 334 538 354 563 q 314 482 314 514 q 334 424 314 449 q 386 394 354 400 q 433 382 410 390 q 471 363 456 374 q 510 318 501 340 q 501 265 518 290 q 419 211 476 228 q 388 204 404 207 q 353 201 371 201 q 322 203 338 201 q 294 210 307 206 q 208 263 238 225 l 208 261 q 143 296 182 296 q 92 278 117 296 q 60 208 60 249 q 76 154 60 179 q 153 85 107 114 q 253 42 199 56 q 304 31 279 33 q 354 28 329 28 m 354 53 q 306 56 331 53 q 258 65 282 58 q 166 105 208 78 q 96 169 124 132 q 84 216 81 190 q 107 257 88 242 q 151 270 126 274 q 190 246 175 267 q 289 186 224 204 q 358 176 322 176 q 426 188 394 176 q 521 251 492 207 q 533 325 544 286 q 485 383 522 358 q 441 406 465 397 q 390 419 417 415 q 352 441 367 424 q 338 482 338 458 q 352 523 338 506 q 390 544 367 540 q 441 556 417 547 q 485 581 465 565 q 533 639 522 604 q 521 713 544 676 q 426 775 490 756 q 289 778 358 797 q 231 753 257 769 q 190 717 206 738 q 151 693 175 696 q 107 706 126 690 q 84 747 88 721 q 96 794 81 774 q 166 858 124 832 q 258 899 208 885 q 461 894 361 926 q 552 851 511 879 q 618 783 593 822 q 653 693 646 742 q 644 599 660 644 q 560 482 624 529 q 644 365 624 433 q 653 271 660 319 q 618 181 646 222 q 552 112 593 140 q 461 68 511 83 q 408 56 435 60 q 354 53 382 53 z "},"4":{"ha":739,"x_min":21,"x_max":688,"o":"m 579 910 q 622 891 604 910 q 639 847 639 872 l 639 114 q 622 69 639 86 q 579 51 604 51 q 538 69 554 51 q 521 114 521 86 l 521 364 l 128 364 q 85 382 103 364 q 68 425 68 400 l 68 847 q 85 891 68 872 q 128 910 103 910 q 169 891 151 910 q 188 847 188 872 l 188 488 l 521 488 l 521 847 q 538 891 521 872 q 579 910 554 910 m 579 935 q 520 909 544 935 q 496 847 496 883 l 496 513 l 211 513 l 211 847 q 186 909 211 883 q 128 935 161 935 q 68 909 92 935 q 44 847 44 883 l 44 425 q 68 364 44 389 q 128 339 92 339 l 496 339 l 496 114 q 520 52 496 78 q 579 26 544 26 q 638 52 614 26 q 663 114 663 78 l 663 847 q 638 909 663 883 q 579 935 614 935 m 579 960 q 621 951 601 960 q 655 926 640 942 q 678 890 669 911 q 688 847 688 869 l 688 114 q 656 34 688 67 q 579 1 624 1 q 503 34 535 1 q 472 114 472 67 l 472 314 l 128 314 q 52 347 83 314 q 21 425 21 381 l 21 847 q 52 926 21 893 q 128 960 83 960 q 203 926 172 960 q 235 847 235 893 l 235 538 l 472 538 l 472 847 q 503 926 472 893 q 579 960 535 960 z "},"5":{"ha":751,"x_min":46,"x_max":713,"o":"m 313 1 q 195 23 251 4 q 92 76 139 42 q 58 117 69 93 q 46 169 46 142 q 51 202 46 188 q 64 232 56 217 q 102 268 79 256 q 151 281 125 281 q 213 260 181 281 q 262 236 233 244 q 321 225 290 228 q 433 251 383 224 l 432 251 q 492 315 479 279 q 497 346 497 328 q 490 378 497 364 q 449 431 479 408 q 379 463 418 453 l 381 463 q 357 467 369 465 q 332 468 344 468 q 213 432 264 468 q 158 413 188 414 q 103 425 128 411 q 60 467 75 440 q 46 525 46 493 l 46 847 q 77 926 46 893 q 153 960 108 960 l 589 960 q 665 926 633 960 q 697 847 697 893 q 665 768 697 800 q 589 736 633 736 l 260 736 l 260 686 q 297 690 279 689 q 333 692 314 692 q 381 690 357 692 q 426 681 404 688 l 425 681 q 587 603 517 660 q 689 467 657 546 q 713 346 713 407 q 690 232 713 286 q 631 133 671 179 q 538 56 590 88 q 438 15 490 29 q 331 1 386 1 l 313 1 m 331 26 q 526 78 439 26 q 613 148 575 106 q 669 240 650 190 q 689 346 689 292 q 665 457 689 401 q 626 525 651 493 q 569 583 601 557 q 499 627 538 608 q 421 657 461 646 q 378 664 401 661 q 333 667 356 667 q 284 665 308 667 q 236 656 260 663 l 236 761 l 589 761 q 649 786 625 761 q 672 847 672 811 q 649 909 672 883 q 589 935 625 935 l 153 935 q 93 909 117 935 q 69 847 69 883 l 69 525 q 81 480 69 501 q 114 447 93 458 q 156 438 133 436 q 199 451 179 439 q 261 482 226 471 q 332 493 296 493 q 385 486 354 493 l 383 488 q 464 451 429 476 q 514 389 499 425 q 522 346 522 368 q 519 326 522 336 q 514 306 517 317 q 444 229 496 260 l 444 231 q 385 206 417 215 q 319 200 353 197 q 255 213 288 203 q 199 240 222 224 q 151 256 176 256 q 83 218 107 256 q 69 169 69 194 q 106 97 69 122 q 203 47 150 65 q 313 26 257 29 l 331 26 m 331 51 l 314 51 q 210 71 261 54 q 119 117 160 88 q 94 157 99 132 q 104 204 89 182 q 142 230 118 225 q 186 219 165 235 q 248 189 214 200 q 318 175 282 178 q 391 183 356 174 q 456 208 426 192 q 536 297 515 242 q 545 347 546 321 q 535 399 544 374 q 479 469 519 439 q 389 511 439 500 q 282 513 338 524 q 186 474 226 503 q 125 469 157 453 q 93 525 93 488 l 93 847 q 110 891 93 872 q 153 910 128 910 l 589 910 q 631 891 614 910 q 649 847 649 872 q 631 803 649 821 q 589 785 614 785 l 213 785 l 213 622 q 313 641 261 638 q 415 632 365 644 q 556 565 494 614 q 644 447 617 515 q 665 349 664 399 q 647 250 665 299 q 514 100 608 156 q 331 51 432 51 z "},"6":{"ha":731,"x_min":26,"x_max":697,"o":"m 379 1 q 353 2 364 1 q 333 4 343 3 q 151 88 231 17 q 90 160 117 118 q 47 247 63 201 q 26 378 26 310 q 27 403 26 393 q 29 425 28 414 q 45 506 35 465 q 74 588 56 547 q 142 704 101 647 q 232 807 183 761 q 340 889 281 851 q 464 953 399 926 q 504 958 483 960 q 544 949 525 957 q 577 924 563 940 q 600 888 592 908 q 608 844 608 867 q 599 802 607 822 q 575 767 590 782 q 539 743 560 751 q 333 597 417 697 l 344 597 q 476 581 413 599 q 544 551 513 569 q 599 510 575 533 q 659 433 635 476 q 690 342 683 390 q 688 244 697 293 q 653 151 678 196 q 593 81 629 113 q 513 29 557 49 q 447 8 482 15 q 379 1 413 1 m 379 26 q 503 51 446 26 q 577 99 543 71 q 632 164 611 128 q 667 338 682 246 q 583 492 651 429 l 585 492 q 533 530 563 514 q 471 557 504 546 q 410 570 440 567 q 346 572 379 574 q 279 564 310 569 q 386 683 322 631 q 531 765 450 735 q 577 811 563 779 q 579 879 592 843 q 535 927 567 913 q 472 929 504 942 q 354 869 411 906 q 249 788 297 832 q 161 688 201 743 q 96 576 121 633 q 53 424 61 499 q 51 401 51 413 q 50 378 50 390 q 69 256 50 314 q 110 174 85 211 q 167 107 135 136 q 247 55 203 75 q 338 29 290 35 q 356 27 346 28 q 379 26 367 26 m 379 51 q 358 52 368 51 q 340 54 349 53 q 256 78 296 60 q 182 126 215 97 q 92 264 119 181 q 76 421 68 339 q 117 567 85 492 q 178 674 142 622 q 264 769 215 725 q 481 906 357 858 q 525 903 503 914 q 557 869 547 893 q 556 822 565 846 q 522 789 546 799 q 347 681 422 750 q 229 522 271 611 q 347 547 285 543 q 464 533 410 550 q 568 474 525 514 q 643 333 631 415 q 613 178 656 251 q 562 119 593 146 q 494 75 531 92 q 379 51 439 51 m 194 358 q 198 331 196 344 q 206 306 200 318 q 260 222 221 256 q 304 192 279 203 q 356 176 329 181 q 403 176 379 174 q 449 189 426 179 q 484 213 468 199 q 511 244 500 228 q 525 315 531 281 q 490 379 521 353 q 463 399 478 390 q 431 414 447 407 q 353 424 392 425 q 267 404 308 421 q 194 358 225 388 m 354 399 q 390 397 374 400 q 424 389 407 394 q 449 379 436 385 q 467 367 461 374 q 490 340 482 354 q 501 311 499 325 q 490 257 508 283 q 468 232 483 244 q 439 211 453 219 q 399 202 421 204 q 357 201 376 200 q 275 240 313 210 q 247 272 260 253 q 228 314 235 292 q 219 347 221 331 q 281 383 246 371 q 354 399 317 396 m 356 374 q 297 362 325 371 q 246 338 268 353 l 250 321 q 290 258 263 283 q 323 238 304 247 q 361 226 342 229 q 397 226 378 225 q 431 235 415 228 l 429 235 q 472 271 457 249 l 471 269 q 478 307 482 289 q 471 326 475 317 q 458 342 467 335 q 440 356 451 350 q 415 365 428 363 l 417 365 q 388 372 403 369 q 356 374 374 375 z "},"7":{"ha":722,"x_min":38,"x_max":704,"o":"m 225 1 q 174 14 196 1 q 142 42 154 24 q 123 81 129 60 q 118 124 117 101 q 131 165 119 146 l 417 736 l 144 736 q 69 768 100 736 q 38 847 38 800 q 69 926 38 893 q 144 960 100 960 l 597 960 q 649 946 625 960 q 688 906 672 932 q 703 852 703 882 q 692 794 704 822 l 318 58 q 279 17 304 32 q 225 1 254 1 m 225 26 q 267 38 247 26 q 297 71 286 50 l 671 807 q 679 850 681 826 q 667 893 678 874 q 637 924 656 913 q 597 935 618 935 l 144 935 q 85 909 110 935 q 61 847 61 883 q 85 786 61 811 q 144 761 110 761 l 457 761 l 150 153 l 150 154 q 144 88 135 122 q 183 36 154 53 q 204 29 194 32 q 225 26 214 26 m 225 51 q 196 58 213 51 q 167 95 174 71 q 172 142 161 119 l 497 785 l 144 785 q 102 803 119 785 q 85 847 85 821 q 102 891 85 872 q 144 910 119 910 l 597 910 q 647 881 629 910 q 656 849 656 865 q 650 818 657 833 l 276 83 q 225 51 260 51 z "},"8":{"ha":749,"x_min":40,"x_max":708,"o":"m 375 1 q 235 26 301 1 q 122 93 168 50 l 124 93 q 49 213 65 144 l 50 211 q 40 274 40 242 q 58 360 40 317 q 94 422 71 392 q 151 481 118 453 q 95 539 119 508 q 58 601 71 569 q 44 644 47 622 q 40 688 40 665 q 42 718 40 704 q 49 747 44 732 q 76 810 57 779 q 124 868 96 842 l 122 868 q 235 935 168 911 q 375 960 301 960 q 513 935 446 960 q 628 867 579 911 q 700 747 682 813 l 699 749 q 706 716 703 731 q 708 686 708 701 q 703 642 708 664 q 692 601 699 621 q 596 481 665 538 q 692 360 664 428 q 708 275 708 319 q 706 244 708 260 q 699 211 703 228 l 700 213 q 628 93 681 144 q 514 26 581 50 q 375 1 447 1 m 375 26 q 504 49 442 26 q 611 113 567 72 q 676 221 660 160 l 676 219 q 685 275 685 249 q 681 313 685 294 q 669 351 676 332 q 557 481 640 424 q 669 610 643 539 q 681 648 676 629 q 685 686 685 667 q 676 740 685 711 l 676 739 q 611 849 660 803 q 504 912 567 889 q 375 935 442 935 q 245 911 308 935 q 139 849 182 888 q 98 798 115 828 q 72 739 81 768 l 72 740 q 64 688 64 715 q 68 648 64 668 q 81 608 72 628 l 79 610 q 192 481 106 540 q 123 420 150 453 q 81 351 96 388 l 81 353 q 64 274 64 315 q 72 219 64 249 l 72 221 q 98 163 81 190 q 139 113 115 135 q 245 50 182 74 q 375 26 308 26 m 375 51 q 252 72 310 51 q 154 131 194 93 q 94 226 108 174 q 89 285 88 256 q 101 342 90 314 q 211 464 129 408 q 224 473 218 469 q 236 481 229 476 q 211 497 224 486 q 101 619 128 553 q 89 676 90 647 q 94 733 88 706 q 154 831 110 788 q 252 889 194 868 q 375 910 310 910 q 497 889 439 910 q 594 831 554 868 q 653 733 640 786 q 660 676 661 706 q 647 619 658 647 q 536 497 621 553 q 511 481 524 486 q 524 473 518 476 q 536 464 529 469 q 647 342 619 410 q 653 226 669 285 q 594 131 640 175 q 497 72 554 93 q 375 51 439 51 m 375 413 q 322 388 347 400 q 276 360 297 375 q 211 293 224 325 q 209 265 208 285 q 233 222 210 246 q 295 188 257 201 q 375 175 333 175 q 453 188 415 175 q 515 222 492 201 q 538 293 550 257 q 472 360 525 325 q 427 388 451 375 q 375 413 403 400 m 375 785 q 295 772 333 785 q 233 738 257 760 q 213 710 225 729 q 211 667 201 692 q 276 601 224 636 q 322 574 297 586 q 375 549 347 561 q 426 574 401 561 q 472 601 451 586 q 538 667 525 636 q 535 710 547 692 q 515 738 524 729 q 453 772 492 760 q 375 785 415 785 m 460 339 q 497 309 482 324 q 517 282 513 294 l 515 283 q 500 242 521 263 q 447 211 481 222 q 375 200 413 200 q 303 211 338 200 q 249 242 268 222 l 250 242 q 232 267 233 257 q 233 282 231 278 q 289 339 243 307 q 330 364 308 353 q 375 386 351 375 q 418 363 397 375 q 460 339 439 351 m 375 761 q 444 750 411 761 q 499 721 478 739 q 513 702 504 714 q 515 676 521 690 l 517 676 q 460 622 508 656 q 418 597 440 608 q 375 576 396 586 q 331 597 351 588 q 289 622 311 607 q 233 676 243 653 q 235 701 228 689 q 249 719 242 713 q 303 750 268 739 q 375 761 338 761 m 375 736 q 313 727 343 736 q 267 703 283 718 q 260 695 264 700 q 256 688 256 690 q 303 642 265 667 q 335 623 315 632 q 375 604 354 614 q 415 623 396 614 q 446 642 433 632 q 476 667 464 654 q 494 688 489 679 q 489 695 493 690 q 482 703 485 700 q 435 727 464 718 q 375 736 407 736 m 446 318 q 412 338 429 329 q 375 357 394 347 q 337 338 356 347 q 303 318 318 329 q 254 271 263 290 q 256 268 254 269 l 265 258 l 265 260 q 313 235 282 244 q 375 225 343 225 q 437 235 407 225 q 483 260 467 244 q 491 269 488 265 q 494 275 494 272 q 476 294 489 283 q 446 318 464 306 z "},"9":{"ha":731,"x_min":33,"x_max":704,"o":"m 351 972 q 377 972 367 972 q 397 969 388 971 q 579 886 500 957 q 641 814 614 856 q 683 726 668 772 q 704 596 704 664 q 703 570 704 581 q 701 549 703 560 q 685 467 696 508 q 657 386 675 426 q 588 269 629 326 q 499 167 547 213 q 391 85 450 122 q 267 21 332 47 q 226 15 247 14 q 187 25 206 17 q 153 49 168 33 q 131 86 139 65 q 123 129 122 107 q 132 172 124 151 q 156 207 140 192 q 192 231 171 222 q 397 376 314 276 l 386 376 q 254 393 318 375 q 187 422 218 404 q 132 464 156 440 q 72 540 96 497 q 40 632 47 583 q 43 729 33 681 q 78 822 53 778 q 138 893 101 861 q 218 944 174 925 q 283 965 249 958 q 351 972 318 972 m 351 947 q 228 922 283 947 q 153 874 188 903 q 99 810 119 846 q 64 636 49 728 q 147 482 79 544 l 146 482 q 197 444 168 460 q 260 417 226 428 q 321 403 290 407 q 385 401 351 400 q 451 410 421 404 q 344 291 408 343 q 200 208 281 239 q 153 163 168 194 q 151 94 139 131 q 195 47 164 61 q 258 44 226 32 q 376 105 319 68 q 482 186 433 142 q 569 285 529 231 q 635 397 610 340 q 678 550 669 475 q 680 572 679 561 q 681 596 681 583 q 661 718 681 660 q 621 800 646 763 q 564 867 596 838 q 484 919 528 899 q 393 944 440 939 q 374 947 385 946 q 351 947 364 947 m 351 922 q 372 922 363 922 q 390 919 382 921 q 475 895 435 914 q 549 847 515 876 q 639 710 611 793 q 654 553 663 635 q 614 407 646 482 q 552 300 589 351 q 467 204 515 249 q 250 68 374 115 q 206 70 228 60 q 174 104 183 81 q 175 151 165 128 q 208 185 185 175 q 384 293 308 224 q 501 451 460 363 q 383 426 446 431 q 267 440 321 424 q 163 500 206 460 q 88 640 100 558 q 118 796 75 722 q 169 855 138 828 q 236 899 200 882 q 351 922 292 922 m 536 615 q 533 642 535 629 q 525 668 531 656 q 471 751 510 718 q 426 782 451 771 q 375 797 401 793 q 328 797 351 800 q 282 785 304 794 q 247 760 263 775 q 219 729 231 746 q 206 658 200 693 q 240 594 210 621 q 268 575 253 583 q 300 560 283 567 q 378 550 339 549 q 464 569 422 553 q 536 615 506 586 m 376 575 q 340 576 357 574 q 307 585 324 579 q 282 594 294 589 q 264 607 269 600 q 240 634 249 619 q 229 663 232 649 q 240 717 222 690 q 263 742 247 729 q 292 763 278 754 q 332 772 310 769 q 374 772 354 774 q 456 733 418 764 q 483 701 471 721 q 503 660 496 682 q 511 626 508 643 q 449 590 485 603 q 376 575 414 578 m 375 600 q 434 612 406 603 q 485 636 463 621 l 481 653 q 440 715 468 690 q 408 735 426 726 q 369 747 389 744 q 334 747 353 749 q 300 739 315 746 l 301 739 q 258 703 274 725 l 260 704 q 253 667 249 685 q 260 648 256 657 q 272 632 264 639 q 291 617 279 624 q 315 608 303 611 l 314 608 q 342 601 328 604 q 375 600 357 599 z "},"\u0000":{"ha":0,"x_min":0,"x_max":0,"o":""},"\r":{"ha":346,"x_min":0,"x_max":0,"o":""}," ":{"ha":342,"x_min":0,"x_max":0,"o":""},"C":{"ha":750,"x_min":31,"x_max":704,"o":"m 560 211 q 604 219 581 225 q 642 190 628 214 q 648 144 654 168 q 621 104 642 119 q 535 67 581 79 q 444 54 490 54 q 425 54 435 54 q 406 56 415 54 q 298 90 350 64 q 206 158 246 115 q 135 253 165 199 q 92 368 106 307 q 96 617 61 494 q 176 776 121 706 q 306 882 232 846 q 465 913 382 918 q 621 861 549 907 q 648 824 642 849 q 642 775 654 799 q 604 748 628 754 q 560 754 581 742 q 458 788 513 785 q 356 768 404 792 q 267 694 304 744 q 210 582 229 644 q 197 490 197 538 q 207 399 196 443 q 239 315 218 354 q 288 247 260 276 q 349 202 315 219 q 419 179 383 185 q 560 211 493 171 m 547 233 q 422 204 490 196 q 304 265 354 213 q 258 328 276 293 q 229 404 240 364 q 221 483 221 442 q 233 574 221 532 q 285 678 250 633 q 365 746 319 724 q 405 759 385 756 q 444 763 425 763 q 546 733 500 763 q 609 723 576 714 q 661 761 642 732 q 670 828 679 793 q 633 882 661 864 q 444 938 546 938 q 296 904 367 938 q 158 792 217 865 q 74 624 100 718 q 58 556 63 590 q 54 485 54 521 q 58 424 54 454 q 68 363 61 393 q 114 242 83 299 q 189 140 144 185 q 288 67 233 94 q 401 31 343 39 q 422 30 413 31 q 444 29 432 29 q 542 42 493 29 q 633 83 590 56 q 670 138 661 103 q 661 203 679 172 q 609 244 642 235 q 547 233 576 253 m 535 256 q 615 267 572 279 q 682 215 657 256 q 693 131 704 175 q 646 63 682 88 q 549 19 600 33 q 444 4 497 4 q 420 5 431 4 q 400 6 410 6 q 278 46 338 15 q 172 122 218 76 q 94 229 128 168 q 44 356 61 290 q 31 485 31 415 q 50 629 31 556 q 140 808 78 729 q 285 926 203 886 q 364 954 324 946 q 444 963 404 963 q 646 904 551 963 q 676 874 664 892 q 694 835 689 856 q 696 792 699 814 q 682 750 693 771 q 615 699 658 710 q 535 711 572 688 q 491 731 514 725 q 444 738 468 738 q 376 724 406 738 q 302 661 333 703 q 256 567 271 619 q 247 526 249 547 q 244 483 244 504 q 253 411 244 449 q 321 283 272 335 q 371 247 344 261 q 426 229 397 232 q 482 232 454 225 q 535 254 510 239 l 535 256 z "},"V":{"ha":764,"x_min":26,"x_max":736,"o":"m 381 0 q 317 21 344 0 q 278 76 289 42 l 39 811 q 46 897 26 856 q 107 954 65 939 q 188 949 149 969 q 243 883 228 928 l 379 463 l 518 883 q 540 922 525 906 q 573 949 554 939 q 613 960 592 958 q 656 954 635 961 q 717 897 697 939 q 722 810 736 854 l 483 76 q 444 21 472 42 q 381 0 415 0 m 381 25 q 430 41 408 25 q 460 83 451 57 l 700 819 q 696 886 711 854 q 649 929 681 918 q 583 926 615 942 q 540 875 551 910 q 460 629 500 749 q 379 383 419 510 l 221 875 q 178 926 208 910 q 114 929 147 942 q 66 887 82 918 q 61 819 50 856 l 300 83 q 331 41 308 57 q 381 25 353 25 m 381 50 q 346 61 361 50 q 324 92 331 72 l 83 826 q 88 874 76 851 q 122 906 99 897 q 168 903 146 915 q 197 868 190 892 l 381 306 l 563 868 q 593 903 571 892 q 639 906 615 915 q 674 874 663 897 q 676 826 685 851 l 438 92 q 415 61 431 72 q 381 50 400 50 z "},"D":{"ha":744,"x_min":49,"x_max":715,"o":"m 706 579 q 715 481 715 531 q 708 396 715 438 q 689 314 701 354 q 599 157 658 226 q 460 47 539 88 l 461 47 q 367 13 417 24 q 268 1 318 1 q 119 28 186 1 q 68 68 88 39 q 49 133 49 97 l 49 826 q 68 892 49 863 q 119 932 88 921 q 269 960 192 960 q 371 947 322 960 l 369 947 q 488 898 432 932 q 589 815 544 864 q 663 706 633 767 q 706 579 692 646 m 683 574 q 642 694 671 636 q 571 797 614 751 q 477 874 531 842 q 365 922 424 907 q 269 935 317 935 q 128 908 193 935 q 88 876 103 899 q 72 826 72 854 l 72 133 q 88 83 72 106 q 128 51 103 61 q 196 32 160 38 q 268 26 232 26 q 450 69 364 26 q 581 173 525 107 q 667 322 638 239 q 692 481 692 399 q 683 574 692 529 m 660 569 q 644 331 683 449 q 563 190 617 251 q 439 92 510 128 q 268 51 358 51 q 201 57 233 51 q 136 75 168 63 q 107 98 118 82 q 96 133 96 114 l 96 826 q 107 862 96 846 q 136 885 118 878 q 269 910 199 910 q 360 899 313 910 q 465 854 415 885 q 554 781 515 824 q 622 683 594 738 q 660 569 649 629 m 532 374 q 549 458 546 414 q 543 544 551 501 q 468 694 526 631 q 406 747 440 726 q 332 778 371 767 q 301 783 317 782 q 269 785 285 785 q 215 781 242 785 l 215 181 q 268 175 239 175 q 330 183 300 175 q 386 204 360 190 q 474 273 436 229 q 532 374 513 317 m 510 382 q 456 290 492 331 q 376 226 421 250 q 268 200 326 200 q 253 200 263 200 q 239 201 244 200 l 239 758 q 256 760 249 760 q 269 761 263 761 q 326 754 299 761 q 392 724 358 744 q 450 676 426 704 q 495 613 478 649 q 519 538 513 578 q 526 481 526 503 q 522 430 526 456 q 510 381 517 404 l 510 382 m 486 389 q 498 434 493 411 q 503 481 503 457 q 496 533 503 503 q 473 600 489 568 q 432 660 457 632 q 381 703 410 686 q 319 729 351 721 l 321 729 q 269 736 293 736 l 263 736 l 263 225 l 268 225 q 365 249 321 225 q 438 306 407 269 q 486 390 469 343 l 486 389 z "},"H":{"ha":767,"x_min":50,"x_max":717,"o":"m 610 910 q 651 892 633 910 q 669 847 669 874 l 669 114 q 651 69 669 86 q 610 51 633 51 q 567 69 585 51 q 550 114 550 86 l 550 418 l 217 418 l 217 114 q 199 69 217 86 q 157 51 181 51 q 115 69 132 51 q 97 114 97 86 l 97 847 q 115 892 97 874 q 157 910 132 910 q 199 892 181 910 q 217 847 217 874 l 217 543 l 550 543 l 550 847 q 567 892 550 874 q 610 910 585 910 m 610 935 q 550 909 574 935 q 526 847 526 883 l 526 568 l 240 568 l 240 847 q 216 909 240 883 q 157 935 192 935 q 98 909 122 935 q 74 847 74 883 l 74 114 q 98 52 74 78 q 157 26 122 26 q 216 52 192 26 q 240 114 240 78 l 240 393 l 526 393 l 526 114 q 550 52 526 78 q 610 26 574 26 q 668 52 643 26 q 693 114 693 78 l 693 847 q 668 909 693 883 q 610 935 643 935 m 610 960 q 685 927 654 960 q 717 847 717 894 l 717 114 q 685 34 717 67 q 610 1 654 1 q 534 34 565 1 q 503 114 503 67 l 503 368 l 264 368 l 264 114 q 233 34 264 67 q 157 1 201 1 q 81 34 113 1 q 50 114 50 67 l 50 847 q 81 927 50 894 q 157 960 113 960 q 233 927 201 960 q 264 847 264 894 l 264 593 l 503 593 l 503 847 q 534 927 503 894 q 610 960 565 960 z "},"F":{"ha":729,"x_min":50,"x_max":717,"o":"m 610 593 q 685 561 654 593 q 717 482 717 529 q 685 402 717 435 q 610 369 654 369 l 264 369 l 264 114 q 233 35 264 68 q 157 3 201 3 q 81 35 113 3 q 50 114 50 68 l 50 849 q 81 928 50 896 q 157 961 113 961 l 610 961 q 685 928 654 961 q 717 849 717 896 q 685 769 717 801 q 610 736 654 736 l 264 736 l 264 593 l 610 593 m 240 569 l 240 761 l 610 761 q 668 787 643 761 q 693 849 693 813 q 668 910 693 885 q 610 936 643 936 l 157 936 q 97 910 121 936 q 74 849 74 885 l 74 114 q 97 53 74 78 q 157 28 121 28 q 215 53 190 28 q 240 114 240 78 l 240 394 l 610 394 q 668 420 643 394 q 693 482 693 446 q 668 544 693 518 q 610 569 643 569 l 240 569 m 610 544 q 651 526 633 544 q 668 482 668 508 q 651 438 668 456 q 610 419 633 419 l 217 419 l 217 114 q 199 70 217 88 q 157 53 181 53 q 115 70 132 53 q 97 114 97 88 l 97 849 q 115 893 97 875 q 157 911 132 911 l 610 911 q 651 893 633 911 q 668 849 668 875 q 651 804 668 822 q 610 786 633 786 l 217 786 l 217 544 l 610 544 z "},"M":{"ha":932,"x_min":49,"x_max":882,"o":"m 771 1 q 728 10 749 1 q 694 35 708 19 q 670 70 679 50 q 661 114 661 90 l 661 296 l 567 69 l 568 72 q 526 21 556 40 q 465 1 497 1 q 404 20 432 1 q 363 69 376 39 l 268 294 l 268 114 q 236 34 268 67 q 158 1 204 1 q 116 10 136 1 q 81 35 96 19 q 58 70 67 50 q 49 114 49 90 l 49 847 q 74 918 49 888 q 136 957 99 949 q 210 947 176 965 q 260 893 244 929 l 465 400 l 669 893 q 722 947 688 929 q 793 957 756 964 q 856 916 829 946 q 882 847 882 886 l 882 114 q 849 34 882 67 q 771 1 817 1 m 771 26 q 832 52 807 26 q 857 114 857 78 l 857 847 q 839 903 857 879 q 789 933 821 926 q 732 925 758 940 q 693 882 706 910 l 465 335 l 238 882 q 199 925 225 910 q 142 933 172 940 q 92 903 111 926 q 72 847 72 879 l 72 114 q 98 52 72 78 q 158 26 124 26 q 219 52 194 26 q 244 114 244 78 l 244 418 l 386 79 q 418 41 397 56 q 465 26 439 26 q 513 41 490 26 q 544 81 535 56 l 543 79 l 685 418 l 685 114 q 710 52 685 78 q 771 26 736 26 m 771 51 q 728 69 746 51 q 710 114 710 86 l 710 542 l 521 90 q 499 62 514 72 q 465 51 483 51 q 431 62 446 51 q 408 90 415 72 l 219 542 l 219 114 q 202 69 219 86 q 158 51 185 51 q 115 69 133 51 q 97 114 97 86 l 97 847 q 111 888 97 871 q 146 908 125 904 q 188 903 168 914 q 215 872 207 892 l 465 272 l 715 872 q 743 903 724 892 q 783 908 763 914 q 819 888 806 904 q 832 847 832 871 l 832 114 q 815 69 832 86 q 771 51 797 51 z "},"E":{"ha":764,"x_min":50,"x_max":717,"o":"m 264 374 l 264 231 l 610 231 q 685 197 654 231 q 717 118 717 164 q 685 38 717 71 q 610 6 654 6 l 157 6 q 81 38 113 6 q 50 118 50 71 l 50 853 q 81 931 50 899 q 157 964 113 964 l 610 964 q 685 931 654 964 q 717 853 717 899 q 685 773 717 806 q 610 740 654 740 l 264 740 l 264 597 l 610 597 q 685 564 654 597 q 717 485 717 531 q 685 406 717 439 q 610 374 654 374 l 264 374 m 610 399 q 669 424 644 399 q 693 485 693 449 q 669 547 693 521 q 610 572 644 572 l 240 572 l 240 765 l 610 765 q 669 791 644 765 q 693 853 693 817 q 669 915 693 889 q 610 940 644 940 l 157 940 q 98 915 122 940 q 74 853 74 889 l 74 118 q 98 56 74 82 q 157 31 122 31 l 610 31 q 669 56 644 31 q 693 118 693 82 q 669 180 693 154 q 610 206 644 206 l 240 206 l 240 399 l 610 399 m 217 424 l 217 181 l 610 181 q 652 162 635 181 q 669 118 669 143 q 652 74 669 92 q 610 56 635 56 l 157 56 q 115 74 132 56 q 97 118 97 92 l 97 853 q 115 897 97 878 q 157 915 132 915 l 610 915 q 652 897 635 915 q 669 853 669 878 q 652 808 669 826 q 610 790 635 790 l 217 790 l 217 547 l 610 547 q 652 529 635 547 q 669 485 669 511 q 652 441 669 458 q 610 424 635 424 l 217 424 z "},"I":{"ha":761,"x_min":47,"x_max":714,"o":"m 607 228 q 683 195 651 228 q 714 115 714 163 q 683 37 714 69 q 607 4 651 4 l 154 4 q 78 37 110 4 q 47 115 47 69 q 78 195 47 163 q 154 228 110 228 l 274 228 l 274 738 l 154 738 q 78 770 110 738 q 47 850 47 803 q 78 929 47 896 q 154 963 110 963 l 607 963 q 683 929 651 963 q 714 850 714 896 q 683 770 714 803 q 607 738 651 738 l 488 738 l 488 228 l 607 228 m 464 203 l 464 763 l 607 763 q 666 788 642 763 q 690 850 690 814 q 666 912 690 886 q 607 938 642 938 l 154 938 q 95 912 119 938 q 71 850 71 886 q 95 788 71 814 q 154 763 119 763 l 297 763 l 297 203 l 154 203 q 95 177 119 203 q 71 115 71 151 q 95 54 71 79 q 154 29 119 29 l 607 29 q 666 54 642 29 q 690 115 690 79 q 666 177 690 151 q 607 203 642 203 l 464 203 m 607 178 q 649 160 632 178 q 667 115 667 142 q 649 72 667 89 q 607 54 632 54 l 154 54 q 112 72 129 54 q 94 115 94 89 q 112 160 94 142 q 154 178 129 178 l 321 178 l 321 788 l 154 788 q 112 806 129 788 q 94 850 94 824 q 112 894 94 875 q 154 913 129 913 l 607 913 q 649 894 632 913 q 667 850 667 875 q 649 806 667 824 q 607 788 632 788 l 440 788 l 440 178 l 607 178 z "},"K":{"ha":765,"x_min":50,"x_max":718,"o":"m 675 210 q 708 167 697 192 q 718 119 718 143 q 696 51 718 81 l 696 53 q 656 19 679 29 q 610 8 633 8 q 576 14 593 8 q 544 31 558 19 l 264 260 l 264 121 q 233 41 264 74 q 157 8 201 8 q 81 41 113 8 q 50 121 50 74 l 50 856 q 81 934 50 901 q 157 967 113 967 q 233 934 201 967 q 264 856 264 901 l 264 714 l 544 943 q 610 967 572 967 q 694 925 660 967 q 718 856 718 893 q 708 806 718 831 q 675 765 697 782 l 676 767 l 336 488 l 676 208 l 675 210 m 297 488 q 480 638 392 567 q 661 785 568 708 q 685 817 676 799 q 694 856 694 836 q 690 883 694 868 q 675 908 685 897 q 610 942 649 942 q 560 924 579 942 l 240 661 l 240 856 q 217 917 240 892 q 157 942 193 942 q 99 917 124 942 q 74 856 74 892 l 74 121 q 99 59 74 85 q 157 33 124 33 q 217 59 193 33 q 240 121 240 85 l 240 314 l 560 51 q 610 33 582 33 q 676 67 650 33 q 694 119 694 92 q 685 158 694 139 q 661 189 676 176 l 297 488 m 646 169 q 669 128 665 154 q 657 82 672 101 q 636 64 649 69 q 610 58 624 58 q 574 71 590 58 l 217 364 l 217 121 q 199 76 217 94 q 157 58 182 58 q 115 76 133 58 q 97 121 97 94 l 97 856 q 115 899 97 881 q 157 917 133 917 q 199 899 182 917 q 217 856 217 881 l 217 611 l 574 904 q 617 916 593 919 q 657 893 642 913 q 669 847 672 874 q 646 806 665 821 l 260 488 l 646 169 z "},"T":{"ha":711,"x_min":22,"x_max":689,"o":"m 582 960 q 658 926 626 960 q 689 847 689 893 q 658 768 689 800 q 582 736 626 736 l 463 736 l 463 114 q 431 34 463 67 q 356 1 400 1 q 280 34 311 1 q 249 114 249 67 l 249 736 l 129 736 q 53 768 85 736 q 22 847 22 800 q 53 926 22 893 q 129 960 85 960 l 582 960 m 129 935 q 70 909 94 935 q 46 847 46 883 q 70 786 46 811 q 129 761 94 761 l 272 761 l 272 114 q 297 52 272 78 q 356 26 321 26 q 415 52 390 26 q 439 114 439 78 l 439 761 l 582 761 q 641 786 617 761 q 665 847 665 811 q 641 909 665 883 q 582 935 617 935 l 129 935 m 582 910 q 624 891 606 910 q 642 847 642 872 q 624 803 642 821 q 582 785 606 785 l 415 785 l 415 114 q 397 69 415 86 q 356 51 379 51 q 313 69 331 51 q 296 114 296 86 l 296 785 l 129 785 q 88 803 104 785 q 71 847 71 821 q 88 891 71 872 q 129 910 104 910 l 582 910 z "},"G":{"ha":753,"x_min":31,"x_max":699,"o":"m 590 508 q 666 476 635 508 q 697 396 697 443 l 697 153 q 683 99 697 125 q 646 57 669 72 q 549 13 600 28 q 444 -1 497 -1 q 420 -1 431 -1 q 400 1 410 0 q 278 40 338 10 q 172 117 218 71 q 94 224 128 163 q 44 351 61 285 q 34 415 38 382 q 31 479 31 447 q 50 625 31 550 q 140 803 78 725 q 285 921 203 881 q 364 949 324 940 q 444 957 404 957 q 549 942 497 957 q 646 899 600 928 q 676 869 664 888 q 694 831 689 851 q 696 788 699 810 q 682 744 693 765 q 615 693 658 704 q 535 706 572 682 q 491 727 514 721 q 444 733 468 733 q 376 718 410 733 q 302 656 333 697 q 256 561 271 614 q 247 521 249 542 q 244 478 244 500 q 253 406 244 443 q 321 279 272 328 q 426 224 368 232 q 454 223 440 222 q 483 228 468 224 l 483 283 l 433 283 q 358 316 389 283 q 326 396 326 349 q 358 476 326 443 q 433 508 389 508 l 590 508 m 433 483 q 374 458 399 483 q 350 396 350 432 q 374 334 350 360 q 433 308 399 308 l 507 308 l 507 208 q 424 199 467 194 l 422 199 q 359 219 390 204 q 304 260 328 235 q 258 323 276 288 q 229 400 240 358 q 221 478 221 438 q 233 569 221 525 q 285 674 250 628 q 365 740 319 719 q 444 758 401 758 q 497 751 471 758 q 546 728 522 743 q 609 717 576 708 q 661 757 642 726 q 670 824 679 789 q 633 878 661 858 q 542 919 590 906 q 444 932 493 932 q 296 899 367 932 q 158 786 217 860 q 74 618 100 713 q 58 550 63 585 q 54 479 54 515 q 58 419 54 449 q 68 357 61 389 q 114 237 83 293 q 189 136 144 181 q 288 62 233 90 q 401 26 343 33 q 422 24 413 25 q 444 24 432 24 q 542 37 493 24 q 633 78 590 50 q 663 111 653 90 q 674 153 674 132 l 674 396 q 649 458 674 432 q 590 483 624 483 l 433 483 m 590 458 q 632 440 614 458 q 650 396 650 422 l 650 153 q 621 100 650 118 q 444 49 539 49 q 425 49 435 49 q 406 51 415 50 q 298 85 350 58 q 206 153 246 111 q 135 248 165 194 q 92 364 106 301 q 78 489 76 425 q 96 611 79 553 q 176 770 121 700 q 306 876 232 840 q 465 908 382 913 q 621 857 549 903 q 648 818 642 843 q 642 771 654 793 q 604 742 628 749 q 560 750 581 736 q 458 783 513 779 q 356 763 404 786 q 267 690 304 739 q 210 576 229 640 q 197 485 197 532 q 207 393 196 438 q 239 310 218 349 q 288 243 260 272 q 419 174 346 185 q 531 192 478 167 l 531 333 l 433 333 q 392 351 410 333 q 374 396 374 369 q 392 440 374 422 q 433 458 410 458 l 590 458 z "},"N":{"ha":765,"x_min":49,"x_max":715,"o":"m 608 3 q 556 16 581 3 q 518 54 532 29 l 263 467 l 263 114 q 231 35 263 68 q 156 3 200 3 q 80 35 111 3 q 49 114 49 68 l 49 849 q 70 915 49 885 q 126 956 92 944 q 193 954 160 967 q 246 908 226 942 l 246 910 l 501 497 l 501 849 q 533 928 501 896 q 608 961 564 961 q 684 928 653 961 q 715 849 715 896 l 715 114 q 693 47 715 78 q 635 6 671 17 q 622 3 628 4 q 608 3 617 3 m 608 28 q 628 31 614 28 q 674 63 657 39 q 692 114 692 86 l 692 849 q 667 910 692 885 q 608 936 643 936 q 549 910 572 936 q 525 849 525 885 l 525 413 l 226 896 q 185 929 211 919 q 133 932 160 939 q 89 900 106 924 q 72 849 72 876 l 72 114 q 97 53 72 78 q 156 28 121 28 q 215 53 190 28 q 239 114 239 78 l 239 551 l 538 67 l 538 68 q 608 28 561 28 m 608 53 q 558 81 574 53 l 215 638 l 215 114 q 198 70 215 88 q 156 53 181 53 q 113 70 131 53 q 96 114 96 88 l 96 849 q 108 886 96 869 q 139 908 119 903 q 176 908 158 915 q 206 882 194 900 l 549 326 l 549 849 q 566 893 549 875 q 608 911 583 911 q 651 893 633 911 q 668 849 668 875 l 668 114 q 656 78 668 94 q 625 54 644 61 q 616 53 619 54 q 608 53 613 53 z "},"S":{"ha":706,"x_min":39,"x_max":669,"o":"m 617 446 q 657 363 644 408 q 667 271 669 318 q 644 185 663 228 q 597 108 626 143 q 458 18 539 46 q 412 8 436 11 q 361 4 388 4 q 331 6 346 4 q 300 11 317 7 l 301 11 q 163 66 226 24 q 61 171 99 108 q 47 213 50 190 q 49 256 44 235 q 64 296 53 278 q 93 326 75 314 q 174 342 132 351 q 240 292 217 332 q 280 252 256 268 q 335 229 304 236 q 367 228 350 228 q 400 235 385 229 l 399 233 q 442 260 428 242 q 454 288 453 272 q 453 300 456 294 q 447 311 450 306 q 404 344 436 328 q 369 360 388 354 q 332 374 351 367 l 319 379 l 321 379 q 265 399 293 389 q 206 426 236 410 l 206 425 q 89 528 128 468 l 89 526 q 51 609 63 564 q 42 700 39 654 q 65 785 47 744 q 111 861 83 826 q 247 947 168 922 q 299 959 274 956 q 349 963 324 963 q 378 962 365 963 q 404 960 392 961 q 542 906 479 947 q 646 801 606 864 q 660 769 657 785 q 664 739 664 754 q 651 688 664 713 q 617 646 639 663 q 586 631 601 635 q 558 626 571 626 q 508 640 532 626 q 469 676 485 653 l 471 676 q 372 736 438 725 q 340 738 356 739 q 308 732 324 736 q 267 707 281 725 q 259 694 263 701 q 254 681 256 688 q 256 668 253 674 q 261 657 258 663 l 261 658 q 301 625 274 639 q 339 608 318 615 q 379 593 360 600 l 403 586 q 444 570 422 578 q 499 546 465 563 q 617 446 578 501 m 597 432 q 488 524 563 483 q 440 545 460 538 q 401 560 421 553 l 374 568 q 367 571 369 568 q 328 585 347 578 q 292 603 310 592 q 242 643 256 624 q 233 663 236 651 q 231 683 229 674 q 250 724 233 704 q 301 757 272 749 q 376 761 335 767 q 440 736 410 756 q 489 690 471 717 q 519 662 500 672 q 558 651 538 651 q 604 665 582 651 q 640 739 640 693 q 628 788 640 763 q 531 885 590 846 q 401 935 472 924 q 376 937 389 936 q 349 938 364 938 q 301 935 325 938 q 254 924 278 932 q 128 843 181 900 q 86 775 101 813 q 65 697 71 738 q 74 617 63 657 q 108 540 85 576 q 217 447 144 488 q 272 422 244 432 q 328 403 300 413 l 340 397 q 377 384 360 390 q 414 367 394 378 q 465 326 453 347 q 478 285 479 307 q 458 243 475 263 q 406 210 440 221 l 407 210 q 332 206 374 201 q 267 232 296 213 q 221 279 238 251 q 169 317 201 310 q 106 306 136 325 q 70 251 78 286 q 81 185 63 215 q 176 86 117 126 q 306 35 236 46 l 304 35 q 361 29 328 29 q 407 33 385 29 q 451 43 429 36 q 522 77 488 56 q 582 125 557 99 q 623 194 606 156 q 643 272 640 233 l 643 274 q 634 355 646 314 q 597 432 622 396 m 579 417 q 612 348 601 385 q 619 275 622 311 q 564 143 613 199 q 510 97 540 115 q 446 67 481 78 q 404 58 425 61 q 361 54 383 54 q 308 60 332 54 q 188 108 243 71 q 101 199 133 144 q 93 245 88 221 q 119 285 99 269 q 163 293 140 299 q 200 265 186 288 q 253 211 219 233 q 328 181 288 189 q 413 186 369 175 q 476 226 453 199 q 501 283 499 251 q 485 342 506 313 q 425 389 467 368 q 383 408 406 400 q 336 425 360 417 l 335 426 q 281 444 308 435 q 228 469 254 454 q 128 556 163 504 q 96 624 106 588 q 89 696 86 660 q 108 766 93 732 q 146 828 122 800 q 261 900 192 879 q 397 910 329 919 q 517 863 463 899 q 607 774 572 826 q 616 726 621 751 q 590 686 611 701 q 547 677 571 672 q 510 704 522 682 q 454 758 489 736 q 379 786 419 779 q 296 781 338 794 q 260 765 276 775 q 232 742 243 754 q 215 715 221 729 q 207 685 208 700 q 222 628 206 656 q 281 581 243 600 q 324 560 301 569 q 371 543 347 551 l 372 543 q 425 524 399 533 q 479 501 451 514 q 579 417 542 467 z "},"Z":{"ha":771,"x_min":49,"x_max":721,"o":"m 158 4 q 104 19 129 4 q 64 61 79 35 q 51 120 49 89 q 69 176 53 151 l 68 176 l 414 738 l 158 738 q 83 770 114 738 q 51 850 51 803 q 83 930 51 897 q 158 963 114 963 l 611 963 q 665 947 640 963 q 706 904 690 932 q 719 845 721 876 q 700 789 717 814 l 701 789 l 357 228 l 611 228 q 687 195 656 228 q 718 115 718 163 q 687 37 718 69 q 611 4 656 4 l 158 4 m 611 29 q 671 54 647 29 q 694 115 694 79 q 671 177 694 151 q 611 203 647 203 l 313 203 l 682 803 q 694 847 693 822 q 683 893 694 872 q 653 925 672 913 q 611 938 635 938 l 158 938 q 99 912 124 938 q 75 850 75 886 q 99 788 75 814 q 158 763 124 763 l 457 763 l 89 163 q 76 119 78 143 q 86 74 75 94 q 117 41 97 53 q 158 29 136 29 l 611 29 m 611 54 l 158 54 q 128 63 143 54 q 106 86 114 71 q 108 150 90 118 l 501 788 l 158 788 q 116 806 133 788 q 99 850 99 824 q 116 894 99 876 q 158 913 133 913 l 611 913 q 664 881 646 913 q 672 848 672 865 q 661 817 671 831 l 268 178 l 611 178 q 653 160 636 178 q 671 115 671 142 q 653 72 671 89 q 611 54 636 54 z "},"X":{"ha":769,"x_min":50,"x_max":718,"o":"m 701 179 q 715 138 713 160 q 714 94 718 115 q 698 54 710 72 q 668 24 686 36 q 642 10 656 15 q 611 6 628 6 q 560 19 585 6 q 521 57 536 32 l 385 279 l 249 57 l 249 58 q 210 19 235 33 q 158 6 186 6 q 129 10 143 6 q 101 22 115 15 q 71 53 82 35 q 56 94 60 72 q 54 138 51 115 q 68 179 57 160 l 257 485 q 163 639 210 564 q 68 792 115 714 q 53 833 57 811 q 54 877 50 856 q 70 917 58 899 q 100 947 82 935 q 139 963 118 960 q 181 963 160 967 q 219 946 201 958 q 249 914 236 933 l 385 692 l 521 914 q 551 946 533 933 q 589 963 568 958 q 631 963 610 967 q 669 947 651 960 q 699 917 688 935 q 714 877 710 899 q 715 833 718 856 q 701 792 713 811 l 514 485 l 701 179 m 485 485 l 681 806 q 692 871 700 835 q 656 926 685 907 q 594 938 628 946 q 540 900 560 931 l 385 646 l 229 900 q 176 938 210 931 q 114 926 142 946 q 77 871 85 907 q 89 806 69 835 l 286 485 q 188 326 236 403 q 89 165 139 249 q 77 100 69 136 q 114 44 85 64 q 158 31 139 31 q 229 72 206 31 l 229 71 l 385 325 l 540 71 q 572 41 553 51 q 611 31 590 31 q 656 44 635 31 q 692 100 685 64 q 681 165 700 136 l 485 485 m 661 151 q 669 106 675 131 q 643 65 664 81 q 611 56 626 56 q 583 63 596 56 q 561 85 569 69 l 385 371 l 208 85 q 158 56 192 56 q 142 58 150 56 q 126 65 135 61 q 100 106 106 81 q 108 151 94 131 l 314 485 l 108 819 q 100 865 94 840 q 126 904 106 890 q 171 914 147 919 q 208 886 194 908 l 385 600 l 561 886 q 599 914 575 908 q 643 904 622 919 q 669 865 664 890 q 661 819 675 840 l 456 485 l 661 151 z "},"W":{"ha":1060,"x_min":42,"x_max":1024,"o":"m 717 4 q 649 28 679 4 q 608 88 618 51 l 531 392 q 492 239 511 314 q 453 88 472 164 q 413 28 443 51 q 343 4 382 4 q 275 28 306 4 q 235 88 244 51 l 47 824 q 46 867 42 844 q 61 908 50 889 q 90 940 72 926 q 131 958 107 953 l 129 958 q 174 961 151 964 q 215 947 196 958 q 247 918 233 936 q 265 878 260 900 l 343 574 l 422 878 q 463 938 432 914 q 531 963 494 963 q 599 938 568 963 q 640 878 629 914 l 717 574 l 796 878 q 848 947 808 922 q 933 958 888 971 l 932 958 q 1001 907 978 947 q 1014 824 1024 867 l 826 88 q 786 28 817 51 q 717 4 756 4 m 717 29 q 771 48 747 29 q 801 94 794 67 l 989 829 q 979 896 997 864 q 925 935 961 928 l 926 933 q 860 925 890 943 q 821 871 829 907 l 717 471 l 615 871 q 584 919 608 900 q 531 938 560 938 q 478 919 501 938 q 447 871 454 900 l 343 471 l 240 871 q 201 925 231 907 q 135 933 171 943 l 136 935 q 82 896 100 928 q 72 829 64 864 l 260 94 q 290 48 267 67 q 343 29 314 29 q 397 48 374 29 q 428 94 421 67 l 531 497 l 633 94 q 664 48 640 67 q 717 29 688 29 m 717 54 q 681 67 697 54 q 657 101 664 81 l 531 597 l 404 101 q 382 67 399 81 q 343 54 365 54 q 306 67 322 54 q 283 101 289 81 l 96 835 q 102 882 89 860 q 142 910 115 904 q 188 903 167 917 q 217 865 210 890 l 343 368 l 471 865 q 493 899 476 886 q 531 913 510 913 q 568 899 551 913 q 592 865 585 886 l 717 368 l 844 865 q 873 903 851 890 q 921 910 894 917 q 959 882 946 904 q 965 835 972 860 l 778 101 q 756 67 772 81 q 717 54 739 54 z "},"R":{"ha":753,"x_min":49,"x_max":715,"o":"m 693 178 l 693 179 q 715 110 715 150 q 705 61 715 85 q 672 21 694 38 l 674 21 q 642 4 658 10 q 608 -1 625 -1 q 561 10 585 -1 q 522 43 538 21 l 450 140 q 397 125 424 131 q 343 115 371 119 q 303 114 322 114 q 263 117 283 114 l 263 111 q 231 31 263 64 q 156 -1 200 -1 q 80 31 111 -1 q 49 111 49 64 l 49 803 q 63 857 49 831 q 100 899 76 883 q 202 942 149 928 q 310 957 256 957 q 481 917 397 957 q 562 863 524 896 q 630 788 600 829 q 681 700 660 747 q 710 604 701 653 q 714 568 713 585 q 715 536 715 551 q 707 455 715 497 q 685 376 699 413 q 658 322 674 350 q 625 271 642 294 l 693 178 m 593 272 q 661 385 636 321 q 692 536 692 461 q 690 569 692 553 q 686 600 689 585 l 686 599 q 660 690 679 646 q 613 774 642 735 q 549 843 585 813 q 469 894 513 874 l 471 894 q 310 932 393 932 q 113 878 204 932 q 83 845 93 865 q 72 803 72 825 l 72 111 q 97 49 72 75 q 156 24 121 24 q 215 49 190 24 q 239 111 239 75 l 239 146 q 291 138 267 139 q 343 140 315 138 q 401 152 372 144 q 458 172 429 160 l 542 58 q 572 33 554 42 q 608 24 590 24 q 658 42 633 24 q 683 72 674 54 q 692 110 692 90 q 674 163 692 140 l 593 272 m 654 149 q 666 102 669 128 q 643 61 663 76 q 608 49 628 49 q 560 74 578 49 l 465 201 q 340 165 406 174 q 215 176 278 160 l 215 111 q 197 67 215 85 q 156 49 179 49 q 113 67 131 49 q 96 111 96 85 l 96 803 q 125 857 96 836 q 291 907 201 901 q 460 872 381 913 q 594 759 540 833 q 663 594 647 685 q 640 394 679 493 q 563 274 613 325 l 654 149 m 329 290 q 393 306 361 293 q 451 338 425 318 q 497 384 476 357 q 531 443 518 411 q 546 508 542 475 q 544 575 550 542 q 499 683 536 633 q 410 761 463 733 q 313 783 365 782 q 215 764 261 783 l 215 308 q 329 290 272 283 m 326 315 q 239 325 286 310 l 239 749 q 272 757 256 756 q 308 758 289 758 q 401 738 357 758 l 400 738 q 480 669 447 714 q 521 569 513 624 q 525 536 525 550 q 520 494 525 515 q 508 451 515 472 l 510 453 q 479 400 499 425 q 436 357 460 375 q 326 315 388 319 m 326 340 q 424 378 379 344 q 459 415 443 393 q 486 463 475 438 l 486 461 q 497 498 493 479 q 501 536 501 517 q 497 567 501 547 q 461 655 490 614 q 390 715 432 696 l 392 714 q 308 733 350 733 q 285 732 297 733 q 263 728 274 731 l 263 344 q 294 340 278 342 q 325 340 310 338 l 326 340 z "},"J":{"ha":736,"x_min":43,"x_max":689,"o":"m 372 1 q 226 31 297 1 q 149 73 185 47 q 90 129 114 99 q 73 151 79 142 q 60 172 67 161 q 46 215 49 193 q 49 257 43 236 q 67 296 54 278 q 99 326 79 314 q 178 333 135 347 q 244 283 221 319 q 251 274 246 279 q 303 238 272 250 q 383 225 339 222 q 422 232 403 226 q 457 246 442 238 q 467 251 460 247 q 476 257 474 256 l 476 736 l 213 736 q 138 768 168 736 q 107 847 107 800 q 138 926 107 893 q 213 960 168 960 l 582 960 q 658 926 626 960 q 689 847 689 893 l 689 214 q 669 150 689 178 q 557 47 631 89 q 479 15 521 26 q 393 1 438 4 l 372 1 m 372 26 l 392 26 q 546 68 478 31 q 604 110 578 86 q 650 163 631 135 q 665 214 665 185 l 665 847 q 642 909 665 883 q 582 935 618 935 l 213 935 q 155 909 179 935 q 131 847 131 883 q 155 786 131 811 q 213 761 179 761 l 500 761 l 500 246 q 486 235 493 239 q 468 224 479 231 q 385 200 432 203 q 339 202 361 197 q 294 215 317 207 q 261 234 278 222 q 235 257 244 246 l 224 272 q 175 314 208 304 q 111 304 142 324 q 72 251 81 285 q 82 186 64 218 q 94 165 88 176 q 108 146 101 154 q 165 92 132 118 q 235 53 199 67 q 372 26 300 26 m 372 51 q 243 76 303 51 q 178 112 207 90 q 126 161 149 133 q 113 180 119 171 q 101 197 107 189 q 95 245 89 221 q 122 282 101 269 q 168 290 144 296 q 203 260 192 283 q 209 251 206 256 q 217 242 213 246 q 247 213 229 226 q 286 192 265 200 q 386 175 332 172 q 479 201 435 176 q 503 217 493 208 q 524 235 514 225 l 524 785 l 213 785 q 172 803 189 785 q 154 847 154 821 q 172 891 154 872 q 213 910 189 910 l 582 910 q 624 891 607 910 q 642 847 642 872 l 642 214 q 631 178 642 193 q 588 130 613 151 q 535 90 564 108 q 392 51 472 56 l 372 51 z "},"Y":{"ha":733,"x_min":25,"x_max":708,"o":"m 617 906 q 649 872 639 896 q 649 825 658 849 l 428 276 l 428 114 q 410 70 428 88 q 368 53 392 53 q 326 70 343 53 q 308 114 308 88 l 308 276 l 85 825 q 85 872 76 849 q 118 906 94 896 q 164 907 142 917 q 196 872 186 897 l 368 449 l 538 872 q 571 907 549 897 q 617 906 593 917 m 626 929 q 563 930 594 943 q 517 882 531 917 l 368 511 l 218 882 q 173 928 204 914 q 108 929 142 943 q 63 881 76 914 q 63 815 50 847 l 285 272 l 285 114 q 308 53 285 78 q 368 28 332 28 q 426 53 401 28 q 451 114 451 78 l 451 271 l 669 815 q 669 881 682 849 q 626 929 657 914 m 636 953 q 692 891 676 933 q 693 806 708 849 l 475 265 l 475 114 q 444 35 475 68 q 368 3 413 3 q 292 35 324 3 q 261 114 261 68 l 261 265 l 42 806 q 42 891 25 849 q 99 953 58 933 q 182 953 140 971 q 240 893 224 936 l 368 578 l 494 892 q 554 953 513 935 q 636 953 596 971 z "},"U":{"ha":756,"x_min":44,"x_max":711,"o":"m 378 0 q 267 18 321 0 q 168 72 213 36 q 90 160 121 108 q 46 269 58 211 q 45 275 46 271 q 44 282 44 279 l 44 846 q 53 889 44 868 q 77 925 63 910 q 111 949 92 940 q 153 958 131 958 q 228 925 197 958 q 260 846 260 892 l 260 304 q 276 276 265 293 q 296 251 286 260 q 335 231 314 239 q 378 224 357 224 q 422 231 400 224 q 461 251 443 239 q 483 276 472 263 q 497 304 493 289 l 497 846 q 528 925 497 892 q 604 958 560 958 q 680 925 649 958 q 711 846 711 892 l 711 289 q 711 276 711 282 q 710 263 711 269 l 710 265 q 667 158 699 207 q 589 72 636 108 q 490 18 544 36 q 378 0 436 0 m 378 25 q 482 42 431 25 q 575 92 533 60 q 646 172 617 126 q 686 269 675 218 q 688 280 688 276 q 688 289 688 283 l 688 846 q 664 908 688 882 q 604 933 640 933 q 546 908 571 933 q 521 846 521 882 l 521 297 q 503 263 515 279 q 475 232 490 246 q 378 199 433 199 q 328 208 354 199 q 282 232 301 217 q 255 262 267 243 q 236 297 243 281 l 236 846 q 212 908 236 882 q 153 933 188 933 q 94 908 118 933 q 69 846 69 882 l 69 274 q 111 173 82 219 q 182 92 140 126 q 274 42 224 58 q 378 25 325 25 m 378 50 q 283 65 329 50 q 196 113 236 81 q 131 185 157 143 q 94 275 106 226 q 94 282 94 279 q 93 289 93 285 l 93 846 q 110 890 93 872 q 153 908 128 908 q 194 890 178 908 q 211 846 211 872 l 211 296 q 268 211 224 246 q 378 174 317 174 q 489 211 443 174 q 544 296 531 244 l 544 846 q 563 890 544 872 q 604 908 581 908 q 647 890 629 908 q 664 846 664 872 l 664 289 q 663 275 664 281 q 626 185 653 226 q 561 113 600 143 q 475 65 522 81 q 378 50 428 50 z "},"O":{"ha":1038,"x_min":32,"x_max":1006,"o":"m 990 735 q 1001 672 997 707 q 1004 608 1006 638 q 985 505 1001 560 q 943 396 969 450 q 785 175 882 275 q 569 15 688 75 l 572 17 q 519 3 550 3 q 493 6 506 3 q 468 15 481 8 q 357 87 411 46 q 254 177 303 128 q 165 282 206 226 q 94 396 124 338 q 52 505 68 450 q 33 608 36 560 q 35 672 32 639 q 46 733 39 706 q 108 854 65 803 q 173 910 136 886 q 247 947 210 933 q 292 958 271 954 q 336 961 314 961 q 417 950 372 961 q 470 928 444 942 q 518 897 496 914 q 567 928 540 914 q 621 950 593 942 q 701 961 663 961 q 745 958 724 961 q 790 947 767 954 q 864 910 828 933 q 928 854 900 886 q 990 735 971 803 m 967 728 q 943 788 957 760 q 910 839 929 815 q 852 889 886 867 q 782 924 818 911 q 701 936 742 936 q 628 926 661 936 q 519 865 565 907 q 469 901 496 888 q 410 926 442 915 q 336 936 376 936 q 256 924 294 936 q 187 889 221 911 q 128 839 153 867 q 94 787 108 815 q 71 726 81 758 q 60 669 64 700 q 58 611 57 639 q 75 511 61 563 q 117 407 89 460 q 269 192 176 286 q 479 38 361 97 l 478 39 q 499 30 489 32 q 519 28 510 28 q 540 30 529 28 q 560 39 550 32 l 558 38 q 769 192 676 97 q 921 407 861 286 q 962 512 947 461 q 979 611 976 563 q 977 670 981 639 q 967 728 974 701 m 943 721 q 954 613 958 668 q 899 418 950 521 q 750 210 840 301 q 547 60 660 118 q 519 53 535 53 q 490 60 503 53 q 288 210 378 118 q 139 418 197 301 q 99 519 113 471 q 83 613 86 567 q 84 668 81 640 q 94 721 88 696 q 147 822 111 781 q 263 900 196 879 q 336 911 300 911 q 403 903 369 911 q 519 829 471 882 q 636 903 565 882 q 701 911 667 911 q 775 900 738 911 q 892 822 842 879 q 943 721 925 782 m 831 618 q 823 687 832 654 q 794 743 814 719 q 768 766 783 757 q 738 782 753 775 q 701 786 721 786 q 669 782 686 786 q 611 746 635 771 q 581 681 586 715 q 560 644 576 658 q 519 629 543 629 q 478 644 496 629 q 457 681 461 658 q 447 715 454 699 q 428 746 439 731 q 368 782 401 772 q 336 786 351 786 q 300 782 318 786 q 269 766 285 775 q 243 743 254 757 q 215 687 224 719 q 208 618 206 654 q 251 474 210 554 q 364 308 296 382 q 519 186 432 235 q 674 308 606 235 q 786 474 742 382 q 831 618 826 551 m 806 619 q 793 556 803 590 q 764 485 783 522 q 660 331 722 400 q 519 214 597 263 q 378 331 442 263 q 274 485 315 400 q 244 556 254 522 q 233 619 235 590 q 263 728 229 686 l 261 726 q 282 745 269 738 q 308 758 294 753 l 307 758 q 322 761 315 761 q 336 761 329 761 q 349 761 343 761 q 361 758 354 761 q 408 728 388 750 l 407 731 q 423 705 417 718 q 432 676 429 692 q 463 624 439 644 q 519 604 488 604 q 576 624 551 604 q 606 676 600 644 q 631 731 611 704 l 629 728 q 676 758 649 749 q 689 761 683 761 q 701 761 694 761 q 716 761 708 761 q 731 758 724 761 l 729 758 q 756 745 743 753 q 776 726 768 738 q 806 619 808 686 m 781 621 q 775 672 782 649 q 757 711 768 694 q 740 724 750 718 q 721 735 731 731 q 713 736 718 736 q 701 736 707 736 q 692 736 697 736 q 685 735 688 736 q 666 727 675 732 q 649 714 657 722 q 637 694 642 706 q 629 672 632 683 q 591 606 622 632 q 519 579 560 579 q 446 606 478 579 q 407 672 414 632 q 392 713 403 694 q 354 733 376 726 q 343 736 347 736 q 336 736 339 736 q 324 736 329 736 q 314 735 318 736 l 317 735 q 297 725 306 731 q 281 711 288 719 l 282 713 q 258 621 256 678 q 296 494 260 568 q 391 354 332 418 q 521 244 450 290 q 742 494 665 338 q 781 621 776 567 z "},"L":{"ha":724,"x_min":50,"x_max":717,"o":"m 157 3 q 81 35 113 3 q 50 114 50 68 l 50 849 q 81 928 50 896 q 157 961 113 961 q 233 928 201 961 q 264 849 264 896 l 264 226 l 610 226 q 685 194 654 226 q 717 114 717 161 q 685 35 717 68 q 610 3 654 3 l 157 3 m 610 28 q 669 53 644 28 q 693 114 693 78 q 669 176 693 150 q 610 201 644 201 l 240 201 l 240 849 q 217 910 240 885 q 157 936 193 936 q 98 910 122 936 q 74 849 74 885 l 74 114 q 98 53 74 78 q 157 28 122 28 l 610 28 m 610 53 l 157 53 q 115 70 132 53 q 97 114 97 88 l 97 849 q 115 893 97 875 q 157 911 132 911 q 199 893 182 911 q 217 849 217 875 l 217 176 l 610 176 q 652 159 635 176 q 669 114 669 142 q 652 70 669 88 q 610 53 635 53 z "},"A":{"ha":765,"x_min":28,"x_max":738,"o":"m 724 150 q 718 63 738 106 q 657 6 699 21 q 615 0 636 -1 q 574 11 593 1 q 541 38 556 21 q 519 76 526 54 l 493 160 l 272 160 l 244 76 q 206 21 233 42 q 143 0 178 0 q 108 6 124 0 q 48 63 68 22 q 40 149 28 104 l 279 883 q 318 938 290 917 q 382 958 346 958 q 444 938 417 958 q 485 883 472 917 l 724 150 m 461 875 q 431 917 453 901 q 382 933 410 933 q 333 917 354 933 q 301 875 311 901 l 63 140 q 67 73 51 104 q 115 31 83 42 q 143 25 129 25 q 192 41 171 25 q 222 83 214 57 l 256 185 l 510 185 l 542 83 q 585 33 553 49 q 650 31 617 18 q 697 74 682 42 q 701 140 713 106 l 461 875 m 678 133 q 675 85 686 108 q 640 54 664 63 q 594 56 617 44 q 564 92 572 68 l 528 210 l 238 210 l 199 92 q 177 61 192 72 q 143 50 163 50 q 124 54 132 50 q 89 85 100 63 q 85 133 78 108 l 325 868 q 382 908 339 908 q 417 898 401 908 q 439 868 432 888 l 678 133 m 486 333 l 382 653 l 278 333 l 486 333 m 311 358 l 382 576 l 453 358 l 311 358 m 419 383 l 382 497 l 344 383 l 419 383 z "},"*":{"ha":343,"x_min":32,"x_max":314,"o":"m 307 486 q 311 451 314 469 q 293 389 308 421 q 246 323 275 353 q 181 275 217 293 q 172 272 178 272 q 163 275 167 272 q 98 323 126 293 q 50 389 69 353 q 38 421 42 406 q 33 451 35 436 q 36 486 32 467 q 53 518 43 506 q 90 543 69 536 q 114 547 100 547 q 135 544 121 547 q 156 535 146 540 q 172 521 165 529 q 210 544 185 536 q 231 547 224 547 q 254 543 242 547 q 292 518 272 538 q 307 486 303 504 z "},"P":{"ha":738,"x_min":49,"x_max":715,"o":"m 710 608 q 714 573 713 589 q 715 540 715 557 q 708 459 715 500 q 685 381 700 418 q 629 283 663 328 q 550 201 596 238 q 344 119 460 132 q 304 118 324 118 q 263 121 285 118 l 263 115 q 231 35 263 68 q 156 3 200 3 q 80 35 111 3 q 49 115 49 68 l 49 807 q 63 864 49 839 q 103 904 76 889 l 103 903 q 203 947 150 932 q 308 961 256 961 q 481 922 399 961 q 563 867 524 900 q 632 792 601 833 q 683 703 663 750 q 711 607 703 657 l 710 608 m 688 603 q 615 778 672 699 q 471 899 557 858 q 392 927 433 918 q 308 936 350 936 q 208 922 260 936 q 114 882 157 908 q 83 850 94 869 q 72 807 72 831 l 72 115 q 97 53 72 79 q 156 28 121 28 q 215 53 192 28 q 239 115 239 79 l 239 150 q 291 142 265 143 q 343 144 317 142 q 536 221 449 156 q 663 389 622 286 q 684 464 676 425 q 692 540 692 503 q 688 604 692 575 l 688 603 m 663 599 q 640 399 679 497 q 521 240 601 303 q 340 169 442 181 q 277 169 308 167 q 215 182 246 172 l 215 115 q 198 71 215 89 q 156 53 181 53 q 113 71 131 53 q 96 115 96 89 l 96 807 q 126 861 96 843 q 291 912 201 907 q 461 876 381 917 q 596 764 542 839 q 663 599 650 689 m 531 447 q 546 579 557 513 q 500 689 536 639 q 411 765 464 739 q 315 787 367 786 q 215 768 263 788 l 215 313 q 329 294 272 288 q 451 342 397 301 q 531 447 504 383 m 510 457 q 438 361 486 399 q 386 333 414 343 q 328 319 358 322 q 239 329 285 314 l 239 751 q 274 760 258 758 q 310 763 290 763 q 401 742 360 763 l 400 742 q 481 673 447 718 q 522 575 514 628 q 524 558 524 565 q 525 543 525 550 q 522 499 525 521 q 510 457 518 476 m 488 467 q 501 543 501 506 q 501 557 501 549 q 499 574 500 565 l 500 571 q 462 658 492 618 q 390 719 432 699 q 310 738 351 738 q 263 732 285 738 l 263 349 q 294 344 278 346 q 325 344 310 342 q 424 382 379 349 l 422 382 q 460 419 444 397 q 488 467 476 442 z "},"B":{"ha":758,"x_min":50,"x_max":719,"o":"m 717 297 q 663 117 719 199 q 601 51 638 79 q 521 7 565 22 q 504 2 514 4 q 485 0 494 0 l 157 0 q 81 33 113 0 q 50 113 50 67 l 50 846 q 81 926 50 893 q 157 958 113 958 l 485 958 q 503 957 494 958 q 521 953 513 956 q 661 838 607 919 q 699 753 685 797 q 711 661 713 708 q 695 567 710 613 q 654 483 681 521 q 717 297 714 401 m 693 296 q 638 465 690 397 l 621 483 l 629 492 q 672 572 657 528 q 688 663 686 617 q 640 824 688 749 q 513 928 593 897 q 485 933 501 933 l 157 933 q 98 908 122 933 q 74 846 74 882 l 74 113 q 98 51 74 76 q 157 25 122 25 l 485 25 q 513 31 501 25 l 511 31 q 585 68 551 42 q 643 131 619 94 q 681 209 668 167 q 693 296 694 251 m 669 296 q 659 217 671 256 q 624 146 647 178 q 504 54 578 76 q 485 50 493 50 l 157 50 q 115 68 132 50 q 97 113 97 86 l 97 846 q 115 890 97 872 q 157 908 132 908 l 485 908 q 506 904 494 908 q 621 810 578 879 q 653 740 642 778 q 663 663 664 701 q 611 507 663 574 q 600 494 606 500 q 589 482 594 488 l 614 456 q 654 381 640 422 q 669 296 668 340 m 528 218 q 550 294 550 254 q 521 376 550 339 q 458 417 496 408 l 217 417 l 217 174 l 475 174 q 528 218 508 189 m 217 785 l 217 542 l 457 542 q 490 558 474 547 q 517 583 506 568 q 537 621 529 600 q 544 664 544 642 q 522 740 547 704 q 474 785 506 768 l 217 785 m 508 232 q 492 213 501 221 q 471 199 482 206 l 240 199 l 240 392 l 457 392 q 481 380 471 389 q 503 360 492 371 l 504 360 q 526 294 526 331 q 507 232 526 260 l 508 232 m 469 760 q 487 744 478 753 q 503 726 496 736 q 515 696 510 713 q 521 664 521 679 q 515 629 521 646 q 497 599 508 613 q 478 581 490 590 q 454 567 465 571 l 240 567 l 240 760 l 469 760 m 488 246 q 503 294 503 268 q 485 343 503 321 l 485 344 q 470 358 478 351 q 453 367 463 364 l 264 367 l 264 224 l 464 224 q 488 246 479 235 m 264 735 l 264 592 l 449 592 q 479 614 465 597 q 496 665 496 638 q 494 690 497 678 q 483 713 490 703 q 463 735 474 728 l 264 735 z "},"Q":{"ha":1046,"x_min":31,"x_max":1007,"o":"m 993 733 q 1003 672 1000 706 q 1006 608 1007 639 q 944 396 999 506 q 896 313 924 356 q 840 235 868 271 l 886 188 q 918 110 918 153 q 886 31 918 65 q 806 -1 851 -1 q 728 32 761 -1 l 679 81 q 626 47 654 64 q 572 17 599 29 q 548 6 561 10 q 519 3 535 3 q 493 6 507 3 q 467 17 479 8 l 469 15 q 252 175 347 78 q 96 396 157 272 q 53 506 68 454 q 35 608 38 558 q 47 735 31 674 q 73 799 57 767 q 108 854 89 831 q 173 910 136 886 q 249 947 210 935 q 338 961 290 961 q 417 950 372 961 q 472 928 444 942 q 521 897 500 915 q 621 950 565 933 q 703 961 665 961 q 746 958 724 961 q 790 947 768 954 q 865 910 828 935 q 929 854 901 886 q 992 735 972 803 l 993 733 m 968 728 q 911 839 950 790 q 852 890 886 867 q 783 924 818 913 q 703 936 742 936 q 629 926 663 936 q 569 902 596 915 q 519 865 543 889 q 468 902 496 888 q 411 926 440 917 q 338 936 378 936 q 256 924 297 936 q 187 890 221 913 q 129 839 153 867 q 71 728 90 792 q 61 670 64 701 q 58 611 58 639 q 76 511 61 563 q 118 407 90 460 q 269 192 176 286 q 481 38 363 97 l 479 39 q 501 30 490 32 q 519 28 511 28 q 560 39 543 28 l 558 38 q 622 72 590 53 q 681 114 653 92 l 744 50 q 806 24 771 24 q 868 49 840 24 q 893 110 893 75 q 868 171 893 143 l 807 233 q 869 315 840 272 q 922 407 897 358 q 964 511 950 460 q 981 611 978 563 q 978 669 982 639 q 968 728 975 700 m 944 721 q 955 668 951 696 q 956 613 958 640 q 940 519 953 567 q 899 418 926 471 q 774 233 847 313 l 850 154 q 868 110 868 135 q 850 67 868 85 q 806 49 832 49 q 763 67 781 49 l 682 147 q 617 100 651 122 q 547 60 583 78 q 519 53 536 53 q 492 60 501 53 q 288 210 378 118 q 140 418 199 301 q 83 613 90 519 q 85 668 82 640 q 96 721 88 696 q 147 824 113 782 q 264 900 197 879 q 300 909 282 907 q 338 911 318 911 q 403 903 371 911 q 519 829 471 882 q 636 903 568 882 q 703 911 667 911 q 740 909 722 911 q 776 900 758 907 q 892 824 846 879 q 944 721 928 779 m 831 619 q 796 743 835 696 q 739 782 772 771 q 703 788 724 788 q 669 782 685 788 q 611 746 638 774 q 582 681 586 717 q 560 644 578 658 q 519 629 543 629 q 478 644 496 629 q 458 681 461 658 q 428 746 451 718 q 369 782 403 774 q 338 788 354 788 q 301 782 317 788 q 243 743 267 771 q 208 619 204 696 q 253 474 213 551 q 365 308 297 382 q 519 186 433 235 q 583 228 553 206 q 642 276 614 250 q 643 279 643 278 q 788 474 732 360 q 831 619 826 554 m 806 619 q 794 556 803 590 q 765 485 785 522 q 703 385 738 432 q 626 297 669 338 q 574 251 600 272 q 519 214 547 229 q 378 331 442 263 q 275 485 315 400 q 246 556 256 522 q 233 619 236 590 q 263 728 229 686 q 310 758 281 747 l 308 758 q 338 763 321 763 q 363 758 347 763 q 386 747 374 754 q 410 728 399 739 l 408 731 q 433 678 426 708 q 463 625 439 646 q 519 604 488 604 q 576 625 551 604 q 607 678 600 646 q 631 731 611 707 l 631 728 q 652 747 640 739 q 676 758 664 754 q 703 763 689 763 q 731 758 718 763 l 729 758 q 776 728 758 747 q 806 619 810 688 m 781 621 q 776 672 782 649 q 757 711 769 696 q 742 724 751 718 q 722 735 732 731 q 703 738 711 738 q 685 733 697 738 q 650 715 661 726 q 638 694 643 706 q 631 672 632 683 q 592 606 624 632 q 519 579 560 579 q 447 606 478 579 q 408 672 415 632 q 390 713 404 697 l 392 713 q 375 726 385 721 q 354 735 365 732 q 338 738 343 738 q 317 735 328 738 q 282 713 294 725 q 263 673 269 697 q 258 621 257 649 q 297 494 263 567 q 392 353 333 418 q 521 243 450 289 q 610 315 567 272 q 683 398 650 353 q 742 496 715 443 q 781 621 776 568 z "},"a":{"ha":767,"x_min":28,"x_max":738,"o":"m 724 150 q 718 63 738 106 q 657 6 699 21 q 615 0 636 -1 q 574 11 593 1 q 541 38 556 21 q 519 76 526 54 l 493 160 l 272 160 l 244 76 q 206 21 233 42 q 143 0 178 0 q 108 6 124 0 q 48 63 68 22 q 40 149 28 104 l 279 883 q 318 938 290 917 q 382 958 346 958 q 444 938 417 958 q 485 883 472 917 l 724 150 m 461 875 q 431 917 453 901 q 382 933 410 933 q 333 917 354 933 q 301 875 311 901 l 63 140 q 67 73 51 104 q 115 31 83 42 q 143 25 129 25 q 192 41 171 25 q 222 83 214 57 l 256 185 l 510 185 l 542 83 q 585 33 553 49 q 650 31 617 18 q 697 74 682 42 q 701 140 713 106 l 461 875 m 678 133 q 675 85 686 108 q 640 54 664 63 q 594 56 617 44 q 564 92 572 68 l 528 210 l 238 210 l 199 92 q 177 61 192 72 q 143 50 163 50 q 124 54 132 50 q 89 85 100 63 q 85 133 78 108 l 325 868 q 382 908 339 908 q 417 898 401 908 q 439 868 432 888 l 678 133 m 486 333 l 382 653 l 278 333 l 486 333 m 311 358 l 382 576 l 453 358 l 311 358 m 419 383 l 382 497 l 344 383 l 419 383 z "},"b":{"ha":758,"x_min":50,"x_max":719,"o":"m 717 297 q 663 117 719 199 q 601 51 638 79 q 521 7 565 22 q 504 2 514 4 q 485 0 494 0 l 157 0 q 81 33 113 0 q 50 113 50 67 l 50 846 q 81 926 50 893 q 157 958 113 958 l 485 958 q 503 957 494 958 q 521 953 513 956 q 661 838 607 919 q 699 753 685 797 q 711 661 713 708 q 695 567 710 613 q 654 483 681 521 q 717 297 714 401 m 693 296 q 638 465 690 397 l 621 483 l 629 492 q 672 572 657 528 q 688 663 686 617 q 640 824 688 749 q 513 928 593 897 q 485 933 501 933 l 157 933 q 98 908 122 933 q 74 846 74 882 l 74 113 q 98 51 74 76 q 157 25 122 25 l 485 25 q 513 31 501 25 l 511 31 q 585 68 551 42 q 643 131 619 94 q 681 209 668 167 q 693 296 694 251 m 669 296 q 659 217 671 256 q 624 146 647 178 q 504 54 578 76 q 485 50 493 50 l 157 50 q 115 68 132 50 q 97 113 97 86 l 97 846 q 115 890 97 872 q 157 908 132 908 l 485 908 q 506 904 494 908 q 621 810 578 879 q 653 740 642 778 q 663 663 664 701 q 611 507 663 574 q 600 494 606 500 q 589 482 594 488 l 614 456 q 654 381 640 422 q 669 296 668 340 m 528 218 q 550 294 550 254 q 521 376 550 339 q 458 417 496 408 l 217 417 l 217 174 l 475 174 q 528 218 508 189 m 217 785 l 217 542 l 457 542 q 490 558 474 547 q 517 583 506 568 q 537 621 529 600 q 544 664 544 642 q 522 740 547 704 q 474 785 506 768 l 217 785 m 508 232 q 492 213 501 221 q 471 199 482 206 l 240 199 l 240 392 l 457 392 q 481 380 471 389 q 503 360 492 371 l 504 360 q 526 294 526 331 q 507 232 526 260 l 508 232 m 469 760 q 487 744 478 753 q 503 726 496 736 q 515 696 510 713 q 521 664 521 679 q 515 629 521 646 q 497 599 508 613 q 478 581 490 590 q 454 567 465 571 l 240 567 l 240 760 l 469 760 m 488 246 q 503 294 503 268 q 485 343 503 321 l 485 344 q 470 358 478 351 q 453 367 463 364 l 264 367 l 264 224 l 464 224 q 488 246 479 235 m 264 735 l 264 592 l 449 592 q 479 614 465 597 q 496 665 496 638 q 494 690 497 678 q 483 713 490 703 q 463 735 474 728 l 264 735 z "},"c":{"ha":751,"x_min":32,"x_max":706,"o":"m 561 211 q 606 219 582 225 q 643 190 629 214 q 649 144 656 168 q 622 104 643 119 q 537 67 582 79 q 446 54 492 54 q 426 54 436 54 q 407 56 417 54 q 299 90 351 64 q 207 158 247 115 q 137 253 167 199 q 93 368 107 307 q 97 617 63 494 q 178 776 122 706 q 307 882 233 846 q 467 913 383 918 q 622 861 550 907 q 649 824 643 849 q 643 775 656 799 q 606 748 629 754 q 561 754 582 742 q 460 788 514 785 q 357 768 406 792 q 268 694 306 744 q 211 582 231 644 q 198 490 199 538 q 208 399 197 443 q 240 315 219 354 q 289 247 261 276 q 351 202 317 219 q 421 179 385 185 q 561 211 494 171 m 549 233 q 424 204 492 196 q 306 265 356 213 q 260 328 278 293 q 231 404 242 364 q 222 483 222 442 q 235 574 222 532 q 286 678 251 633 q 367 746 321 724 q 406 759 386 756 q 446 763 426 763 q 547 733 501 763 q 610 723 578 714 q 663 761 643 732 q 672 828 681 793 q 635 882 663 864 q 446 938 547 938 q 297 904 368 938 q 160 792 218 865 q 75 624 101 718 q 60 556 64 590 q 56 485 56 521 q 59 424 56 454 q 69 363 63 393 q 115 242 85 299 q 190 140 146 185 q 290 67 235 94 q 403 31 344 39 q 424 30 414 31 q 446 29 433 29 q 543 42 494 29 q 635 83 592 56 q 672 138 663 103 q 663 203 681 172 q 610 244 643 235 q 549 233 578 253 m 536 256 q 616 267 574 279 q 683 215 658 256 q 694 131 706 175 q 647 63 683 88 q 550 19 601 33 q 446 4 499 4 q 422 5 432 4 q 401 6 411 6 q 279 46 339 15 q 174 122 219 76 q 96 229 129 168 q 46 356 63 290 q 32 485 32 415 q 51 629 32 556 q 142 808 79 729 q 286 926 204 886 q 365 954 325 946 q 446 963 406 963 q 647 904 553 963 q 678 874 665 892 q 695 835 690 856 q 697 792 700 814 q 683 750 694 771 q 617 699 660 710 q 536 711 574 688 q 492 731 515 725 q 446 738 469 738 q 378 724 407 738 q 303 661 335 703 q 257 567 272 619 q 248 526 250 547 q 246 483 246 504 q 254 411 246 449 q 322 283 274 335 q 372 247 346 261 q 428 229 399 232 q 483 232 456 225 q 536 254 511 239 l 536 256 z "},"d":{"ha":744,"x_min":49,"x_max":715,"o":"m 706 579 q 715 481 715 531 q 708 396 715 438 q 689 314 701 354 q 599 157 658 226 q 460 47 539 88 l 461 47 q 367 13 417 24 q 268 1 318 1 q 119 28 186 1 q 68 68 88 39 q 49 133 49 97 l 49 826 q 68 892 49 863 q 119 932 88 921 q 269 960 192 960 q 371 947 322 960 l 369 947 q 488 898 432 932 q 589 815 544 864 q 663 706 633 767 q 706 579 692 646 m 683 574 q 642 694 671 636 q 571 797 614 751 q 477 874 531 842 q 365 922 424 907 q 269 935 317 935 q 128 908 193 935 q 88 876 103 899 q 72 826 72 854 l 72 133 q 88 83 72 106 q 128 51 103 61 q 196 32 160 38 q 268 26 232 26 q 450 69 364 26 q 581 173 525 107 q 667 322 638 239 q 692 481 692 399 q 683 574 692 529 m 660 569 q 644 331 683 449 q 563 190 617 251 q 439 92 510 128 q 268 51 358 51 q 201 57 233 51 q 136 75 168 63 q 107 98 118 82 q 96 133 96 114 l 96 826 q 107 862 96 846 q 136 885 118 878 q 269 910 199 910 q 360 899 313 910 q 465 854 415 885 q 554 781 515 824 q 622 683 594 738 q 660 569 649 629 m 532 374 q 549 458 546 414 q 543 544 551 501 q 468 694 526 631 q 406 747 440 726 q 332 778 371 767 q 301 783 317 782 q 269 785 285 785 q 215 781 242 785 l 215 181 q 268 175 239 175 q 330 183 300 175 q 386 204 360 190 q 474 273 436 229 q 532 374 513 317 m 510 382 q 456 290 492 331 q 376 226 421 250 q 268 200 326 200 q 253 200 263 200 q 239 201 244 200 l 239 758 q 256 760 249 760 q 269 761 263 761 q 326 754 299 761 q 392 724 358 744 q 450 676 426 704 q 495 613 478 649 q 519 538 513 578 q 526 481 526 503 q 522 430 526 456 q 510 381 517 404 l 510 382 m 486 389 q 498 434 493 411 q 503 481 503 457 q 496 533 503 503 q 473 600 489 568 q 432 660 457 632 q 381 703 410 686 q 319 729 351 721 l 321 729 q 269 736 293 736 l 263 736 l 263 225 l 268 225 q 365 249 321 225 q 438 306 407 269 q 486 390 469 343 l 486 389 z "},"e":{"ha":767,"x_min":51,"x_max":718,"o":"m 265 374 l 265 231 l 611 231 q 687 197 656 231 q 718 118 718 164 q 687 38 718 71 q 611 6 656 6 l 158 6 q 83 38 114 6 q 51 118 51 71 l 51 853 q 83 931 51 899 q 158 964 114 964 l 611 964 q 687 931 656 964 q 718 853 718 899 q 687 773 718 806 q 611 740 656 740 l 265 740 l 265 597 l 611 597 q 687 564 656 597 q 718 485 718 531 q 687 406 718 439 q 611 374 656 374 l 265 374 m 611 399 q 670 424 646 399 q 694 485 694 449 q 670 547 694 521 q 611 572 646 572 l 242 572 l 242 765 l 611 765 q 670 791 646 765 q 694 853 694 817 q 670 915 694 889 q 611 940 646 940 l 158 940 q 99 915 124 940 q 75 853 75 889 l 75 118 q 99 56 75 82 q 158 31 124 31 l 611 31 q 670 56 646 31 q 694 118 694 82 q 670 180 694 154 q 611 206 646 206 l 242 206 l 242 399 l 611 399 m 218 424 l 218 181 l 611 181 q 653 162 636 181 q 671 118 671 143 q 653 74 671 92 q 611 56 636 56 l 158 56 q 116 74 133 56 q 99 118 99 92 l 99 853 q 116 897 99 878 q 158 915 133 915 l 611 915 q 653 897 636 915 q 671 853 671 878 q 653 808 671 826 q 611 790 636 790 l 218 790 l 218 547 l 611 547 q 653 529 636 547 q 671 485 671 511 q 653 441 671 458 q 611 424 636 424 l 218 424 z "},"f":{"ha":732,"x_min":51,"x_max":718,"o":"m 611 593 q 687 561 656 593 q 718 482 718 529 q 687 402 718 435 q 611 369 656 369 l 265 369 l 265 114 q 234 35 265 68 q 158 3 203 3 q 83 35 114 3 q 51 114 51 68 l 51 849 q 83 928 51 896 q 158 961 114 961 l 611 961 q 687 928 656 961 q 718 849 718 896 q 687 769 718 801 q 611 736 656 736 l 265 736 l 265 593 l 611 593 m 242 569 l 242 761 l 611 761 q 669 787 644 761 q 694 849 694 813 q 669 910 694 885 q 611 936 644 936 l 158 936 q 99 910 122 936 q 75 849 75 885 l 75 114 q 99 53 75 78 q 158 28 122 28 q 217 53 192 28 q 242 114 242 78 l 242 394 l 611 394 q 669 420 644 394 q 694 482 694 446 q 669 544 694 518 q 611 569 644 569 l 242 569 m 611 544 q 652 526 635 544 q 669 482 669 508 q 652 438 669 456 q 611 419 635 419 l 218 419 l 218 114 q 200 70 218 88 q 158 53 182 53 q 116 70 133 53 q 99 114 99 88 l 99 849 q 116 893 99 875 q 158 911 133 911 l 611 911 q 652 893 635 911 q 669 849 669 875 q 652 804 669 822 q 611 786 635 786 l 218 786 l 218 544 l 611 544 z "},"g":{"ha":756,"x_min":32,"x_max":700,"o":"m 592 508 q 667 476 636 508 q 699 396 699 443 l 699 153 q 685 99 699 125 q 647 57 671 72 q 550 13 601 28 q 446 -1 499 -1 q 422 -1 432 -1 q 401 1 411 0 q 279 40 339 10 q 174 117 219 71 q 96 224 129 163 q 46 351 63 285 q 35 415 39 382 q 32 479 32 447 q 51 625 32 550 q 142 803 79 725 q 286 921 204 881 q 365 949 325 940 q 446 957 406 957 q 550 942 499 957 q 647 899 601 928 q 678 869 665 888 q 695 831 690 851 q 697 788 700 810 q 683 744 694 765 q 617 693 660 704 q 536 706 574 682 q 492 727 515 721 q 446 733 469 733 q 378 718 411 733 q 303 656 335 697 q 257 561 272 614 q 248 521 250 542 q 246 478 246 500 q 254 406 246 443 q 322 279 274 328 q 428 224 369 232 q 456 223 442 222 q 485 228 469 224 l 485 283 l 435 283 q 359 316 390 283 q 328 396 328 349 q 359 476 328 443 q 435 508 390 508 l 592 508 m 435 483 q 376 458 400 483 q 351 396 351 432 q 376 334 351 360 q 435 308 400 308 l 508 308 l 508 208 q 425 199 468 194 l 424 199 q 360 219 392 204 q 306 260 329 235 q 260 323 278 288 q 231 400 242 358 q 222 478 222 438 q 235 569 222 525 q 286 674 251 628 q 367 740 321 719 q 446 758 403 758 q 498 751 472 758 q 547 728 524 743 q 610 717 578 708 q 663 757 643 726 q 672 824 681 789 q 635 878 663 858 q 543 919 592 906 q 446 932 494 932 q 297 899 368 932 q 160 786 218 860 q 75 618 101 713 q 60 550 64 585 q 56 479 56 515 q 59 419 56 449 q 69 357 63 389 q 115 237 85 293 q 190 136 146 181 q 290 62 235 90 q 403 26 344 33 q 424 24 414 25 q 446 24 433 24 q 543 37 494 24 q 635 78 592 50 q 665 111 654 90 q 675 153 675 132 l 675 396 q 650 458 675 432 q 592 483 625 483 l 435 483 m 592 458 q 633 440 615 458 q 651 396 651 422 l 651 153 q 622 100 651 118 q 446 49 540 49 q 426 49 436 49 q 407 51 417 50 q 299 85 351 58 q 207 153 247 111 q 137 248 167 194 q 93 364 107 301 q 79 489 78 425 q 97 611 81 553 q 178 770 122 700 q 307 876 233 840 q 467 908 383 913 q 622 857 550 903 q 649 818 643 843 q 643 771 656 793 q 606 742 629 749 q 561 750 582 736 q 460 783 514 779 q 357 763 406 786 q 268 690 306 739 q 211 576 231 640 q 198 485 199 532 q 208 393 197 438 q 240 310 219 349 q 289 243 261 272 q 421 174 347 185 q 532 192 479 167 l 532 333 l 435 333 q 393 351 411 333 q 375 396 375 369 q 393 440 375 422 q 435 458 411 458 l 592 458 z "},"h":{"ha":767,"x_min":50,"x_max":717,"o":"m 610 910 q 651 892 633 910 q 669 847 669 874 l 669 114 q 651 69 669 86 q 610 51 633 51 q 567 69 585 51 q 550 114 550 86 l 550 418 l 217 418 l 217 114 q 199 69 217 86 q 157 51 181 51 q 115 69 132 51 q 97 114 97 86 l 97 847 q 115 892 97 874 q 157 910 132 910 q 199 892 181 910 q 217 847 217 874 l 217 543 l 550 543 l 550 847 q 567 892 550 874 q 610 910 585 910 m 610 935 q 550 909 574 935 q 526 847 526 883 l 526 568 l 240 568 l 240 847 q 216 909 240 883 q 157 935 192 935 q 98 909 122 935 q 74 847 74 883 l 74 114 q 98 52 74 78 q 157 26 122 26 q 216 52 192 26 q 240 114 240 78 l 240 393 l 526 393 l 526 114 q 550 52 526 78 q 610 26 574 26 q 668 52 643 26 q 693 114 693 78 l 693 847 q 668 909 693 883 q 610 935 643 935 m 610 960 q 685 927 654 960 q 717 847 717 894 l 717 114 q 685 34 717 67 q 610 1 654 1 q 534 34 565 1 q 503 114 503 67 l 503 368 l 264 368 l 264 114 q 233 34 264 67 q 157 1 201 1 q 81 34 113 1 q 50 114 50 67 l 50 847 q 81 927 50 894 q 157 960 113 960 q 233 927 201 960 q 264 847 264 894 l 264 593 l 503 593 l 503 847 q 534 927 503 894 q 610 960 565 960 z "},"i":{"ha":763,"x_min":47,"x_max":714,"o":"m 607 228 q 683 195 651 228 q 714 115 714 163 q 683 37 714 69 q 607 4 651 4 l 154 4 q 78 37 110 4 q 47 115 47 69 q 78 195 47 163 q 154 228 110 228 l 274 228 l 274 738 l 154 738 q 78 770 110 738 q 47 850 47 803 q 78 929 47 896 q 154 963 110 963 l 607 963 q 683 929 651 963 q 714 850 714 896 q 683 770 714 803 q 607 738 651 738 l 488 738 l 488 228 l 607 228 m 464 203 l 464 763 l 607 763 q 666 788 642 763 q 690 850 690 814 q 666 912 690 886 q 607 938 642 938 l 154 938 q 95 912 119 938 q 71 850 71 886 q 95 788 71 814 q 154 763 119 763 l 297 763 l 297 203 l 154 203 q 95 177 119 203 q 71 115 71 151 q 95 54 71 79 q 154 29 119 29 l 607 29 q 666 54 642 29 q 690 115 690 79 q 666 177 690 151 q 607 203 642 203 l 464 203 m 607 178 q 649 160 632 178 q 667 115 667 142 q 649 72 667 89 q 607 54 632 54 l 154 54 q 112 72 129 54 q 94 115 94 89 q 112 160 94 142 q 154 178 129 178 l 321 178 l 321 788 l 154 788 q 112 806 129 788 q 94 850 94 824 q 112 894 94 875 q 154 913 129 913 l 607 913 q 649 894 632 913 q 667 850 667 875 q 649 806 667 824 q 607 788 632 788 l 440 788 l 440 178 l 607 178 z "},"j":{"ha":736,"x_min":43,"x_max":689,"o":"m 372 1 q 226 31 297 1 q 149 73 185 47 q 90 129 114 99 q 73 151 79 142 q 60 172 67 161 q 46 215 49 193 q 49 257 43 236 q 67 296 54 278 q 99 326 79 314 q 178 333 135 347 q 244 283 221 319 q 251 274 246 279 q 303 238 272 250 q 383 225 339 222 q 422 232 403 226 q 457 246 442 238 q 467 251 460 247 q 476 257 474 256 l 476 736 l 213 736 q 138 768 168 736 q 107 847 107 800 q 138 926 107 893 q 213 960 168 960 l 582 960 q 658 926 626 960 q 689 847 689 893 l 689 214 q 669 150 689 178 q 557 47 631 89 q 479 15 521 26 q 393 1 438 4 l 372 1 m 372 26 l 392 26 q 546 68 478 31 q 604 110 578 86 q 650 163 631 135 q 665 214 665 185 l 665 847 q 642 909 665 883 q 582 935 618 935 l 213 935 q 155 909 179 935 q 131 847 131 883 q 155 786 131 811 q 213 761 179 761 l 500 761 l 500 246 q 486 235 493 239 q 468 224 479 231 q 385 200 432 203 q 339 202 361 197 q 294 215 317 207 q 261 234 278 222 q 235 257 244 246 l 224 272 q 175 314 208 304 q 111 304 142 324 q 72 251 81 285 q 82 186 64 218 q 94 165 88 176 q 108 146 101 154 q 165 92 132 118 q 235 53 199 67 q 372 26 300 26 m 372 51 q 243 76 303 51 q 178 112 207 90 q 126 161 149 133 q 113 180 119 171 q 101 197 107 189 q 95 245 89 221 q 122 282 101 269 q 168 290 144 296 q 203 260 192 283 q 209 251 206 256 q 217 242 213 246 q 247 213 229 226 q 286 192 265 200 q 386 175 332 172 q 479 201 435 176 q 503 217 493 208 q 524 235 514 225 l 524 785 l 213 785 q 172 803 189 785 q 154 847 154 821 q 172 891 154 872 q 213 910 189 910 l 582 910 q 624 891 607 910 q 642 847 642 872 l 642 214 q 631 178 642 193 q 588 130 613 151 q 535 90 564 108 q 392 51 472 56 l 372 51 z "},"k":{"ha":765,"x_min":50,"x_max":718,"o":"m 675 210 q 708 167 697 192 q 718 119 718 143 q 696 51 718 81 l 696 53 q 656 19 679 29 q 610 8 633 8 q 576 14 593 8 q 544 31 558 19 l 264 260 l 264 121 q 233 41 264 74 q 157 8 201 8 q 81 41 113 8 q 50 121 50 74 l 50 856 q 81 934 50 901 q 157 967 113 967 q 233 934 201 967 q 264 856 264 901 l 264 714 l 544 943 q 610 967 572 967 q 694 925 660 967 q 718 856 718 893 q 708 806 718 831 q 675 765 697 782 l 676 767 l 336 488 l 676 208 l 675 210 m 297 488 q 480 638 392 567 q 661 785 568 708 q 685 817 676 799 q 694 856 694 836 q 690 883 694 868 q 675 908 685 897 q 610 942 649 942 q 560 924 579 942 l 240 661 l 240 856 q 217 917 240 892 q 157 942 193 942 q 99 917 124 942 q 74 856 74 892 l 74 121 q 99 59 74 85 q 157 33 124 33 q 217 59 193 33 q 240 121 240 85 l 240 314 l 560 51 q 610 33 582 33 q 676 67 650 33 q 694 119 694 92 q 685 158 694 139 q 661 189 676 176 l 297 488 m 646 169 q 669 128 665 154 q 657 82 672 101 q 636 64 649 69 q 610 58 624 58 q 574 71 590 58 l 217 364 l 217 121 q 199 76 217 94 q 157 58 182 58 q 115 76 133 58 q 97 121 97 94 l 97 856 q 115 899 97 881 q 157 917 133 917 q 199 899 182 917 q 217 856 217 881 l 217 611 l 574 904 q 617 916 593 919 q 657 893 642 913 q 669 847 672 874 q 646 806 665 821 l 260 488 l 646 169 z "},"l":{"ha":725,"x_min":51,"x_max":718,"o":"m 158 3 q 83 35 114 3 q 51 114 51 68 l 51 849 q 83 928 51 896 q 158 961 114 961 q 234 928 203 961 q 265 849 265 896 l 265 226 l 611 226 q 687 194 656 226 q 718 114 718 161 q 687 35 718 68 q 611 3 656 3 l 158 3 m 611 28 q 670 53 646 28 q 694 114 694 78 q 670 176 694 150 q 611 201 646 201 l 242 201 l 242 849 q 218 910 242 885 q 158 936 194 936 q 99 910 124 936 q 75 849 75 885 l 75 114 q 99 53 75 78 q 158 28 124 28 l 611 28 m 611 53 l 158 53 q 116 70 133 53 q 99 114 99 88 l 99 849 q 116 893 99 875 q 158 911 133 911 q 201 893 183 911 q 218 849 218 875 l 218 176 l 611 176 q 653 159 636 176 q 671 114 671 142 q 653 70 671 88 q 611 53 636 53 z "},"m":{"ha":935,"x_min":50,"x_max":883,"o":"m 772 1 q 730 10 750 1 q 695 35 710 19 q 672 70 681 50 q 663 114 663 90 l 663 296 l 568 69 l 569 72 q 528 21 557 40 q 467 1 499 1 q 406 20 433 1 q 364 69 378 39 l 269 294 l 269 114 q 238 34 269 67 q 160 1 206 1 q 117 10 138 1 q 83 35 97 19 q 59 70 68 50 q 50 114 50 90 l 50 847 q 75 918 50 888 q 138 957 100 949 q 212 947 178 965 q 261 893 246 929 l 467 400 l 671 893 q 723 947 689 929 q 794 957 757 964 q 857 916 831 946 q 883 847 883 886 l 883 114 q 851 34 883 67 q 772 1 818 1 m 772 26 q 833 52 808 26 q 858 114 858 78 l 858 847 q 840 903 858 879 q 790 933 822 926 q 733 925 760 940 q 694 882 707 910 l 467 335 l 239 882 q 200 925 226 910 q 143 933 174 940 q 93 903 113 926 q 74 847 74 879 l 74 114 q 99 52 74 78 q 160 26 125 26 q 221 52 196 26 q 246 114 246 78 l 246 418 l 388 79 q 419 41 399 56 q 467 26 440 26 q 514 41 492 26 q 546 81 536 56 l 544 79 l 686 418 l 686 114 q 712 52 686 78 q 772 26 738 26 m 772 51 q 729 69 747 51 q 711 114 711 86 l 711 542 l 522 90 q 500 62 515 72 q 467 51 485 51 q 432 62 447 51 q 410 90 417 72 l 221 542 l 221 114 q 203 69 221 86 q 160 51 186 51 q 117 69 135 51 q 99 114 99 86 l 99 847 q 113 888 99 871 q 147 908 126 904 q 189 903 169 914 q 217 872 208 892 l 467 272 l 717 872 q 744 903 725 892 q 785 908 764 914 q 820 888 807 904 q 833 847 833 871 l 833 114 q 816 69 833 86 q 772 51 799 51 z "},"n":{"ha":768,"x_min":50,"x_max":717,"o":"m 610 3 q 558 16 582 3 q 519 54 533 29 l 264 467 l 264 114 q 233 35 264 68 q 157 3 201 3 q 81 35 113 3 q 50 114 50 68 l 50 849 q 72 915 50 885 q 128 956 93 944 q 194 954 161 967 q 247 908 228 942 l 247 910 l 503 497 l 503 849 q 534 928 503 896 q 610 961 565 961 q 685 928 654 961 q 717 849 717 896 l 717 114 q 694 47 717 78 q 636 6 672 17 q 624 3 629 4 q 610 3 618 3 m 610 28 q 629 31 615 28 q 676 63 658 39 q 693 114 693 86 l 693 849 q 669 910 693 885 q 610 936 644 936 q 550 910 574 936 q 526 849 526 885 l 526 413 l 228 896 q 187 929 213 919 q 135 932 161 939 q 90 900 107 924 q 74 849 74 876 l 74 114 q 98 53 74 78 q 157 28 122 28 q 216 53 192 28 q 240 114 240 78 l 240 551 l 539 67 l 539 68 q 610 28 563 28 m 610 53 q 560 81 575 53 l 217 638 l 217 114 q 199 70 217 88 q 157 53 182 53 q 115 70 132 53 q 97 114 97 88 l 97 849 q 109 886 97 869 q 140 908 121 903 q 178 908 160 915 q 207 882 196 900 l 550 326 l 550 849 q 567 893 550 875 q 610 911 585 911 q 652 893 635 911 q 669 849 669 875 l 669 114 q 658 78 669 94 q 626 54 646 61 q 617 53 621 54 q 610 53 614 53 z "},"o":{"ha":1038,"x_min":32,"x_max":1006,"o":"m 990 735 q 1001 672 997 707 q 1004 608 1006 638 q 985 505 1001 560 q 943 396 969 450 q 785 175 882 275 q 569 15 688 75 l 572 17 q 519 3 550 3 q 493 6 506 3 q 468 15 481 8 q 357 87 411 46 q 254 177 303 128 q 165 282 206 226 q 94 396 124 338 q 52 505 68 450 q 33 608 36 560 q 35 672 32 639 q 46 733 39 706 q 108 854 65 803 q 173 910 136 886 q 247 947 210 933 q 292 958 271 954 q 336 961 314 961 q 417 950 372 961 q 470 928 444 942 q 518 897 496 914 q 567 928 540 914 q 621 950 593 942 q 701 961 663 961 q 745 958 724 961 q 790 947 767 954 q 864 910 828 933 q 928 854 900 886 q 990 735 971 803 m 967 728 q 943 788 957 760 q 910 839 929 815 q 852 889 886 867 q 782 924 818 911 q 701 936 742 936 q 628 926 661 936 q 519 865 565 907 q 469 901 496 888 q 410 926 442 915 q 336 936 376 936 q 256 924 294 936 q 187 889 221 911 q 128 839 153 867 q 94 787 108 815 q 71 726 81 758 q 60 669 64 700 q 58 611 57 639 q 75 511 61 563 q 117 407 89 460 q 269 192 176 286 q 479 38 361 97 l 478 39 q 499 30 489 32 q 519 28 510 28 q 540 30 529 28 q 560 39 550 32 l 558 38 q 769 192 676 97 q 921 407 861 286 q 962 512 947 461 q 979 611 976 563 q 977 670 981 639 q 967 728 974 701 m 943 721 q 954 613 958 668 q 899 418 950 521 q 750 210 840 301 q 547 60 660 118 q 519 53 535 53 q 490 60 503 53 q 288 210 378 118 q 139 418 197 301 q 99 519 113 471 q 83 613 86 567 q 84 668 81 640 q 94 721 88 696 q 147 822 111 781 q 263 900 196 879 q 336 911 300 911 q 403 903 369 911 q 519 829 471 882 q 636 903 565 882 q 701 911 667 911 q 775 900 738 911 q 892 822 842 879 q 943 721 925 782 m 831 618 q 823 687 832 654 q 794 743 814 719 q 768 766 783 757 q 738 782 753 775 q 701 786 721 786 q 669 782 686 786 q 611 746 635 771 q 581 681 586 715 q 560 644 576 658 q 519 629 543 629 q 478 644 496 629 q 457 681 461 658 q 447 715 454 699 q 428 746 439 731 q 368 782 401 772 q 336 786 351 786 q 300 782 318 786 q 269 766 285 775 q 243 743 254 757 q 215 687 224 719 q 208 618 206 654 q 251 474 210 554 q 364 308 296 382 q 519 186 432 235 q 674 308 606 235 q 786 474 742 382 q 831 618 826 551 m 806 619 q 793 556 803 590 q 764 485 783 522 q 660 331 722 400 q 519 214 597 263 q 378 331 442 263 q 274 485 315 400 q 244 556 254 522 q 233 619 235 590 q 263 728 229 686 l 261 726 q 282 745 269 738 q 308 758 294 753 l 307 758 q 322 761 315 761 q 336 761 329 761 q 349 761 343 761 q 361 758 354 761 q 408 728 388 750 l 407 731 q 423 705 417 718 q 432 676 429 692 q 463 624 439 644 q 519 604 488 604 q 576 624 551 604 q 606 676 600 644 q 631 731 611 704 l 629 728 q 676 758 649 749 q 689 761 683 761 q 701 761 694 761 q 716 761 708 761 q 731 758 724 761 l 729 758 q 756 745 743 753 q 776 726 768 738 q 806 619 808 686 m 781 621 q 775 672 782 649 q 757 711 768 694 q 740 724 750 718 q 721 735 731 731 q 713 736 718 736 q 701 736 707 736 q 692 736 697 736 q 685 735 688 736 q 666 727 675 732 q 649 714 657 722 q 637 694 642 706 q 629 672 632 683 q 591 606 622 632 q 519 579 560 579 q 446 606 478 579 q 407 672 414 632 q 392 713 403 694 q 354 733 376 726 q 343 736 347 736 q 336 736 339 736 q 324 736 329 736 q 314 735 318 736 l 317 735 q 297 725 306 731 q 281 711 288 719 l 282 713 q 258 621 256 678 q 296 494 260 568 q 391 354 332 418 q 521 244 450 290 q 742 494 665 338 q 781 621 776 567 z "},"p":{"ha":738,"x_min":49,"x_max":715,"o":"m 710 608 q 714 573 713 589 q 715 540 715 557 q 708 459 715 500 q 685 381 700 418 q 629 283 663 328 q 550 201 596 238 q 344 119 460 132 q 304 118 324 118 q 263 121 285 118 l 263 115 q 231 35 263 68 q 156 3 200 3 q 80 35 111 3 q 49 115 49 68 l 49 807 q 63 864 49 839 q 103 904 76 889 l 103 903 q 203 947 150 932 q 308 961 256 961 q 481 922 399 961 q 563 867 524 900 q 632 792 601 833 q 683 703 663 750 q 711 607 703 657 l 710 608 m 688 603 q 615 778 672 699 q 471 899 557 858 q 392 927 433 918 q 308 936 350 936 q 208 922 260 936 q 114 882 157 908 q 83 850 94 869 q 72 807 72 831 l 72 115 q 97 53 72 79 q 156 28 121 28 q 215 53 192 28 q 239 115 239 79 l 239 150 q 291 142 265 143 q 343 144 317 142 q 536 221 449 156 q 663 389 622 286 q 684 464 676 425 q 692 540 692 503 q 688 604 692 575 l 688 603 m 663 599 q 640 399 679 497 q 521 240 601 303 q 340 169 442 181 q 277 169 308 167 q 215 182 246 172 l 215 115 q 198 71 215 89 q 156 53 181 53 q 113 71 131 53 q 96 115 96 89 l 96 807 q 126 861 96 843 q 291 912 201 907 q 461 876 381 917 q 596 764 542 839 q 663 599 650 689 m 531 447 q 546 579 557 513 q 500 689 536 639 q 411 765 464 739 q 315 787 367 786 q 215 768 263 788 l 215 313 q 329 294 272 288 q 451 342 397 301 q 531 447 504 383 m 510 457 q 438 361 486 399 q 386 333 414 343 q 328 319 358 322 q 239 329 285 314 l 239 751 q 274 760 258 758 q 310 763 290 763 q 401 742 360 763 l 400 742 q 481 673 447 718 q 522 575 514 628 q 524 558 524 565 q 525 543 525 550 q 522 499 525 521 q 510 457 518 476 m 488 467 q 501 543 501 506 q 501 557 501 549 q 499 574 500 565 l 500 571 q 462 658 492 618 q 390 719 432 699 q 310 738 351 738 q 263 732 285 738 l 263 349 q 294 344 278 346 q 325 344 310 342 q 424 382 379 349 l 422 382 q 460 419 444 397 q 488 467 476 442 z "},"q":{"ha":1046,"x_min":31,"x_max":1007,"o":"m 993 733 q 1003 672 1000 706 q 1006 608 1007 639 q 944 396 999 506 q 896 313 924 356 q 840 235 868 271 l 886 188 q 918 110 918 153 q 886 31 918 65 q 806 -1 851 -1 q 728 32 761 -1 l 679 81 q 626 47 654 64 q 572 17 599 29 q 548 6 561 10 q 519 3 535 3 q 493 6 507 3 q 467 17 479 8 l 469 15 q 252 175 347 78 q 96 396 157 272 q 53 506 68 454 q 35 608 38 558 q 47 735 31 674 q 73 799 57 767 q 108 854 89 831 q 173 910 136 886 q 249 947 210 935 q 338 961 290 961 q 417 950 372 961 q 472 928 444 942 q 521 897 500 915 q 621 950 565 933 q 703 961 665 961 q 746 958 724 961 q 790 947 768 954 q 865 910 828 935 q 929 854 901 886 q 992 735 972 803 l 993 733 m 968 728 q 911 839 950 790 q 852 890 886 867 q 783 924 818 913 q 703 936 742 936 q 629 926 663 936 q 569 902 596 915 q 519 865 543 889 q 468 902 496 888 q 411 926 440 917 q 338 936 378 936 q 256 924 297 936 q 187 890 221 913 q 129 839 153 867 q 71 728 90 792 q 61 670 64 701 q 58 611 58 639 q 76 511 61 563 q 118 407 90 460 q 269 192 176 286 q 481 38 363 97 l 479 39 q 501 30 490 32 q 519 28 511 28 q 560 39 543 28 l 558 38 q 622 72 590 53 q 681 114 653 92 l 744 50 q 806 24 771 24 q 868 49 840 24 q 893 110 893 75 q 868 171 893 143 l 807 233 q 869 315 840 272 q 922 407 897 358 q 964 511 950 460 q 981 611 978 563 q 978 669 982 639 q 968 728 975 700 m 944 721 q 955 668 951 696 q 956 613 958 640 q 940 519 953 567 q 899 418 926 471 q 774 233 847 313 l 850 154 q 868 110 868 135 q 850 67 868 85 q 806 49 832 49 q 763 67 781 49 l 682 147 q 617 100 651 122 q 547 60 583 78 q 519 53 536 53 q 492 60 501 53 q 288 210 378 118 q 140 418 199 301 q 83 613 90 519 q 85 668 82 640 q 96 721 88 696 q 147 824 113 782 q 264 900 197 879 q 300 909 282 907 q 338 911 318 911 q 403 903 371 911 q 519 829 471 882 q 636 903 568 882 q 703 911 667 911 q 740 909 722 911 q 776 900 758 907 q 892 824 846 879 q 944 721 928 779 m 831 619 q 796 743 835 696 q 739 782 772 771 q 703 788 724 788 q 669 782 685 788 q 611 746 638 774 q 582 681 586 717 q 560 644 578 658 q 519 629 543 629 q 478 644 496 629 q 458 681 461 658 q 428 746 451 718 q 369 782 403 774 q 338 788 354 788 q 301 782 317 788 q 243 743 267 771 q 208 619 204 696 q 253 474 213 551 q 365 308 297 382 q 519 186 433 235 q 583 228 553 206 q 642 276 614 250 q 643 279 643 278 q 788 474 732 360 q 831 619 826 554 m 806 619 q 794 556 803 590 q 765 485 785 522 q 703 385 738 432 q 626 297 669 338 q 574 251 600 272 q 519 214 547 229 q 378 331 442 263 q 275 485 315 400 q 246 556 256 522 q 233 619 236 590 q 263 728 229 686 q 310 758 281 747 l 308 758 q 338 763 321 763 q 363 758 347 763 q 386 747 374 754 q 410 728 399 739 l 408 731 q 433 678 426 708 q 463 625 439 646 q 519 604 488 604 q 576 625 551 604 q 607 678 600 646 q 631 731 611 707 l 631 728 q 652 747 640 739 q 676 758 664 754 q 703 763 689 763 q 731 758 718 763 l 729 758 q 776 728 758 747 q 806 619 810 688 m 781 621 q 776 672 782 649 q 757 711 769 696 q 742 724 751 718 q 722 735 732 731 q 703 738 711 738 q 685 733 697 738 q 650 715 661 726 q 638 694 643 706 q 631 672 632 683 q 592 606 624 632 q 519 579 560 579 q 447 606 478 579 q 408 672 415 632 q 390 713 404 697 l 392 713 q 375 726 385 721 q 354 735 365 732 q 338 738 343 738 q 317 735 328 738 q 282 713 294 725 q 263 673 269 697 q 258 621 257 649 q 297 494 263 567 q 392 353 333 418 q 521 243 450 289 q 610 315 567 272 q 683 398 650 353 q 742 496 715 443 q 781 621 776 568 z "},"r":{"ha":753,"x_min":49,"x_max":715,"o":"m 693 178 l 693 179 q 715 110 715 150 q 705 61 715 85 q 672 21 694 38 l 674 21 q 642 4 658 10 q 608 -1 625 -1 q 561 10 585 -1 q 522 43 538 21 l 450 140 q 397 125 424 131 q 343 115 371 119 q 303 114 322 114 q 263 117 283 114 l 263 111 q 231 31 263 64 q 156 -1 200 -1 q 80 31 111 -1 q 49 111 49 64 l 49 803 q 63 857 49 831 q 100 899 76 883 q 202 942 149 928 q 310 957 256 957 q 481 917 397 957 q 562 863 524 896 q 630 788 600 829 q 681 700 660 747 q 710 604 701 653 q 714 568 713 585 q 715 536 715 551 q 707 455 715 497 q 685 376 699 413 q 658 322 674 350 q 625 271 642 294 l 693 178 m 593 272 q 661 385 636 321 q 692 536 692 461 q 690 569 692 553 q 686 600 689 585 l 686 599 q 660 690 679 646 q 613 774 642 735 q 549 843 585 813 q 469 894 513 874 l 471 894 q 310 932 393 932 q 113 878 204 932 q 83 845 93 865 q 72 803 72 825 l 72 111 q 97 49 72 75 q 156 24 121 24 q 215 49 190 24 q 239 111 239 75 l 239 146 q 291 138 267 139 q 343 140 315 138 q 401 152 372 144 q 458 172 429 160 l 542 58 q 572 33 554 42 q 608 24 590 24 q 658 42 633 24 q 683 72 674 54 q 692 110 692 90 q 674 163 692 140 l 593 272 m 654 149 q 666 102 669 128 q 643 61 663 76 q 608 49 628 49 q 560 74 578 49 l 465 201 q 340 165 406 174 q 215 176 278 160 l 215 111 q 197 67 215 85 q 156 49 179 49 q 113 67 131 49 q 96 111 96 85 l 96 803 q 125 857 96 836 q 291 907 201 901 q 460 872 381 913 q 594 759 540 833 q 663 594 647 685 q 640 394 679 493 q 563 274 613 325 l 654 149 m 329 290 q 393 306 361 293 q 451 338 425 318 q 497 384 476 357 q 531 443 518 411 q 546 508 542 475 q 544 575 550 542 q 499 683 536 633 q 410 761 463 733 q 313 783 365 782 q 215 764 261 783 l 215 308 q 329 290 272 283 m 326 315 q 239 325 286 310 l 239 749 q 272 757 256 756 q 308 758 289 758 q 401 738 357 758 l 400 738 q 480 669 447 714 q 521 569 513 624 q 525 536 525 550 q 520 494 525 515 q 508 451 515 472 l 510 453 q 479 400 499 425 q 436 357 460 375 q 326 315 388 319 m 326 340 q 424 378 379 344 q 459 415 443 393 q 486 463 475 438 l 486 461 q 497 498 493 479 q 501 536 501 517 q 497 567 501 547 q 461 655 490 614 q 390 715 432 696 l 392 714 q 308 733 350 733 q 285 732 297 733 q 263 728 274 731 l 263 344 q 294 340 278 342 q 325 340 310 338 l 326 340 z "},"s":{"ha":708,"x_min":40,"x_max":671,"o":"m 618 446 q 658 363 646 408 q 668 271 671 318 q 646 185 664 228 q 599 108 628 143 q 460 18 540 46 q 413 8 438 11 q 363 4 389 4 q 333 6 347 4 q 301 11 318 7 l 303 11 q 164 66 228 24 q 63 171 100 108 q 49 213 51 190 q 50 256 46 235 q 65 296 54 278 q 94 326 76 314 q 176 342 133 351 q 242 292 218 332 q 281 252 257 268 q 336 229 306 236 q 369 228 351 228 q 401 235 386 229 l 400 233 q 443 260 429 242 q 456 288 454 272 q 454 300 457 294 q 449 311 451 306 q 406 344 438 328 q 371 360 389 354 q 333 374 353 367 l 321 379 l 322 379 q 266 399 294 389 q 207 426 238 410 l 207 425 q 90 528 129 468 l 90 526 q 52 609 64 564 q 43 700 40 654 q 67 785 49 744 q 113 861 85 826 q 249 947 169 922 q 300 959 275 956 q 350 963 325 963 q 380 962 367 963 q 406 960 393 961 q 544 906 481 947 q 647 801 607 864 q 662 769 658 785 q 665 739 665 754 q 653 688 665 713 q 618 646 640 663 q 588 631 603 635 q 560 626 572 626 q 510 640 533 626 q 471 676 486 653 l 472 676 q 374 736 439 725 q 341 738 357 739 q 310 732 325 736 q 268 707 282 725 q 260 694 264 701 q 256 681 257 688 q 257 668 254 674 q 263 657 260 663 l 263 658 q 303 625 275 639 q 340 608 319 615 q 381 593 361 600 l 404 586 q 445 570 424 578 q 500 546 467 563 q 618 446 579 501 m 599 432 q 489 524 564 483 q 442 545 461 538 q 403 560 422 553 l 375 568 q 368 571 371 568 q 330 585 349 578 q 293 603 311 592 q 243 643 257 624 q 234 663 238 651 q 232 683 231 674 q 251 724 235 704 q 303 757 274 749 q 378 761 336 767 q 442 736 411 756 q 490 690 472 717 q 520 662 501 672 q 560 651 539 651 q 606 665 583 651 q 642 739 642 693 q 629 788 642 763 q 533 885 592 846 q 403 935 474 924 q 378 937 390 936 q 350 938 365 938 q 303 935 326 938 q 256 924 279 932 q 129 843 182 900 q 88 775 103 813 q 67 697 72 738 q 75 617 64 657 q 110 540 86 576 q 218 447 146 488 q 274 422 246 432 q 329 403 301 413 l 342 397 q 378 384 361 390 q 415 367 396 378 q 467 326 454 347 q 479 285 481 307 q 460 243 476 263 q 407 210 442 221 l 408 210 q 333 206 375 201 q 268 232 297 213 q 222 279 239 251 q 170 317 203 310 q 107 306 138 325 q 72 251 79 286 q 82 185 64 215 q 178 86 118 126 q 307 35 238 46 l 306 35 q 363 29 329 29 q 408 33 386 29 q 453 43 431 36 q 524 77 489 56 q 583 125 558 99 q 624 194 607 156 q 644 272 642 233 l 644 274 q 635 355 647 314 q 599 432 624 396 m 581 417 q 613 348 603 385 q 621 275 624 311 q 565 143 614 199 q 512 97 542 115 q 447 67 482 78 q 406 58 426 61 q 363 54 385 54 q 310 60 333 54 q 190 108 244 71 q 103 199 135 144 q 94 245 89 221 q 121 285 100 269 q 165 293 142 299 q 201 265 188 288 q 255 211 221 233 q 329 181 289 189 q 414 186 371 175 q 478 226 454 199 q 503 283 500 251 q 486 342 507 313 q 426 389 468 368 q 384 408 407 400 q 338 425 361 417 l 336 426 q 283 444 310 435 q 229 469 256 454 q 129 556 164 504 q 97 624 107 588 q 90 696 88 660 q 109 766 94 732 q 147 828 124 800 q 263 900 193 879 q 399 910 331 919 q 519 863 464 899 q 608 774 574 826 q 617 726 622 751 q 592 686 613 701 q 548 677 572 672 q 511 704 524 682 q 456 758 490 736 q 381 786 421 779 q 297 781 339 794 q 261 765 278 775 q 233 742 244 754 q 216 715 222 729 q 208 685 210 700 q 224 628 207 656 q 282 581 244 600 q 326 560 303 569 q 372 543 349 551 l 374 543 q 426 524 400 533 q 481 501 453 514 q 581 417 543 467 z "},"t":{"ha":711,"x_min":22,"x_max":689,"o":"m 582 960 q 658 926 626 960 q 689 847 689 893 q 658 768 689 800 q 582 736 626 736 l 463 736 l 463 114 q 431 34 463 67 q 356 1 400 1 q 280 34 311 1 q 249 114 249 67 l 249 736 l 129 736 q 53 768 85 736 q 22 847 22 800 q 53 926 22 893 q 129 960 85 960 l 582 960 m 129 935 q 70 909 94 935 q 46 847 46 883 q 70 786 46 811 q 129 761 94 761 l 272 761 l 272 114 q 297 52 272 78 q 356 26 321 26 q 415 52 390 26 q 439 114 439 78 l 439 761 l 582 761 q 641 786 617 761 q 665 847 665 811 q 641 909 665 883 q 582 935 617 935 l 129 935 m 582 910 q 624 891 606 910 q 642 847 642 872 q 624 803 642 821 q 582 785 606 785 l 415 785 l 415 114 q 397 69 415 86 q 356 51 379 51 q 313 69 331 51 q 296 114 296 86 l 296 785 l 129 785 q 88 803 104 785 q 71 847 71 821 q 88 891 71 872 q 129 910 104 910 l 582 910 z "},"u":{"ha":756,"x_min":44,"x_max":711,"o":"m 378 0 q 267 18 321 0 q 168 72 213 36 q 90 160 121 108 q 46 269 58 211 q 45 275 46 271 q 44 282 44 279 l 44 846 q 53 889 44 868 q 77 925 63 910 q 111 949 92 940 q 153 958 131 958 q 228 925 197 958 q 260 846 260 892 l 260 304 q 276 276 265 293 q 296 251 286 260 q 335 231 314 239 q 378 224 357 224 q 422 231 400 224 q 461 251 443 239 q 483 276 472 263 q 497 304 493 289 l 497 846 q 528 925 497 892 q 604 958 560 958 q 680 925 649 958 q 711 846 711 892 l 711 289 q 711 276 711 282 q 710 263 711 269 l 710 265 q 667 158 699 207 q 589 72 636 108 q 490 18 544 36 q 378 0 436 0 m 378 25 q 482 42 431 25 q 575 92 533 60 q 646 172 617 126 q 686 269 675 218 q 688 280 688 276 q 688 289 688 283 l 688 846 q 664 908 688 882 q 604 933 640 933 q 546 908 571 933 q 521 846 521 882 l 521 297 q 503 263 515 279 q 475 232 490 246 q 378 199 433 199 q 328 208 354 199 q 282 232 301 217 q 255 262 267 243 q 236 297 243 281 l 236 846 q 212 908 236 882 q 153 933 188 933 q 94 908 118 933 q 69 846 69 882 l 69 274 q 111 173 82 219 q 182 92 140 126 q 274 42 224 58 q 378 25 325 25 m 378 50 q 283 65 329 50 q 196 113 236 81 q 131 185 157 143 q 94 275 106 226 q 94 282 94 279 q 93 289 93 285 l 93 846 q 110 890 93 872 q 153 908 128 908 q 194 890 178 908 q 211 846 211 872 l 211 296 q 268 211 224 246 q 378 174 317 174 q 489 211 443 174 q 544 296 531 244 l 544 846 q 563 890 544 872 q 604 908 581 908 q 647 890 629 908 q 664 846 664 872 l 664 289 q 663 275 664 281 q 626 185 653 226 q 561 113 600 143 q 475 65 522 81 q 378 50 428 50 z "},"v":{"ha":767,"x_min":28,"x_max":738,"o":"m 382 0 q 318 21 346 0 q 279 76 290 42 l 40 811 q 47 897 28 856 q 108 954 67 939 q 190 949 150 969 q 244 883 229 928 l 381 463 l 519 883 q 541 922 526 906 q 574 949 556 939 q 615 960 593 958 q 657 954 636 961 q 718 897 699 939 q 724 810 738 854 l 485 76 q 445 21 474 42 q 382 0 417 0 m 382 25 q 431 41 410 25 q 461 83 453 57 l 701 819 q 697 886 713 854 q 650 929 682 918 q 585 926 617 942 q 542 875 553 910 q 461 629 501 749 q 381 383 421 510 l 222 875 q 179 926 210 910 q 115 929 149 942 q 67 887 83 918 q 63 819 51 856 l 301 83 q 332 41 310 57 q 382 25 354 25 m 382 50 q 347 61 363 50 q 325 92 332 72 l 85 826 q 89 874 78 851 q 124 906 100 897 q 169 903 147 915 q 199 868 192 892 l 382 306 l 564 868 q 594 903 572 892 q 640 906 617 915 q 675 874 664 897 q 678 826 686 851 l 439 92 q 417 61 432 72 q 382 50 401 50 z "},"w":{"ha":1060,"x_min":42,"x_max":1024,"o":"m 717 4 q 649 28 679 4 q 608 88 618 51 l 531 392 q 492 239 511 314 q 453 88 472 164 q 413 28 443 51 q 343 4 382 4 q 275 28 306 4 q 235 88 244 51 l 47 824 q 46 867 42 844 q 61 908 50 889 q 90 940 72 926 q 131 958 107 953 l 129 958 q 174 961 151 964 q 215 947 196 958 q 247 918 233 936 q 265 878 260 900 l 343 574 l 422 878 q 463 938 432 914 q 531 963 494 963 q 599 938 568 963 q 640 878 629 914 l 717 574 l 796 878 q 848 947 808 922 q 933 958 888 971 l 932 958 q 1001 907 978 947 q 1014 824 1024 867 l 826 88 q 786 28 817 51 q 717 4 756 4 m 717 29 q 771 48 747 29 q 801 94 794 67 l 989 829 q 979 896 997 864 q 925 935 961 928 l 926 933 q 860 925 890 943 q 821 871 829 907 l 717 471 l 615 871 q 584 919 608 900 q 531 938 560 938 q 478 919 501 938 q 447 871 454 900 l 343 471 l 240 871 q 201 925 231 907 q 135 933 171 943 l 136 935 q 82 896 100 928 q 72 829 64 864 l 260 94 q 290 48 267 67 q 343 29 314 29 q 397 48 374 29 q 428 94 421 67 l 531 497 l 633 94 q 664 48 640 67 q 717 29 688 29 m 717 54 q 681 67 697 54 q 657 101 664 81 l 531 597 l 404 101 q 382 67 399 81 q 343 54 365 54 q 306 67 322 54 q 283 101 289 81 l 96 835 q 102 882 89 860 q 142 910 115 904 q 188 903 167 917 q 217 865 210 890 l 343 368 l 471 865 q 493 899 476 886 q 531 913 510 913 q 568 899 551 913 q 592 865 585 886 l 717 368 l 844 865 q 873 903 851 890 q 921 910 894 917 q 959 882 946 904 q 965 835 972 860 l 778 101 q 756 67 772 81 q 717 54 739 54 z "},"x":{"ha":769,"x_min":50,"x_max":718,"o":"m 701 179 q 715 138 713 160 q 714 94 718 115 q 698 54 710 72 q 668 24 686 36 q 642 10 656 15 q 611 6 628 6 q 560 19 585 6 q 521 57 536 32 l 385 279 l 249 57 l 249 58 q 210 19 235 33 q 158 6 186 6 q 129 10 143 6 q 101 22 115 15 q 71 53 82 35 q 56 94 60 72 q 54 138 51 115 q 68 179 57 160 l 257 485 q 163 639 210 564 q 68 792 115 714 q 53 833 57 811 q 54 877 50 856 q 70 917 58 899 q 100 947 82 935 q 139 963 118 960 q 181 963 160 967 q 219 946 201 958 q 249 914 236 933 l 385 692 l 521 914 q 551 946 533 933 q 589 963 568 958 q 631 963 610 967 q 669 947 651 960 q 699 917 688 935 q 714 877 710 899 q 715 833 718 856 q 701 792 713 811 l 514 485 l 701 179 m 485 485 l 681 806 q 692 871 700 835 q 656 926 685 907 q 594 938 628 946 q 540 900 560 931 l 385 646 l 229 900 q 176 938 210 931 q 114 926 142 946 q 77 871 85 907 q 89 806 69 835 l 286 485 q 188 326 236 403 q 89 165 139 249 q 77 100 69 136 q 114 44 85 64 q 158 31 139 31 q 229 72 206 31 l 229 71 l 385 325 l 540 71 q 572 41 553 51 q 611 31 590 31 q 656 44 635 31 q 692 100 685 64 q 681 165 700 136 l 485 485 m 661 151 q 669 106 675 131 q 643 65 664 81 q 611 56 626 56 q 583 63 596 56 q 561 85 569 69 l 385 371 l 208 85 q 158 56 192 56 q 142 58 150 56 q 126 65 135 61 q 100 106 106 81 q 108 151 94 131 l 314 485 l 108 819 q 100 865 94 840 q 126 904 106 890 q 171 914 147 919 q 208 886 194 908 l 385 600 l 561 886 q 599 914 575 908 q 643 904 622 919 q 669 865 664 890 q 661 819 675 840 l 456 485 l 661 151 z "},"y":{"ha":733,"x_min":25,"x_max":708,"o":"m 617 906 q 649 872 639 896 q 649 825 658 849 l 428 276 l 428 114 q 410 70 428 88 q 368 53 392 53 q 326 70 343 53 q 308 114 308 88 l 308 276 l 85 825 q 85 872 76 849 q 118 906 94 896 q 164 907 142 917 q 196 872 186 897 l 368 449 l 538 872 q 571 907 549 897 q 617 906 593 917 m 626 929 q 563 930 594 943 q 517 882 531 917 l 368 511 l 218 882 q 173 928 204 914 q 108 929 142 943 q 63 881 76 914 q 63 815 50 847 l 285 272 l 285 114 q 308 53 285 78 q 368 28 332 28 q 426 53 401 28 q 451 114 451 78 l 451 271 l 669 815 q 669 881 682 849 q 626 929 657 914 m 636 953 q 692 891 676 933 q 693 806 708 849 l 475 265 l 475 114 q 444 35 475 68 q 368 3 413 3 q 292 35 324 3 q 261 114 261 68 l 261 265 l 42 806 q 42 891 25 849 q 99 953 58 933 q 182 953 140 971 q 240 893 224 936 l 368 578 l 494 892 q 554 953 513 935 q 636 953 596 971 z "},"z":{"ha":771,"x_min":49,"x_max":721,"o":"m 158 4 q 104 19 129 4 q 64 61 79 35 q 51 120 49 89 q 69 176 53 151 l 68 176 l 414 738 l 158 738 q 83 770 114 738 q 51 850 51 803 q 83 930 51 897 q 158 963 114 963 l 611 963 q 665 947 640 963 q 706 904 690 932 q 719 845 721 876 q 700 789 717 814 l 701 789 l 357 228 l 611 228 q 687 195 656 228 q 718 115 718 163 q 687 37 718 69 q 611 4 656 4 l 158 4 m 611 29 q 671 54 647 29 q 694 115 694 79 q 671 177 694 151 q 611 203 647 203 l 313 203 l 682 803 q 694 847 693 822 q 683 893 694 872 q 653 925 672 913 q 611 938 635 938 l 158 938 q 99 912 124 938 q 75 850 75 886 q 99 788 75 814 q 158 763 124 763 l 457 763 l 89 163 q 76 119 78 143 q 86 74 75 94 q 117 41 97 53 q 158 29 136 29 l 611 29 m 611 54 l 158 54 q 128 63 143 54 q 106 86 114 71 q 108 150 90 118 l 501 788 l 158 788 q 116 806 133 788 q 99 850 99 824 q 116 894 99 876 q 158 913 133 913 l 611 913 q 664 881 646 913 q 672 848 672 865 q 661 817 671 831 l 268 178 l 611 178 q 653 160 636 178 q 671 115 671 142 q 653 72 671 89 q 611 54 636 54 z "},"":{"ha":453,"x_min":36,"x_max":421,"o":"m 279 733 q 224 743 251 733 l 225 743 q 206 751 214 747 q 192 758 199 754 q 176 746 185 751 q 157 738 168 740 q 92 740 124 726 q 47 781 60 753 l 47 779 q 38 812 40 794 q 42 844 36 829 q 82 899 53 876 q 150 928 111 921 q 190 928 169 931 q 229 919 211 926 l 228 921 q 244 913 236 917 q 260 903 253 908 q 296 925 276 919 q 362 923 331 935 q 406 883 393 911 q 411 818 421 847 l 411 819 q 371 763 400 786 q 340 744 356 751 q 304 735 324 738 q 290 733 297 733 q 279 733 283 733 m 279 750 q 290 750 283 750 q 300 751 296 750 q 331 760 315 754 q 357 775 346 767 q 377 797 368 785 q 389 822 386 808 q 386 876 397 853 q 353 907 376 899 q 304 908 329 915 q 264 876 276 900 q 219 903 244 893 q 187 911 204 908 q 153 911 169 914 q 122 902 138 908 q 96 886 107 896 q 76 866 85 878 q 64 840 67 854 q 67 786 54 810 q 101 756 78 767 q 149 754 125 746 q 188 786 178 764 q 207 772 196 779 q 233 758 218 765 q 279 750 258 750 m 279 768 q 243 775 261 768 q 214 791 225 782 q 193 808 203 800 q 184 817 189 813 q 176 822 179 821 q 172 822 172 822 l 169 822 l 167 819 l 167 817 q 166 789 174 801 q 142 771 158 776 q 110 772 125 765 q 88 793 94 778 q 83 836 76 813 q 111 874 90 858 q 158 893 133 889 q 210 888 183 897 q 239 871 228 881 q 258 854 250 861 l 276 839 l 281 839 l 283 842 q 285 843 285 842 l 285 847 q 286 873 278 860 q 311 892 294 886 q 343 891 328 897 q 365 871 358 885 q 369 826 376 850 q 342 789 363 804 q 294 769 322 774 q 279 768 290 768 z "},"":{"ha":764,"x_min":28,"x_max":738,"o":"m 724 150 l 485 883 q 444 938 472 917 q 382 958 417 958 q 318 938 346 958 q 279 883 290 917 l 40 149 q 48 63 28 104 q 108 6 68 22 q 143 0 124 0 q 206 21 178 0 q 244 76 233 42 l 272 160 l 493 160 l 519 76 q 541 38 526 54 q 574 11 556 21 q 615 0 593 1 q 657 6 636 -1 q 718 63 699 21 q 724 150 738 106 m 701 140 q 697 74 713 106 q 650 31 682 42 q 585 33 617 18 q 542 83 553 49 l 510 185 l 256 185 l 222 83 q 192 41 214 57 q 143 25 171 25 q 115 31 129 25 q 67 73 83 42 q 63 140 51 104 l 301 875 q 333 917 311 901 q 382 933 354 933 q 431 917 410 933 q 461 875 453 901 l 701 140 m 678 133 l 439 868 q 417 898 432 888 q 382 908 401 908 q 325 868 339 908 l 85 133 q 89 85 78 108 q 124 54 100 63 q 143 50 132 50 q 177 61 163 50 q 199 92 192 72 l 238 210 l 528 210 l 564 92 q 594 56 572 68 q 640 54 617 44 q 675 85 664 63 q 678 133 686 108 m 433 1011 q 378 1021 406 1011 l 379 1021 q 360 1028 368 1025 q 346 1036 353 1032 q 331 1024 339 1029 q 311 1015 322 1018 q 246 1017 278 1004 q 201 1058 214 1031 l 201 1057 q 192 1090 194 1072 q 196 1122 190 1107 q 236 1176 207 1154 q 304 1206 265 1199 q 344 1206 324 1208 q 383 1197 365 1204 l 382 1199 q 399 1190 390 1194 q 414 1181 407 1186 q 450 1203 431 1197 q 516 1201 485 1213 q 560 1161 547 1189 q 565 1096 575 1125 l 565 1097 q 525 1040 554 1064 q 494 1022 510 1029 q 458 1013 478 1015 q 444 1011 451 1011 q 433 1011 438 1011 m 433 1028 q 444 1028 438 1028 q 454 1029 450 1028 q 485 1038 469 1032 q 511 1053 500 1044 q 531 1074 522 1063 q 543 1100 540 1086 q 540 1154 551 1131 q 507 1185 531 1176 q 458 1186 483 1193 q 418 1154 431 1178 q 374 1181 399 1171 q 341 1189 358 1186 q 307 1189 324 1192 q 276 1180 292 1186 q 250 1164 261 1174 q 230 1144 239 1156 q 218 1118 221 1132 q 221 1064 208 1088 q 256 1034 232 1044 q 303 1032 279 1024 q 342 1064 332 1042 q 361 1050 350 1057 q 388 1036 372 1043 q 433 1028 413 1028 m 278 333 l 382 653 l 486 333 l 278 333 m 433 1046 q 397 1053 415 1046 q 368 1069 379 1060 q 347 1086 357 1078 q 338 1094 343 1090 q 331 1100 333 1099 q 326 1100 326 1100 l 324 1100 l 321 1097 l 321 1094 q 320 1067 328 1079 q 296 1049 313 1054 q 264 1049 279 1043 q 242 1071 249 1056 q 238 1114 231 1090 q 265 1151 244 1136 q 313 1171 288 1167 q 364 1165 338 1175 q 393 1149 382 1158 q 413 1132 404 1139 l 431 1117 l 435 1117 l 438 1119 q 439 1121 439 1119 l 439 1125 q 440 1151 432 1138 q 465 1169 449 1164 q 497 1169 482 1175 q 519 1149 513 1163 q 524 1104 531 1128 q 496 1067 517 1082 q 449 1047 476 1051 q 433 1046 444 1046 m 453 358 l 382 576 l 311 358 l 453 358 m 344 383 l 382 497 l 419 383 l 344 383 z "},"":{"ha":768,"x_min":49,"x_max":715,"o":"m 608 3 q 556 16 581 3 q 518 54 532 29 l 263 467 l 263 114 q 231 35 263 68 q 156 3 200 3 q 80 35 111 3 q 49 114 49 68 l 49 849 q 70 915 49 885 q 126 956 92 944 q 193 954 160 967 q 246 908 226 942 l 246 910 l 501 497 l 501 849 q 533 928 501 896 q 608 961 564 961 q 684 928 653 961 q 715 849 715 896 l 715 114 q 693 47 715 78 q 635 6 671 17 q 622 3 628 4 q 608 3 617 3 m 608 28 q 628 31 614 28 q 674 63 657 39 q 692 114 692 86 l 692 849 q 667 910 692 885 q 608 936 643 936 q 549 910 572 936 q 525 849 525 885 l 525 413 l 226 896 q 185 929 211 919 q 133 932 160 939 q 89 900 106 924 q 72 849 72 876 l 72 114 q 97 53 72 78 q 156 28 121 28 q 215 53 190 28 q 239 114 239 78 l 239 551 l 538 67 l 538 68 q 608 28 561 28 m 608 53 q 558 81 574 53 l 215 638 l 215 114 q 198 70 215 88 q 156 53 181 53 q 113 70 131 53 q 96 114 96 88 l 96 849 q 108 886 96 869 q 139 908 119 903 q 176 908 158 915 q 206 882 194 900 l 549 326 l 549 849 q 566 893 549 875 q 608 911 583 911 q 651 893 633 911 q 668 849 668 875 l 668 114 q 656 78 668 94 q 625 54 644 61 q 616 53 619 54 q 608 53 613 53 m 435 1011 q 379 1021 407 1011 l 381 1021 q 362 1028 369 1025 q 347 1036 354 1032 q 332 1024 340 1029 q 313 1015 324 1018 q 247 1017 279 1004 q 203 1058 215 1031 l 203 1057 q 194 1090 196 1072 q 197 1122 192 1107 q 238 1176 208 1154 q 306 1206 267 1199 q 346 1206 325 1208 q 385 1197 367 1204 l 383 1199 q 400 1190 392 1194 q 415 1181 408 1186 q 451 1203 432 1197 q 517 1201 486 1213 q 561 1161 549 1189 q 567 1096 576 1125 l 567 1097 q 526 1040 556 1064 q 495 1022 511 1029 q 460 1013 479 1015 q 446 1011 453 1011 q 435 1011 439 1011 m 435 1028 q 445 1028 439 1028 q 456 1029 451 1028 q 486 1038 471 1032 q 513 1053 501 1044 q 533 1074 524 1063 q 544 1100 542 1086 q 542 1154 553 1131 q 508 1185 532 1176 q 460 1186 485 1193 q 419 1154 432 1178 q 375 1181 400 1171 q 342 1189 360 1186 q 308 1189 325 1192 q 278 1180 293 1186 q 251 1164 263 1174 q 231 1144 240 1156 q 219 1118 222 1132 q 222 1064 210 1088 q 257 1034 233 1044 q 304 1032 281 1024 q 343 1064 333 1042 q 363 1050 351 1057 q 389 1036 374 1043 q 435 1028 414 1028 m 435 1046 q 399 1053 417 1046 q 369 1069 381 1060 q 349 1086 358 1078 q 340 1094 344 1090 q 332 1100 335 1099 q 328 1100 328 1100 l 325 1100 l 322 1097 l 322 1094 q 322 1067 329 1079 q 297 1049 314 1054 q 265 1049 281 1043 q 243 1071 250 1056 q 239 1114 232 1090 q 267 1151 246 1136 q 314 1171 289 1167 q 365 1165 339 1175 q 394 1149 383 1158 q 414 1132 406 1139 l 432 1117 l 436 1117 l 439 1119 q 440 1121 440 1119 l 440 1125 q 442 1151 433 1138 q 467 1169 450 1164 q 499 1169 483 1175 q 521 1149 514 1163 q 525 1104 532 1128 q 497 1067 518 1082 q 450 1047 478 1051 q 435 1046 446 1046 z "},"":{"ha":1038,"x_min":32,"x_max":1006,"o":"m 990 735 q 928 854 971 803 q 864 910 900 886 q 790 947 828 933 q 745 958 767 954 q 701 961 724 961 q 621 950 663 961 q 567 928 593 942 q 518 897 540 914 q 470 928 496 914 q 417 950 444 942 q 336 961 372 961 q 292 958 314 961 q 247 947 271 954 q 173 910 210 933 q 108 854 136 886 q 46 733 65 803 q 35 672 39 706 q 33 608 32 639 q 52 505 36 560 q 94 396 68 450 q 165 282 124 338 q 254 177 206 226 q 357 87 303 128 q 468 15 411 46 q 493 6 481 8 q 519 3 506 3 q 572 17 550 3 l 569 15 q 785 175 688 75 q 943 396 882 275 q 985 505 969 450 q 1004 608 1001 560 q 1001 672 1006 638 q 990 735 997 707 m 967 728 q 977 670 974 701 q 979 611 981 639 q 962 512 976 563 q 921 407 947 461 q 769 192 861 286 q 558 38 676 97 l 560 39 q 540 30 550 32 q 519 28 529 28 q 499 30 510 28 q 478 39 489 32 l 479 38 q 269 192 361 97 q 117 407 176 286 q 75 511 89 460 q 58 611 61 563 q 60 669 57 639 q 71 726 64 700 q 94 787 81 758 q 128 839 108 815 q 187 889 153 867 q 256 924 221 911 q 336 936 294 936 q 410 926 376 936 q 469 901 442 915 q 519 865 496 888 q 628 926 565 907 q 701 936 661 936 q 782 924 742 936 q 852 889 818 911 q 910 839 886 867 q 943 788 929 815 q 967 728 957 760 m 943 721 q 892 822 925 782 q 775 900 842 879 q 701 911 738 911 q 636 903 667 911 q 519 829 565 882 q 403 903 471 882 q 336 911 369 911 q 263 900 300 911 q 147 822 196 879 q 94 721 111 781 q 84 668 88 696 q 83 613 81 640 q 99 519 86 567 q 139 418 113 471 q 288 210 197 301 q 490 60 378 118 q 519 53 503 53 q 547 60 535 53 q 750 210 660 118 q 899 418 840 301 q 954 613 950 521 q 943 721 958 668 m 831 618 q 786 474 826 551 q 674 308 742 382 q 519 186 606 235 q 364 308 432 235 q 251 474 296 382 q 208 618 210 554 q 215 687 206 654 q 243 743 224 719 q 269 766 254 757 q 300 782 285 775 q 336 786 318 786 q 368 782 351 786 q 428 746 401 772 q 447 715 439 731 q 457 681 454 699 q 478 644 461 658 q 519 629 496 629 q 560 644 543 629 q 581 681 576 658 q 611 746 586 715 q 669 782 635 771 q 701 786 686 786 q 738 782 721 786 q 768 766 753 775 q 794 743 783 757 q 823 687 814 719 q 831 618 832 654 m 806 619 q 776 726 808 686 q 756 745 768 738 q 729 758 743 753 l 731 758 q 716 761 724 761 q 701 761 708 761 q 689 761 694 761 q 676 758 683 761 q 629 728 649 749 l 631 731 q 606 676 611 704 q 576 624 600 644 q 519 604 551 604 q 463 624 488 604 q 432 676 439 644 q 423 705 429 692 q 407 731 417 718 l 408 728 q 361 758 388 750 q 349 761 354 761 q 336 761 343 761 q 322 761 329 761 q 307 758 315 761 l 308 758 q 282 745 294 753 q 261 726 269 738 l 263 728 q 233 619 229 686 q 244 556 235 590 q 274 485 254 522 q 378 331 315 400 q 519 214 442 263 q 660 331 597 263 q 764 485 722 400 q 793 556 783 522 q 806 619 803 590 m 781 621 q 742 494 776 567 q 521 244 665 338 q 391 354 450 290 q 296 494 332 418 q 258 621 260 568 q 263 671 257 647 q 281 711 268 694 q 297 725 288 719 q 317 735 306 731 l 314 735 q 324 736 318 736 q 336 736 329 736 q 343 736 339 736 q 354 733 347 736 q 392 713 376 726 q 407 672 403 694 q 446 606 414 632 q 519 579 478 579 q 591 606 560 579 q 629 672 622 632 q 637 694 632 683 q 649 714 642 706 q 666 727 657 722 q 685 735 675 732 q 692 736 688 736 q 701 736 697 736 q 713 736 707 736 q 721 735 718 736 q 740 724 731 731 q 757 711 750 718 q 775 672 768 694 q 781 621 782 649 m 569 1011 q 514 1021 542 1011 l 515 1021 q 497 1028 504 1025 q 482 1036 489 1032 q 467 1024 475 1029 q 447 1015 458 1018 q 382 1017 414 1004 q 338 1058 350 1031 l 338 1057 q 328 1090 331 1072 q 332 1122 326 1107 q 372 1176 343 1154 q 440 1206 401 1199 q 481 1206 460 1208 q 519 1197 501 1204 l 518 1199 q 535 1190 526 1194 q 550 1181 543 1186 q 586 1203 567 1197 q 652 1201 621 1213 q 696 1161 683 1189 q 701 1096 711 1125 l 701 1097 q 661 1040 690 1064 q 630 1022 646 1029 q 594 1013 614 1015 q 581 1011 588 1011 q 569 1011 574 1011 m 569 1028 q 580 1028 574 1028 q 590 1029 586 1028 q 621 1038 606 1032 q 647 1053 636 1044 q 667 1074 658 1063 q 679 1100 676 1086 q 676 1154 688 1131 q 643 1185 667 1176 q 594 1186 619 1193 q 554 1154 567 1178 q 510 1181 535 1171 q 477 1189 494 1186 q 443 1189 460 1192 q 413 1180 428 1186 q 386 1164 397 1174 q 366 1144 375 1156 q 354 1118 357 1132 q 357 1064 344 1088 q 392 1034 368 1044 q 439 1032 415 1024 q 478 1064 468 1042 q 497 1050 486 1057 q 524 1036 508 1043 q 569 1028 549 1028 m 569 1046 q 533 1053 551 1046 q 504 1069 515 1060 q 483 1086 493 1078 q 474 1094 479 1090 q 467 1100 469 1099 q 463 1100 463 1100 l 460 1100 l 457 1097 l 457 1094 q 456 1067 464 1079 q 432 1049 449 1054 q 400 1049 415 1043 q 378 1071 385 1056 q 374 1114 367 1090 q 401 1151 381 1136 q 449 1171 424 1167 q 500 1165 474 1175 q 529 1149 518 1158 q 549 1132 540 1139 l 567 1117 l 571 1117 l 574 1119 q 575 1121 575 1119 l 575 1125 q 576 1151 568 1138 q 601 1169 585 1164 q 633 1169 618 1175 q 656 1149 649 1163 q 660 1104 667 1128 q 632 1067 653 1082 q 585 1047 613 1051 q 569 1046 581 1046 z "},"":{"ha":488,"x_min":42,"x_max":446,"o":"m 431 885 q 438 874 435 879 q 443 864 442 869 q 446 846 446 858 q 441 828 444 838 q 435 813 438 819 q 372 760 414 778 q 363 756 367 756 q 356 756 358 756 q 339 758 346 756 q 274 813 297 776 q 264 846 264 829 q 267 864 264 856 l 265 864 q 270 874 267 869 q 278 885 274 879 q 292 895 285 890 q 311 901 300 900 q 326 904 319 904 q 329 903 328 904 q 332 903 331 903 l 340 903 l 356 897 q 360 901 358 900 q 368 903 363 901 l 376 903 q 379 903 378 903 q 383 904 381 904 q 392 903 388 904 q 400 901 396 901 q 415 894 407 899 q 431 885 424 890 m 210 885 q 217 874 214 879 q 222 864 221 869 q 224 846 225 853 q 220 828 224 838 q 214 813 217 819 q 151 760 193 778 q 141 756 144 756 q 133 756 138 756 q 118 758 125 756 q 53 813 76 776 q 43 846 43 829 q 43 857 42 853 q 46 864 44 861 l 44 864 q 49 874 46 869 q 57 885 53 879 q 72 895 64 890 q 90 901 79 900 q 106 904 99 904 q 108 903 107 904 q 111 903 110 903 l 119 903 l 133 897 q 140 901 138 900 q 147 903 142 901 l 156 903 q 158 903 157 903 q 163 904 160 904 q 170 903 167 904 q 179 901 174 901 q 194 894 186 899 q 210 885 203 890 m 210 861 q 200 879 208 868 q 188 886 194 882 q 175 892 182 890 l 176 890 q 169 893 172 892 q 163 894 165 894 q 158 894 160 894 q 156 893 157 893 l 151 893 l 133 886 q 129 888 132 886 q 124 890 126 889 l 115 893 l 111 893 q 108 894 110 893 q 106 894 107 894 q 99 893 103 894 q 92 890 94 892 l 92 892 q 78 886 85 890 q 67 879 71 882 q 57 861 58 868 q 56 844 54 851 q 64 817 56 831 q 124 768 86 782 q 133 765 129 765 q 144 768 142 765 q 203 817 185 786 q 208 831 206 824 q 213 844 211 838 q 210 861 214 851 m 431 861 q 421 879 429 868 q 409 886 415 882 q 396 892 403 890 l 397 890 q 390 893 393 892 q 383 894 386 894 q 379 894 381 894 q 376 893 378 893 l 372 893 q 363 890 367 890 q 356 886 358 889 q 350 888 353 886 q 344 890 347 889 l 336 893 l 332 893 q 329 894 331 893 q 326 894 328 894 q 319 893 324 894 q 313 890 315 892 l 314 892 q 299 886 306 890 q 288 879 293 882 q 278 861 279 868 q 276 844 275 851 q 285 817 276 831 q 344 768 307 782 q 356 765 350 765 q 365 768 363 765 q 424 817 406 786 q 429 831 426 824 q 433 844 432 838 q 431 861 435 851 m 418 860 q 421 846 424 853 q 418 834 421 840 q 413 821 415 828 q 358 776 396 792 q 356 775 357 775 q 350 776 353 775 q 296 821 314 792 q 289 846 289 838 q 290 860 288 850 q 297 872 292 864 q 315 882 308 881 q 326 883 319 883 l 336 883 q 356 874 347 879 q 372 883 361 879 l 383 883 q 394 882 390 883 q 411 872 400 881 q 418 860 415 868 m 197 860 q 200 846 203 853 q 197 834 200 840 q 192 821 194 828 q 138 776 175 792 q 133 775 136 775 q 129 776 132 775 q 75 821 93 792 q 68 846 68 838 q 69 860 67 850 q 76 872 72 868 q 94 882 88 881 q 106 883 99 883 l 115 883 q 133 874 129 878 q 151 883 142 881 l 163 883 q 174 882 169 883 q 190 872 179 881 q 197 860 196 864 z "},"":{"ha":764,"x_min":28,"x_max":738,"o":"m 724 150 q 718 63 738 106 q 657 6 699 21 q 615 0 636 -1 q 574 11 593 1 q 541 38 556 21 q 519 76 526 54 l 493 160 l 272 160 l 244 76 q 206 21 233 42 q 143 0 178 0 q 108 6 124 0 q 48 63 68 22 q 40 149 28 104 l 279 883 q 318 938 290 917 q 382 958 346 958 q 444 938 417 958 q 485 883 472 917 l 724 150 m 461 875 q 431 917 453 901 q 382 933 410 933 q 333 917 354 933 q 301 875 311 901 l 63 140 q 67 73 51 104 q 115 31 83 42 q 143 25 129 25 q 192 41 171 25 q 222 83 214 57 l 256 185 l 510 185 l 542 83 q 585 33 553 49 q 650 31 617 18 q 697 74 682 42 q 701 140 713 106 l 461 875 m 678 133 q 675 85 686 108 q 640 54 664 63 q 594 56 617 44 q 564 92 572 68 l 528 210 l 238 210 l 199 92 q 177 61 192 72 q 143 50 163 50 q 124 54 132 50 q 89 85 100 63 q 85 133 78 108 l 325 868 q 382 908 339 908 q 417 898 401 908 q 439 868 432 888 l 678 133 m 486 333 l 382 653 l 278 333 l 486 333 m 568 1163 q 576 1152 572 1157 q 581 1142 579 1147 q 583 1124 583 1136 q 578 1106 582 1115 q 572 1090 575 1097 q 510 1038 551 1056 q 500 1033 504 1033 q 493 1033 496 1033 q 476 1036 483 1033 q 411 1090 435 1054 q 401 1124 401 1107 q 404 1142 401 1133 l 403 1142 q 408 1152 404 1147 q 415 1163 411 1157 q 430 1173 422 1168 q 449 1179 438 1178 q 464 1182 457 1182 q 467 1181 465 1182 q 469 1181 468 1181 l 478 1181 l 493 1175 q 498 1178 496 1178 q 506 1181 500 1179 l 514 1181 q 517 1181 515 1181 q 521 1182 518 1182 q 528 1181 525 1182 q 536 1179 532 1179 q 553 1173 544 1178 q 568 1163 561 1168 m 347 1163 q 355 1152 351 1157 q 360 1142 358 1147 q 361 1124 363 1131 q 358 1106 361 1115 q 351 1090 354 1097 q 289 1038 331 1056 q 278 1033 282 1033 q 271 1033 275 1033 q 256 1036 263 1033 q 190 1090 214 1054 q 181 1124 181 1107 q 181 1135 179 1131 q 183 1142 182 1139 l 182 1142 q 187 1152 183 1147 q 194 1163 190 1157 q 208 1172 201 1168 q 226 1179 215 1176 l 228 1179 q 243 1182 236 1182 q 246 1181 244 1182 q 249 1181 247 1181 l 257 1181 l 271 1175 q 277 1178 275 1178 q 285 1181 279 1179 l 293 1181 q 296 1181 294 1181 q 300 1182 297 1182 q 308 1181 304 1182 q 315 1179 311 1179 q 332 1173 324 1178 q 347 1163 340 1168 m 311 358 l 382 576 l 453 358 l 311 358 m 347 1139 q 338 1157 346 1146 q 326 1164 332 1160 q 313 1169 319 1168 l 314 1168 q 306 1171 310 1169 q 300 1172 303 1172 q 296 1172 297 1172 q 293 1171 294 1171 l 289 1171 l 271 1164 q 267 1165 269 1164 q 261 1168 264 1167 l 253 1171 l 249 1171 q 246 1172 247 1171 q 243 1172 244 1172 q 236 1171 240 1172 q 229 1168 232 1169 l 229 1169 q 215 1164 222 1168 q 204 1157 208 1160 q 194 1139 196 1146 q 193 1122 192 1129 q 201 1094 193 1108 q 261 1046 224 1060 q 271 1043 267 1043 q 282 1046 279 1043 q 340 1094 322 1064 q 346 1108 343 1101 q 350 1122 349 1115 q 347 1139 351 1129 m 568 1139 q 558 1157 567 1146 q 547 1164 553 1160 q 533 1169 540 1168 l 535 1168 q 527 1171 531 1169 q 521 1172 524 1172 q 517 1172 518 1172 q 514 1171 515 1171 l 510 1171 q 500 1167 504 1168 q 493 1164 496 1167 q 488 1165 490 1164 q 482 1168 485 1167 l 474 1171 l 469 1171 q 467 1172 468 1171 q 464 1172 465 1172 q 457 1171 461 1172 q 450 1168 453 1169 l 451 1169 q 437 1164 443 1168 q 425 1157 431 1160 q 415 1139 417 1146 q 414 1122 413 1129 q 422 1094 414 1108 q 482 1046 444 1060 q 493 1043 488 1043 q 503 1046 500 1043 q 561 1094 543 1064 q 567 1108 564 1101 q 571 1122 569 1115 q 568 1139 572 1129 m 556 1138 q 558 1124 561 1131 q 556 1112 558 1118 q 550 1099 553 1106 q 496 1054 533 1069 q 493 1053 494 1053 q 488 1054 490 1053 q 433 1099 451 1069 q 426 1124 426 1115 q 428 1138 425 1128 q 435 1150 429 1142 q 453 1160 446 1158 q 464 1161 457 1161 l 474 1161 q 493 1151 485 1157 q 510 1161 499 1157 l 521 1161 q 532 1160 528 1161 q 549 1150 538 1158 q 556 1138 553 1146 m 335 1138 q 338 1124 340 1131 q 335 1112 338 1118 q 329 1099 332 1106 q 275 1054 313 1069 q 271 1053 274 1053 q 267 1054 269 1053 q 213 1099 231 1069 q 206 1124 206 1115 q 207 1138 204 1128 q 214 1150 210 1146 q 232 1160 225 1158 q 243 1161 236 1161 l 253 1161 q 271 1151 267 1156 q 289 1161 279 1158 l 300 1161 q 311 1160 307 1161 q 328 1150 317 1158 q 335 1138 333 1142 m 419 383 l 382 497 l 344 383 l 419 383 z "},"":{"ha":767,"x_min":50,"x_max":717,"o":"m 264 374 l 264 231 l 610 231 q 685 197 654 231 q 717 118 717 164 q 685 38 717 71 q 610 6 654 6 l 157 6 q 81 38 113 6 q 50 118 50 71 l 50 853 q 81 931 50 899 q 157 964 113 964 l 610 964 q 685 931 654 964 q 717 853 717 899 q 685 773 717 806 q 610 740 654 740 l 264 740 l 264 597 l 610 597 q 685 564 654 597 q 717 485 717 531 q 685 406 717 439 q 610 374 654 374 l 264 374 m 610 399 q 669 424 644 399 q 693 485 693 449 q 669 547 693 521 q 610 572 644 572 l 240 572 l 240 765 l 610 765 q 669 791 644 765 q 693 853 693 817 q 669 915 693 889 q 610 940 644 940 l 157 940 q 98 915 122 940 q 74 853 74 889 l 74 118 q 98 56 74 82 q 157 31 122 31 l 610 31 q 669 56 644 31 q 693 118 693 82 q 669 180 693 154 q 610 206 644 206 l 240 206 l 240 399 l 610 399 m 217 424 l 217 181 l 610 181 q 652 162 635 181 q 669 118 669 143 q 652 74 669 92 q 610 56 635 56 l 157 56 q 115 74 132 56 q 97 118 97 92 l 97 853 q 115 897 97 878 q 157 915 132 915 l 610 915 q 652 897 635 915 q 669 853 669 878 q 652 808 669 826 q 610 790 635 790 l 217 790 l 217 547 l 610 547 q 652 529 635 547 q 669 485 669 511 q 652 441 669 458 q 610 424 635 424 l 217 424 m 569 1163 q 577 1152 574 1157 q 582 1142 581 1147 q 585 1124 585 1136 q 580 1106 583 1115 q 574 1090 576 1097 q 511 1038 553 1056 q 501 1033 506 1033 q 494 1033 497 1033 q 478 1036 485 1033 q 413 1090 436 1054 q 403 1124 403 1107 q 406 1142 403 1133 l 404 1142 q 409 1152 406 1147 q 417 1163 413 1157 q 449 1179 429 1175 l 450 1179 q 465 1182 458 1182 q 468 1181 467 1182 q 471 1181 469 1181 l 479 1181 l 494 1175 q 499 1178 497 1178 q 507 1181 501 1179 l 515 1181 q 518 1181 517 1181 q 522 1182 519 1182 q 531 1181 526 1182 q 539 1179 535 1179 q 554 1172 546 1176 q 569 1163 563 1168 m 349 1163 q 356 1152 353 1157 q 361 1142 360 1147 q 363 1124 364 1131 q 359 1106 363 1115 q 353 1090 356 1097 q 290 1038 332 1056 q 280 1033 283 1033 q 272 1033 276 1033 q 257 1036 264 1033 q 192 1090 215 1054 q 182 1124 182 1107 q 182 1135 181 1131 q 185 1142 183 1139 l 183 1142 q 188 1152 185 1147 q 196 1163 192 1157 q 228 1179 208 1175 l 229 1179 q 244 1182 238 1182 q 247 1181 246 1182 q 250 1181 249 1181 l 258 1181 l 272 1175 q 278 1178 276 1178 q 286 1181 281 1179 l 294 1181 q 297 1181 296 1181 q 301 1182 299 1182 q 310 1181 307 1182 q 319 1179 314 1179 l 318 1179 q 333 1172 325 1176 q 349 1163 342 1168 m 349 1139 q 339 1157 347 1146 q 327 1164 333 1160 q 314 1169 321 1168 l 315 1168 q 308 1171 311 1169 q 301 1172 304 1172 q 297 1172 299 1172 q 294 1171 296 1171 l 290 1171 l 272 1164 q 268 1165 271 1164 q 263 1168 265 1167 l 254 1171 l 250 1171 q 247 1172 249 1171 q 244 1172 246 1172 q 238 1171 242 1172 q 231 1168 233 1169 l 231 1169 q 217 1164 224 1168 q 206 1157 210 1160 q 196 1139 197 1146 q 194 1122 193 1129 q 203 1094 194 1108 q 263 1046 225 1060 q 272 1043 268 1043 q 283 1046 281 1043 q 342 1094 324 1064 q 347 1108 344 1101 q 351 1122 350 1115 q 349 1139 353 1129 m 569 1139 q 560 1157 568 1146 q 548 1164 554 1160 q 535 1169 542 1168 l 536 1168 q 528 1171 532 1169 q 522 1172 525 1172 q 518 1172 519 1172 q 515 1171 517 1171 l 511 1171 q 501 1167 506 1168 q 494 1164 497 1167 q 489 1165 492 1164 q 483 1168 486 1167 l 475 1171 l 471 1171 q 468 1172 469 1171 q 465 1172 467 1172 q 458 1171 463 1172 q 451 1168 454 1169 l 453 1169 q 438 1164 444 1168 q 426 1157 432 1160 q 417 1139 418 1146 q 415 1122 414 1129 q 424 1094 415 1108 q 483 1046 446 1060 q 494 1043 489 1043 q 504 1046 501 1043 q 563 1094 544 1064 q 568 1108 565 1101 q 572 1122 571 1115 q 569 1139 574 1129 m 557 1138 q 560 1124 563 1131 q 557 1112 560 1118 q 551 1099 554 1106 q 497 1054 535 1069 q 494 1053 496 1053 q 489 1054 492 1053 q 435 1099 453 1069 q 428 1124 428 1115 q 429 1138 426 1128 q 436 1150 431 1142 q 454 1160 447 1158 q 465 1161 458 1161 l 475 1161 q 494 1151 486 1157 q 511 1161 500 1157 l 522 1161 q 533 1160 529 1161 q 550 1150 539 1158 q 557 1138 554 1146 m 336 1138 q 339 1124 342 1131 q 336 1112 339 1118 q 331 1099 333 1106 q 276 1054 314 1069 q 272 1053 275 1053 q 268 1054 271 1053 q 214 1099 232 1069 q 207 1124 207 1115 q 208 1138 206 1128 q 215 1150 211 1146 q 233 1160 226 1158 q 244 1161 238 1161 l 254 1161 q 272 1151 268 1156 q 290 1161 281 1158 l 301 1161 q 313 1160 308 1161 q 329 1150 318 1158 q 336 1138 335 1142 z "},"":{"ha":1038,"x_min":32,"x_max":1006,"o":"m 990 735 q 1001 672 997 707 q 1004 608 1006 638 q 985 505 1001 560 q 943 396 969 450 q 785 175 882 275 q 569 15 688 75 l 572 17 q 519 3 550 3 q 493 6 506 3 q 468 15 481 8 q 357 87 411 46 q 254 177 303 128 q 165 282 206 226 q 94 396 124 338 q 52 505 68 450 q 33 608 36 560 q 35 672 32 639 q 46 733 39 706 q 108 854 65 803 q 173 910 136 886 q 247 947 210 933 q 292 958 271 954 q 336 961 314 961 q 417 950 372 961 q 470 928 444 942 q 518 897 496 914 q 567 928 540 914 q 621 950 593 942 q 701 961 663 961 q 745 958 724 961 q 790 947 767 954 q 864 910 828 933 q 928 854 900 886 q 990 735 971 803 m 967 728 q 943 788 957 760 q 910 839 929 815 q 852 889 886 867 q 782 924 818 911 q 701 936 742 936 q 628 926 661 936 q 519 865 565 907 q 469 901 496 888 q 410 926 442 915 q 336 936 376 936 q 256 924 294 936 q 187 889 221 911 q 128 839 153 867 q 94 787 108 815 q 71 726 81 758 q 60 669 64 700 q 58 611 57 639 q 75 511 61 563 q 117 407 89 460 q 269 192 176 286 q 479 38 361 97 l 478 39 q 499 30 489 32 q 519 28 510 28 q 540 30 529 28 q 560 39 550 32 l 558 38 q 769 192 676 97 q 921 407 861 286 q 962 512 947 461 q 979 611 976 563 q 977 670 981 639 q 967 728 974 701 m 943 721 q 954 613 958 668 q 899 418 950 521 q 750 210 840 301 q 547 60 660 118 q 519 53 535 53 q 490 60 503 53 q 288 210 378 118 q 139 418 197 301 q 99 519 113 471 q 83 613 86 567 q 84 668 81 640 q 94 721 88 696 q 147 822 111 781 q 263 900 196 879 q 336 911 300 911 q 403 903 369 911 q 519 829 471 882 q 636 903 565 882 q 701 911 667 911 q 775 900 738 911 q 892 822 842 879 q 943 721 925 782 m 831 618 q 823 687 832 654 q 794 743 814 719 q 768 766 783 757 q 738 782 753 775 q 701 786 721 786 q 669 782 686 786 q 611 746 635 771 q 581 681 586 715 q 560 644 576 658 q 519 629 543 629 q 478 644 496 629 q 457 681 461 658 q 447 715 454 699 q 428 746 439 731 q 368 782 401 772 q 336 786 351 786 q 300 782 318 786 q 269 766 285 775 q 243 743 254 757 q 215 687 224 719 q 208 618 206 654 q 251 474 210 554 q 364 308 296 382 q 519 186 432 235 q 674 308 606 235 q 786 474 742 382 q 831 618 826 551 m 806 619 q 793 556 803 590 q 764 485 783 522 q 660 331 722 400 q 519 214 597 263 q 378 331 442 263 q 274 485 315 400 q 244 556 254 522 q 233 619 235 590 q 263 728 229 686 l 261 726 q 282 745 269 738 q 308 758 294 753 l 307 758 q 322 761 315 761 q 336 761 329 761 q 349 761 343 761 q 361 758 354 761 q 408 728 388 750 l 407 731 q 423 705 417 718 q 432 676 429 692 q 463 624 439 644 q 519 604 488 604 q 576 624 551 604 q 606 676 600 644 q 631 731 611 704 l 629 728 q 676 758 649 749 q 689 761 683 761 q 701 761 694 761 q 716 761 708 761 q 731 758 724 761 l 729 758 q 756 745 743 753 q 776 726 768 738 q 806 619 808 686 m 781 621 q 775 672 782 649 q 757 711 768 694 q 740 724 750 718 q 721 735 731 731 q 713 736 718 736 q 701 736 707 736 q 692 736 697 736 q 685 735 688 736 q 666 727 675 732 q 649 714 657 722 q 637 694 642 706 q 629 672 632 683 q 591 606 622 632 q 519 579 560 579 q 446 606 478 579 q 407 672 414 632 q 392 713 403 694 q 354 733 376 726 q 343 736 347 736 q 336 736 339 736 q 324 736 329 736 q 314 735 318 736 l 317 735 q 297 725 306 731 q 281 711 288 719 q 263 671 268 694 q 258 621 257 647 q 296 494 260 568 q 391 354 332 418 q 521 244 450 290 q 742 494 665 338 q 781 621 776 567 m 706 1163 q 713 1152 710 1157 q 718 1142 717 1147 q 721 1124 721 1136 q 716 1106 719 1115 q 710 1090 713 1097 q 647 1038 689 1056 q 638 1033 642 1033 q 631 1033 633 1033 q 614 1036 621 1033 q 549 1090 572 1054 q 539 1124 539 1107 q 542 1142 539 1133 l 540 1142 q 545 1152 542 1147 q 553 1163 549 1157 q 567 1173 560 1168 q 586 1179 575 1178 q 601 1182 594 1182 q 604 1181 603 1182 q 607 1181 606 1181 l 615 1181 l 631 1175 q 635 1178 633 1178 q 643 1181 638 1179 l 651 1181 q 654 1181 653 1181 q 658 1182 656 1182 q 666 1181 663 1182 q 674 1179 669 1179 l 675 1179 l 676 1179 l 675 1179 q 690 1172 682 1176 q 706 1163 699 1168 m 485 1163 q 492 1152 489 1157 q 497 1142 496 1147 q 499 1124 500 1131 q 495 1106 499 1115 q 489 1090 492 1097 q 426 1038 468 1056 q 416 1033 419 1033 q 408 1033 413 1033 q 393 1036 400 1033 q 328 1090 351 1054 q 318 1124 318 1107 q 318 1135 317 1131 q 321 1142 319 1139 l 319 1142 q 324 1152 321 1147 q 332 1163 328 1157 q 347 1173 339 1168 q 365 1179 354 1178 q 381 1182 374 1182 q 383 1181 382 1182 q 386 1181 385 1181 l 394 1181 l 408 1175 q 415 1178 413 1178 q 422 1181 417 1179 l 431 1181 q 433 1181 432 1181 q 438 1182 435 1182 q 445 1181 442 1182 q 454 1179 449 1179 q 469 1172 461 1176 q 485 1163 478 1168 m 485 1139 q 475 1157 483 1146 q 463 1164 469 1160 q 450 1169 457 1168 l 451 1168 q 444 1171 447 1169 q 438 1172 440 1172 q 433 1172 435 1172 q 431 1171 432 1171 l 426 1171 l 408 1164 q 404 1165 407 1164 q 399 1168 401 1167 l 390 1171 l 386 1171 q 383 1172 385 1171 q 381 1172 382 1172 q 374 1171 378 1172 q 367 1168 369 1169 l 367 1169 q 353 1164 360 1168 q 342 1157 346 1160 q 332 1139 333 1146 q 331 1122 329 1129 q 339 1094 331 1108 q 399 1046 361 1060 q 408 1043 404 1043 q 419 1046 417 1043 q 478 1094 460 1064 q 483 1108 481 1101 q 488 1122 486 1115 q 485 1139 489 1129 m 706 1139 q 696 1157 704 1146 q 684 1164 690 1160 q 671 1169 678 1168 l 672 1168 q 665 1171 668 1169 q 658 1172 661 1172 q 654 1172 656 1172 q 651 1171 653 1171 l 647 1171 q 638 1167 642 1168 q 631 1164 633 1167 q 625 1165 628 1164 q 619 1168 622 1167 l 611 1171 l 607 1171 q 604 1172 606 1171 q 601 1172 603 1172 q 594 1171 599 1172 q 588 1168 590 1169 l 589 1169 q 574 1164 581 1168 q 563 1157 568 1160 q 553 1139 554 1146 q 551 1122 550 1129 q 560 1094 551 1108 q 619 1046 582 1060 q 631 1043 625 1043 q 640 1046 638 1043 q 699 1094 681 1064 q 704 1108 701 1101 q 708 1122 707 1115 q 706 1139 710 1129 m 693 1138 q 696 1124 699 1131 q 693 1112 696 1118 q 688 1099 690 1106 q 633 1054 671 1069 q 631 1053 632 1053 q 625 1054 628 1053 q 571 1099 589 1069 q 564 1124 564 1115 q 565 1138 563 1128 q 572 1150 567 1142 q 590 1160 583 1158 q 601 1161 594 1161 l 611 1161 q 631 1151 622 1157 q 647 1161 636 1157 l 658 1161 q 669 1160 665 1161 q 686 1150 675 1158 q 693 1138 690 1146 m 472 1138 q 475 1124 478 1131 q 472 1112 475 1118 q 467 1099 469 1106 q 413 1054 450 1069 q 408 1053 411 1053 q 404 1054 407 1053 q 350 1099 368 1069 q 343 1124 343 1115 q 344 1138 342 1128 q 351 1150 347 1146 q 369 1160 363 1158 q 381 1161 374 1161 l 390 1161 q 408 1151 404 1156 q 426 1161 417 1158 l 438 1161 q 449 1160 444 1161 q 465 1150 454 1158 q 472 1138 471 1142 z "},"":{"ha":757,"x_min":44,"x_max":711,"o":"m 378 0 q 267 18 321 0 q 168 72 213 36 q 90 160 121 108 q 46 269 58 211 q 45 275 46 271 q 44 282 44 279 l 44 846 q 53 889 44 868 q 77 925 63 910 q 111 949 92 940 q 153 958 131 958 q 228 925 197 958 q 260 846 260 892 l 260 304 q 276 276 265 293 q 296 251 286 260 q 335 231 314 239 q 378 224 357 224 q 422 231 400 224 q 461 251 443 239 q 483 276 472 263 q 497 304 493 289 l 497 846 q 528 925 497 892 q 604 958 560 958 q 680 925 649 958 q 711 846 711 892 l 711 289 q 711 276 711 282 q 710 263 711 269 l 710 265 q 667 158 699 207 q 589 72 636 108 q 490 18 544 36 q 378 0 436 0 m 378 25 q 482 42 431 25 q 575 92 533 60 q 646 172 617 126 q 686 269 675 218 q 688 280 688 276 q 688 289 688 283 l 688 846 q 664 908 688 882 q 604 933 640 933 q 546 908 571 933 q 521 846 521 882 l 521 297 q 503 263 515 279 q 475 232 490 246 q 378 199 433 199 q 328 208 354 199 q 282 232 301 217 q 255 262 267 243 q 236 297 243 281 l 236 846 q 212 908 236 882 q 153 933 188 933 q 94 908 118 933 q 69 846 69 882 l 69 274 q 111 173 82 219 q 182 92 140 126 q 274 42 224 58 q 378 25 325 25 m 378 50 q 283 65 329 50 q 196 113 236 81 q 131 185 157 143 q 94 275 106 226 q 94 282 94 279 q 93 289 93 285 l 93 846 q 110 890 93 872 q 153 908 128 908 q 194 890 178 908 q 211 846 211 872 l 211 296 q 268 211 224 246 q 378 174 317 174 q 489 211 443 174 q 544 296 531 244 l 544 846 q 563 890 544 872 q 604 908 581 908 q 647 890 629 908 q 664 846 664 872 l 664 289 q 663 275 664 281 q 626 185 653 226 q 561 113 600 143 q 475 65 522 81 q 378 50 428 50 m 568 1163 q 576 1152 572 1157 q 581 1142 579 1147 q 583 1124 583 1136 q 578 1106 582 1115 q 572 1090 575 1097 q 510 1038 551 1056 q 500 1033 504 1033 q 493 1033 496 1033 q 476 1036 483 1033 q 411 1090 435 1054 q 401 1124 401 1107 q 404 1142 401 1133 l 403 1142 q 408 1152 404 1147 q 415 1163 411 1157 q 447 1179 428 1175 l 449 1179 q 464 1182 457 1182 q 467 1181 465 1182 q 469 1181 468 1181 l 478 1181 l 493 1175 q 498 1178 496 1178 q 506 1181 500 1179 l 514 1181 q 517 1181 515 1181 q 521 1182 518 1182 q 528 1181 525 1182 q 536 1179 532 1179 q 553 1173 544 1178 q 568 1163 561 1168 m 347 1163 q 355 1152 351 1157 q 360 1142 358 1147 q 361 1124 363 1131 q 358 1106 361 1115 q 351 1090 354 1097 q 289 1038 331 1056 q 278 1033 282 1033 q 271 1033 275 1033 q 256 1036 263 1033 q 190 1090 214 1054 q 181 1124 181 1107 q 181 1135 179 1131 q 183 1142 182 1139 l 182 1142 q 187 1152 183 1147 q 194 1163 190 1157 q 208 1172 201 1168 q 226 1179 215 1176 l 228 1179 q 243 1182 236 1182 q 246 1181 244 1182 q 249 1181 247 1181 l 257 1181 l 271 1175 q 277 1178 275 1178 q 285 1181 279 1179 l 293 1181 q 296 1181 294 1181 q 300 1182 297 1182 q 308 1181 304 1182 q 317 1179 311 1179 q 332 1172 324 1176 q 347 1163 340 1168 m 347 1139 q 338 1157 346 1146 q 326 1164 332 1160 q 313 1169 319 1168 l 314 1168 q 306 1171 310 1169 q 300 1172 303 1172 q 296 1172 297 1172 q 293 1171 294 1171 l 289 1171 l 271 1164 q 267 1165 269 1164 q 261 1168 264 1167 l 253 1171 l 249 1171 q 246 1172 247 1171 q 243 1172 244 1172 q 236 1171 240 1172 q 229 1168 232 1169 l 229 1169 q 215 1164 222 1168 q 204 1157 208 1160 q 194 1139 196 1146 q 193 1122 192 1129 q 201 1094 193 1108 q 261 1046 224 1060 q 271 1043 267 1043 q 282 1046 279 1043 q 340 1094 322 1064 q 346 1108 343 1101 q 350 1122 349 1115 q 347 1139 351 1129 m 568 1139 q 558 1157 567 1146 q 547 1164 553 1160 q 533 1169 540 1168 l 535 1168 q 527 1171 531 1169 q 521 1172 524 1172 q 517 1172 518 1172 q 514 1171 515 1171 l 510 1171 q 500 1167 504 1168 q 493 1164 496 1167 q 488 1165 490 1164 q 482 1168 485 1167 l 474 1171 l 469 1171 q 467 1172 468 1171 q 464 1172 465 1172 q 457 1171 461 1172 q 450 1168 453 1169 l 451 1169 q 437 1164 443 1168 q 425 1157 431 1160 q 415 1139 417 1146 q 414 1122 413 1129 q 422 1094 414 1108 q 482 1046 444 1060 q 493 1043 488 1043 q 503 1046 500 1043 q 561 1094 543 1064 q 567 1108 564 1101 q 571 1122 569 1115 q 568 1139 572 1129 m 556 1138 q 558 1124 561 1131 q 556 1112 558 1118 q 550 1099 553 1106 q 496 1054 533 1069 q 493 1053 494 1053 q 488 1054 490 1053 q 433 1099 451 1069 q 426 1124 426 1115 q 428 1138 425 1128 q 435 1150 429 1142 q 453 1160 446 1158 q 464 1161 457 1161 l 474 1161 q 493 1151 485 1157 q 510 1161 499 1157 l 521 1161 q 532 1160 528 1161 q 549 1150 538 1158 q 556 1138 553 1146 m 335 1138 q 338 1124 340 1131 q 335 1112 338 1118 q 329 1099 332 1106 q 275 1054 313 1069 q 271 1053 274 1053 q 267 1054 269 1053 q 213 1099 231 1069 q 206 1124 206 1115 q 207 1138 204 1128 q 214 1150 210 1146 q 232 1160 225 1158 q 243 1161 236 1161 l 253 1161 q 271 1151 267 1156 q 289 1161 279 1158 l 300 1161 q 311 1160 307 1161 q 328 1150 317 1158 q 335 1138 333 1142 z "},"":{"ha":733,"x_min":25,"x_max":708,"o":"m 636 953 q 692 891 676 933 q 693 806 708 849 l 475 265 l 475 114 q 444 35 475 68 q 368 3 413 3 q 292 35 324 3 q 261 114 261 68 l 261 265 l 42 806 q 42 891 25 849 q 99 953 58 933 q 182 953 140 971 q 240 893 224 936 l 368 578 l 494 892 q 554 953 513 935 q 636 953 596 971 m 626 929 q 563 930 594 943 q 517 882 531 917 l 368 511 l 218 882 q 173 928 204 914 q 108 929 142 943 q 63 881 76 914 q 63 815 50 847 l 285 272 l 285 114 q 308 53 285 78 q 368 28 332 28 q 426 53 401 28 q 451 114 451 78 l 451 271 l 669 815 q 669 881 682 849 q 626 929 657 914 m 617 906 q 649 872 639 896 q 649 825 658 849 l 428 276 l 428 114 q 410 70 428 88 q 368 53 392 53 q 326 70 343 53 q 308 114 308 88 l 308 276 l 85 825 q 85 872 76 849 q 118 906 94 896 q 164 907 142 917 q 196 872 186 897 l 368 449 l 538 872 q 571 907 549 897 q 617 906 593 917 m 556 1163 q 563 1152 560 1157 q 568 1142 567 1147 q 571 1124 571 1136 q 566 1106 569 1115 q 560 1090 563 1097 q 497 1038 539 1056 q 488 1033 492 1033 q 481 1033 483 1033 q 464 1036 471 1033 q 399 1090 422 1054 q 389 1124 389 1107 q 392 1142 389 1133 l 390 1142 q 395 1152 392 1147 q 403 1163 399 1157 q 435 1179 415 1175 l 436 1179 q 451 1182 444 1182 q 454 1181 453 1182 q 457 1181 456 1181 l 465 1181 l 481 1175 q 485 1178 483 1178 q 493 1181 488 1179 l 501 1181 q 504 1181 503 1181 q 508 1182 506 1182 q 516 1181 513 1182 q 524 1179 519 1179 q 540 1173 532 1178 q 556 1163 549 1168 m 335 1163 q 342 1152 339 1157 q 347 1142 346 1147 q 349 1124 350 1131 q 345 1106 349 1115 q 339 1090 342 1097 q 276 1038 318 1056 q 266 1033 269 1033 q 258 1033 263 1033 q 243 1036 250 1033 q 178 1090 201 1054 q 168 1124 168 1107 q 168 1135 167 1131 q 171 1142 169 1139 l 169 1142 q 174 1152 171 1147 q 182 1163 178 1157 q 196 1172 189 1168 q 214 1179 203 1176 l 215 1179 q 231 1182 224 1182 q 233 1181 232 1182 q 236 1181 235 1181 l 244 1181 l 258 1175 q 265 1178 263 1178 q 272 1181 267 1179 l 281 1181 q 283 1181 282 1181 q 288 1182 285 1182 q 295 1181 292 1182 q 304 1179 299 1179 q 319 1172 311 1176 q 335 1163 328 1168 m 335 1139 q 325 1157 333 1146 q 313 1164 319 1160 q 300 1169 307 1168 l 301 1168 q 294 1171 297 1169 q 288 1172 290 1172 q 283 1172 285 1172 q 281 1171 282 1171 l 276 1171 l 258 1164 q 254 1165 257 1164 q 249 1168 251 1167 l 240 1171 l 236 1171 q 233 1172 235 1171 q 231 1172 232 1172 q 224 1171 228 1172 q 217 1168 219 1169 l 217 1169 q 203 1164 210 1168 q 192 1157 196 1160 q 182 1139 183 1146 q 181 1122 179 1129 q 189 1094 181 1108 q 249 1046 211 1060 q 258 1043 254 1043 q 269 1046 267 1043 q 328 1094 310 1064 q 333 1108 331 1101 q 338 1122 336 1115 q 335 1139 339 1129 m 556 1139 q 546 1157 554 1146 q 534 1164 540 1160 q 521 1169 528 1168 l 522 1168 q 515 1171 518 1169 q 508 1172 511 1172 q 504 1172 506 1172 q 501 1171 503 1171 l 497 1171 q 488 1167 492 1168 q 481 1164 483 1167 q 475 1165 478 1164 q 469 1168 472 1167 l 461 1171 l 457 1171 q 454 1172 456 1171 q 451 1172 453 1172 q 444 1171 449 1172 q 438 1168 440 1169 l 439 1169 q 424 1164 431 1168 q 413 1157 418 1160 q 403 1139 404 1146 q 401 1122 400 1129 q 410 1094 401 1108 q 469 1046 432 1060 q 481 1043 475 1043 q 490 1046 488 1043 q 549 1094 531 1064 q 554 1108 551 1101 q 558 1122 557 1115 q 556 1139 560 1129 m 543 1138 q 546 1124 549 1131 q 543 1112 546 1118 q 538 1099 540 1106 q 483 1054 521 1069 q 481 1053 482 1053 q 475 1054 478 1053 q 421 1099 439 1069 q 414 1124 414 1115 q 415 1138 413 1128 q 422 1150 417 1142 q 440 1160 433 1158 q 451 1161 444 1161 l 461 1161 q 481 1151 472 1157 q 497 1161 486 1157 l 508 1161 q 519 1160 515 1161 q 536 1150 525 1158 q 543 1138 540 1146 m 322 1138 q 325 1124 328 1131 q 322 1112 325 1118 q 317 1099 319 1106 q 263 1054 300 1069 q 258 1053 261 1053 q 254 1054 257 1053 q 200 1099 218 1069 q 193 1124 193 1115 q 194 1138 192 1128 q 201 1150 197 1146 q 219 1160 213 1158 q 231 1161 224 1161 l 240 1161 q 258 1151 254 1156 q 276 1161 267 1158 l 288 1161 q 299 1160 294 1161 q 315 1150 304 1158 q 322 1138 321 1142 z "},"":{"ha":761,"x_min":47,"x_max":714,"o":"m 607 228 q 683 195 651 228 q 714 115 714 163 q 683 37 714 69 q 607 4 651 4 l 154 4 q 78 37 110 4 q 47 115 47 69 q 78 195 47 163 q 154 228 110 228 l 274 228 l 274 738 l 154 738 q 78 770 110 738 q 47 850 47 803 q 78 929 47 896 q 154 963 110 963 l 607 963 q 683 929 651 963 q 714 850 714 896 q 683 770 714 803 q 607 738 651 738 l 488 738 l 488 228 l 607 228 m 464 203 l 464 763 l 607 763 q 666 788 642 763 q 690 850 690 814 q 666 912 690 886 q 607 938 642 938 l 154 938 q 95 912 119 938 q 71 850 71 886 q 95 788 71 814 q 154 763 119 763 l 297 763 l 297 203 l 154 203 q 95 177 119 203 q 71 115 71 151 q 95 54 71 79 q 154 29 119 29 l 607 29 q 666 54 642 29 q 690 115 690 79 q 666 177 690 151 q 607 203 642 203 l 464 203 m 607 178 q 649 160 632 178 q 667 115 667 142 q 649 72 667 89 q 607 54 632 54 l 154 54 q 112 72 129 54 q 94 115 94 89 q 112 160 94 142 q 154 178 129 178 l 321 178 l 321 788 l 154 788 q 112 806 129 788 q 94 850 94 824 q 112 894 94 875 q 154 913 129 913 l 607 913 q 649 894 632 913 q 667 850 667 875 q 649 806 667 824 q 607 788 632 788 l 440 788 l 440 178 l 607 178 m 567 1163 q 574 1152 571 1157 q 579 1142 578 1147 q 582 1124 582 1136 q 577 1106 581 1115 q 571 1090 574 1097 q 508 1038 550 1056 q 499 1033 503 1033 q 492 1033 494 1033 q 475 1036 482 1033 q 410 1090 433 1054 q 400 1124 400 1107 q 403 1142 400 1133 l 401 1142 q 406 1152 403 1147 q 414 1163 410 1157 q 428 1172 421 1168 q 446 1179 435 1176 l 447 1179 q 463 1182 456 1182 q 465 1181 464 1182 q 468 1181 467 1181 l 476 1181 l 492 1175 q 497 1178 494 1178 q 504 1181 499 1179 l 513 1181 q 515 1181 514 1181 q 519 1182 517 1182 q 528 1181 524 1182 q 536 1179 532 1179 q 551 1172 543 1176 q 567 1163 560 1168 m 346 1163 q 353 1152 350 1157 q 358 1142 357 1147 q 360 1124 361 1131 q 356 1106 360 1115 q 350 1090 353 1097 q 288 1038 329 1056 q 277 1033 281 1033 q 269 1033 274 1033 q 254 1036 261 1033 q 189 1090 213 1054 q 179 1124 179 1107 q 179 1135 178 1131 q 182 1142 181 1139 l 181 1142 q 185 1152 182 1147 q 193 1163 189 1157 q 208 1173 200 1168 q 226 1179 215 1178 q 242 1182 235 1182 q 244 1181 243 1182 q 247 1181 246 1181 l 256 1181 l 269 1175 q 276 1178 274 1178 q 283 1181 278 1179 l 292 1181 q 294 1181 293 1181 q 299 1182 296 1182 q 306 1181 303 1182 q 315 1179 310 1179 q 331 1172 322 1176 q 346 1163 339 1168 m 346 1139 q 336 1157 344 1146 q 324 1164 331 1160 q 311 1169 318 1168 l 313 1168 q 305 1171 308 1169 q 299 1172 301 1172 q 294 1172 296 1172 q 292 1171 293 1171 l 288 1171 l 269 1164 q 265 1165 268 1164 q 260 1168 263 1167 l 251 1171 l 247 1171 q 244 1172 246 1171 q 242 1172 243 1172 q 235 1171 239 1172 q 228 1168 231 1169 l 228 1169 q 214 1164 221 1168 q 203 1157 207 1160 q 193 1139 194 1146 q 192 1122 190 1129 q 200 1094 192 1108 q 260 1046 222 1060 q 269 1043 265 1043 q 281 1046 278 1043 q 339 1094 321 1064 q 344 1108 342 1101 q 349 1122 347 1115 q 346 1139 350 1129 m 567 1139 q 557 1157 565 1146 q 545 1164 551 1160 q 532 1169 539 1168 l 533 1168 q 526 1171 529 1169 q 519 1172 522 1172 q 515 1172 517 1172 q 513 1171 514 1171 l 508 1171 q 499 1167 503 1168 q 492 1164 494 1167 q 486 1165 489 1164 q 481 1168 483 1167 l 472 1171 l 468 1171 q 465 1172 467 1171 q 463 1172 464 1172 q 456 1171 460 1172 q 449 1168 451 1169 l 450 1169 q 435 1164 442 1168 q 424 1157 429 1160 q 414 1139 415 1146 q 413 1122 411 1129 q 421 1094 413 1108 q 481 1046 443 1060 q 492 1043 486 1043 q 501 1046 499 1043 q 560 1094 542 1064 q 565 1108 563 1101 q 569 1122 568 1115 q 567 1139 571 1129 m 554 1138 q 557 1124 560 1131 q 554 1112 557 1118 q 549 1099 551 1106 q 494 1054 532 1069 q 492 1053 493 1053 q 486 1054 489 1053 q 432 1099 450 1069 q 425 1124 425 1115 q 426 1138 424 1128 q 433 1150 428 1142 q 451 1160 444 1158 q 463 1161 456 1161 l 472 1161 q 492 1151 483 1157 q 508 1161 497 1157 l 519 1161 q 531 1160 526 1161 q 547 1150 536 1158 q 554 1138 551 1146 m 333 1138 q 336 1124 339 1131 q 333 1112 336 1118 q 328 1099 331 1106 q 274 1054 311 1069 q 269 1053 272 1053 q 265 1054 268 1053 q 211 1099 229 1069 q 204 1124 204 1115 q 206 1138 203 1128 q 213 1150 208 1146 q 231 1160 224 1158 q 242 1161 235 1161 l 251 1161 q 269 1151 265 1156 q 288 1161 278 1158 l 299 1161 q 310 1160 306 1161 q 326 1150 315 1158 q 333 1138 332 1142 z "},"":{"ha":463,"x_min":31,"x_max":432,"o":"m 333 725 q 293 733 313 725 q 258 757 274 742 l 260 757 l 232 788 l 203 757 q 128 725 175 725 q 96 730 113 725 q 65 746 79 735 q 40 779 49 760 q 31 817 31 799 q 54 876 31 850 l 54 875 l 157 986 l 157 985 q 232 1017 185 1017 q 271 1009 251 1017 q 306 986 290 1001 l 408 875 l 408 876 q 432 817 432 849 q 422 779 432 799 q 397 746 413 760 q 333 725 368 725 m 333 746 q 383 763 360 746 q 403 788 396 774 q 410 817 410 803 q 392 863 410 843 l 289 972 q 232 997 265 997 q 174 972 196 997 l 71 863 q 57 840 63 853 q 51 817 51 828 q 58 788 51 803 q 79 763 65 774 q 103 750 90 754 q 128 746 117 746 q 188 771 163 746 l 231 819 l 276 771 q 303 751 288 757 q 333 746 318 746 m 333 765 q 293 783 307 765 l 232 849 l 169 783 q 133 766 156 768 q 93 778 111 764 q 74 813 76 792 q 86 849 71 833 l 190 960 q 232 976 204 976 q 272 960 257 976 l 375 849 q 388 813 390 833 q 368 778 386 792 q 333 765 353 765 z "},"":{"ha":764,"x_min":28,"x_max":738,"o":"m 724 150 l 485 883 q 444 938 472 917 q 382 958 417 958 q 318 938 346 958 q 279 883 290 917 l 40 149 q 48 63 28 104 q 108 6 68 22 q 143 0 124 0 q 206 21 178 0 q 244 76 233 42 l 272 160 l 493 160 l 519 76 q 541 38 526 54 q 574 11 556 21 q 615 0 593 1 q 657 6 636 -1 q 718 63 699 21 q 724 150 738 106 m 701 140 q 697 74 713 106 q 650 31 682 42 q 585 33 617 18 q 542 83 553 49 l 510 185 l 256 185 l 222 83 q 192 41 214 57 q 143 25 171 25 q 115 31 129 25 q 67 73 83 42 q 63 140 51 104 l 301 875 q 333 917 311 901 q 382 933 354 933 q 431 917 410 933 q 461 875 453 901 l 701 140 m 678 133 l 439 868 q 417 898 432 888 q 382 908 401 908 q 325 868 339 908 l 85 133 q 89 85 78 108 q 124 54 100 63 q 143 50 132 50 q 177 61 163 50 q 199 92 192 72 l 238 210 l 528 210 l 564 92 q 594 56 572 68 q 640 54 617 44 q 675 85 664 63 q 678 133 686 108 m 482 1003 q 442 1011 461 1003 q 407 1035 422 1019 l 408 1035 l 381 1065 l 351 1035 q 276 1003 324 1003 q 244 1008 261 1003 q 214 1024 228 1013 q 188 1057 197 1038 q 179 1094 179 1076 q 203 1154 179 1128 l 203 1153 l 306 1264 l 306 1263 q 381 1294 333 1294 q 419 1287 400 1294 q 454 1264 439 1279 l 557 1153 l 557 1154 q 581 1094 581 1126 q 571 1057 581 1076 q 546 1024 561 1038 q 482 1003 517 1003 m 482 1024 q 532 1040 508 1024 q 551 1066 544 1051 q 558 1094 558 1081 q 540 1140 558 1121 l 438 1250 q 381 1275 414 1275 q 322 1250 344 1275 l 219 1140 q 206 1118 211 1131 q 200 1094 200 1106 q 207 1066 200 1081 q 228 1040 214 1051 q 252 1028 239 1032 q 276 1024 265 1024 q 336 1049 311 1024 l 379 1097 l 425 1049 q 451 1029 436 1035 q 482 1024 467 1024 m 482 1043 q 442 1061 456 1043 l 381 1126 l 318 1061 q 282 1044 304 1046 q 242 1056 260 1042 q 222 1090 225 1069 q 235 1126 219 1111 l 339 1238 q 381 1254 353 1254 q 421 1238 406 1254 l 524 1126 q 537 1090 539 1111 q 517 1056 535 1069 q 482 1043 501 1043 m 278 333 l 382 653 l 486 333 l 278 333 m 453 358 l 382 576 l 311 358 l 453 358 m 344 383 l 382 497 l 419 383 l 344 383 z "},"":{"ha":767,"x_min":50,"x_max":717,"o":"m 610 374 q 685 406 654 374 q 717 485 717 439 q 685 564 717 531 q 610 597 654 597 l 264 597 l 264 740 l 610 740 q 685 773 654 740 q 717 853 717 806 q 685 931 717 899 q 610 964 654 964 l 157 964 q 81 931 113 964 q 50 853 50 899 l 50 118 q 81 38 50 71 q 157 6 113 6 l 610 6 q 685 38 654 6 q 717 118 717 71 q 685 197 717 164 q 610 231 654 231 l 264 231 l 264 374 l 610 374 m 240 399 l 240 206 l 610 206 q 669 180 644 206 q 693 118 693 154 q 669 56 693 82 q 610 31 644 31 l 157 31 q 98 56 122 31 q 74 118 74 82 l 74 853 q 98 915 74 889 q 157 940 122 940 l 610 940 q 669 915 644 940 q 693 853 693 889 q 669 791 693 817 q 610 765 644 765 l 240 765 l 240 572 l 610 572 q 669 547 644 572 q 693 485 693 521 q 669 424 693 449 q 610 399 644 399 l 240 399 m 610 424 q 652 441 635 424 q 669 485 669 458 q 652 529 669 511 q 610 547 635 547 l 217 547 l 217 790 l 610 790 q 652 808 635 790 q 669 853 669 826 q 652 897 669 878 q 610 915 635 915 l 157 915 q 115 897 132 915 q 97 853 97 878 l 97 118 q 115 74 97 92 q 157 56 132 56 l 610 56 q 652 74 635 56 q 669 118 669 92 q 652 162 669 143 q 610 181 635 181 l 217 181 l 217 424 l 610 424 m 483 1003 q 443 1011 463 1003 q 408 1035 424 1019 l 410 1035 l 382 1065 l 353 1035 q 278 1003 325 1003 q 246 1008 263 1003 q 215 1024 229 1013 q 190 1057 199 1038 q 181 1094 181 1076 q 204 1154 181 1128 l 204 1153 l 307 1264 l 307 1263 q 382 1294 335 1294 q 421 1287 401 1294 q 456 1264 440 1279 l 558 1153 l 558 1154 q 582 1094 582 1126 q 572 1057 582 1076 q 547 1024 563 1038 q 483 1003 518 1003 m 483 1024 q 533 1040 510 1024 q 553 1066 546 1051 q 560 1094 560 1081 q 542 1140 560 1121 l 439 1250 q 382 1275 415 1275 q 324 1250 346 1275 l 221 1140 q 207 1118 213 1131 q 201 1094 201 1106 q 208 1066 201 1081 q 229 1040 215 1051 q 253 1028 240 1032 q 278 1024 267 1024 q 338 1049 313 1024 l 381 1097 l 426 1049 q 453 1029 438 1035 q 483 1024 468 1024 m 483 1043 q 443 1061 457 1043 l 382 1126 l 319 1061 q 283 1044 306 1046 q 243 1056 261 1042 q 224 1090 226 1069 q 236 1126 221 1111 l 340 1238 q 382 1254 354 1254 q 422 1238 407 1254 l 525 1126 q 538 1090 540 1111 q 518 1056 536 1069 q 483 1043 503 1043 z "},"":{"ha":761,"x_min":47,"x_max":714,"o":"m 607 228 l 488 228 l 488 738 l 607 738 q 683 770 651 738 q 714 850 714 803 q 683 929 714 896 q 607 963 651 963 l 154 963 q 78 929 110 963 q 47 850 47 896 q 78 770 47 803 q 154 738 110 738 l 274 738 l 274 228 l 154 228 q 78 195 110 228 q 47 115 47 163 q 78 37 47 69 q 154 4 110 4 l 607 4 q 683 37 651 4 q 714 115 714 69 q 683 195 714 163 q 607 228 651 228 m 607 203 q 666 177 642 203 q 690 115 690 151 q 666 54 690 79 q 607 29 642 29 l 154 29 q 95 54 119 29 q 71 115 71 79 q 95 177 71 151 q 154 203 119 203 l 297 203 l 297 763 l 154 763 q 95 788 119 763 q 71 850 71 814 q 95 912 71 886 q 154 938 119 938 l 607 938 q 666 912 642 938 q 690 850 690 886 q 666 788 690 814 q 607 763 642 763 l 464 763 l 464 203 l 607 203 m 607 178 l 440 178 l 440 788 l 607 788 q 649 806 632 788 q 667 850 667 824 q 649 894 667 875 q 607 913 632 913 l 154 913 q 112 894 129 913 q 94 850 94 875 q 112 806 94 824 q 154 788 129 788 l 321 788 l 321 178 l 154 178 q 112 160 129 178 q 94 115 94 142 q 112 72 94 89 q 154 54 129 54 l 607 54 q 649 72 632 54 q 667 115 667 89 q 649 160 667 142 q 607 178 632 178 m 481 1003 q 440 1011 460 1003 q 406 1035 421 1019 l 407 1035 l 379 1065 l 350 1035 q 275 1003 322 1003 q 243 1008 260 1003 q 213 1024 226 1013 q 187 1057 196 1038 q 178 1094 178 1076 q 201 1154 178 1128 l 201 1153 l 304 1264 l 304 1263 q 379 1294 332 1294 q 418 1287 399 1294 q 453 1264 438 1279 l 556 1153 l 556 1154 q 579 1094 579 1126 q 569 1057 579 1076 q 544 1024 560 1038 q 481 1003 515 1003 m 481 1024 q 531 1040 507 1024 q 550 1066 543 1051 q 557 1094 557 1081 q 539 1140 557 1121 l 436 1250 q 379 1275 413 1275 q 321 1250 343 1275 l 218 1140 q 204 1118 210 1131 q 199 1094 199 1106 q 206 1066 199 1081 q 226 1040 213 1051 q 251 1028 238 1032 q 275 1024 264 1024 q 335 1049 310 1024 l 378 1097 l 424 1049 q 450 1029 435 1035 q 481 1024 465 1024 m 481 1043 q 440 1061 454 1043 l 379 1126 l 317 1061 q 281 1044 303 1046 q 240 1056 258 1042 q 221 1090 224 1069 q 233 1126 218 1111 l 338 1238 q 379 1254 351 1254 q 419 1238 404 1254 l 522 1126 q 535 1090 538 1111 q 515 1056 533 1069 q 481 1043 500 1043 z "},"":{"ha":1038,"x_min":32,"x_max":1006,"o":"m 990 735 q 928 854 971 803 q 864 910 900 886 q 790 947 828 933 q 745 958 767 954 q 701 961 724 961 q 621 950 663 961 q 567 928 593 942 q 518 897 540 914 q 470 928 496 914 q 417 950 444 942 q 336 961 372 961 q 292 958 314 961 q 247 947 271 954 q 173 910 210 933 q 108 854 136 886 q 46 733 65 803 q 35 672 39 706 q 33 608 32 639 q 52 505 36 560 q 94 396 68 450 q 165 282 124 338 q 254 177 206 226 q 357 87 303 128 q 468 15 411 46 q 493 6 481 8 q 519 3 506 3 q 572 17 550 3 l 569 15 q 785 175 688 75 q 943 396 882 275 q 985 505 969 450 q 1004 608 1001 560 q 1001 672 1006 638 q 990 735 997 707 m 967 728 q 977 670 974 701 q 979 611 981 639 q 962 512 976 563 q 921 407 947 461 q 769 192 861 286 q 558 38 676 97 l 560 39 q 540 30 550 32 q 519 28 529 28 q 499 30 510 28 q 478 39 489 32 l 479 38 q 269 192 361 97 q 117 407 176 286 q 75 511 89 460 q 58 611 61 563 q 60 669 57 639 q 71 726 64 700 q 94 787 81 758 q 128 839 108 815 q 187 889 153 867 q 256 924 221 911 q 336 936 294 936 q 410 926 376 936 q 469 901 442 915 q 519 865 496 888 q 628 926 565 907 q 701 936 661 936 q 782 924 742 936 q 852 889 818 911 q 910 839 886 867 q 943 788 929 815 q 967 728 957 760 m 943 721 q 892 822 925 782 q 775 900 842 879 q 701 911 738 911 q 636 903 667 911 q 519 829 565 882 q 403 903 471 882 q 336 911 369 911 q 263 900 300 911 q 147 822 196 879 q 94 721 111 781 q 84 668 88 696 q 83 613 81 640 q 99 519 86 567 q 139 418 113 471 q 288 210 197 301 q 490 60 378 118 q 519 53 503 53 q 547 60 535 53 q 750 210 660 118 q 899 418 840 301 q 954 613 950 521 q 943 721 958 668 m 831 618 q 786 474 826 551 q 674 308 742 382 q 519 186 606 235 q 364 308 432 235 q 251 474 296 382 q 208 618 210 554 q 215 687 206 654 q 243 743 224 719 q 269 766 254 757 q 300 782 285 775 q 336 786 318 786 q 368 782 351 786 q 428 746 401 772 q 447 715 439 731 q 457 681 454 699 q 478 644 461 658 q 519 629 496 629 q 560 644 543 629 q 581 681 576 658 q 611 746 586 715 q 669 782 635 771 q 701 786 686 786 q 738 782 721 786 q 768 766 753 775 q 794 743 783 757 q 823 687 814 719 q 831 618 832 654 m 806 619 q 776 726 808 686 q 756 745 768 738 q 729 758 743 753 l 731 758 q 716 761 724 761 q 701 761 708 761 q 689 761 694 761 q 676 758 683 761 q 629 728 649 749 l 631 731 q 606 676 611 704 q 576 624 600 644 q 519 604 551 604 q 463 624 488 604 q 432 676 439 644 q 423 705 429 692 q 407 731 417 718 l 408 728 q 361 758 388 750 q 349 761 354 761 q 336 761 343 761 q 322 761 329 761 q 307 758 315 761 l 308 758 q 282 745 294 753 q 261 726 269 738 l 263 728 q 233 619 229 686 q 244 556 235 590 q 274 485 254 522 q 378 331 315 400 q 519 214 442 263 q 660 331 597 263 q 764 485 722 400 q 793 556 783 522 q 806 619 803 590 m 781 621 q 742 494 776 567 q 521 244 665 338 q 391 354 450 290 q 296 494 332 418 q 258 621 260 568 q 263 671 257 647 q 281 711 268 694 q 297 725 288 719 q 317 735 306 731 l 314 735 q 324 736 318 736 q 336 736 329 736 q 343 736 339 736 q 354 733 347 736 q 392 713 376 726 q 407 672 403 694 q 446 606 414 632 q 519 579 478 579 q 591 606 560 579 q 629 672 622 632 q 637 694 632 683 q 649 714 642 706 q 666 727 657 722 q 685 735 675 732 q 692 736 688 736 q 701 736 697 736 q 713 736 707 736 q 721 735 718 736 q 740 724 731 731 q 757 711 750 718 q 775 672 768 694 q 781 621 782 649 m 619 1003 q 579 1011 599 1003 q 544 1035 560 1019 l 546 1035 l 518 1065 l 489 1035 q 414 1003 461 1003 q 382 1008 399 1003 q 351 1024 365 1013 q 326 1057 335 1038 q 317 1094 317 1076 q 340 1154 317 1128 l 340 1153 l 443 1264 l 443 1263 q 518 1294 471 1294 q 557 1287 538 1294 q 592 1264 576 1279 l 694 1153 l 694 1154 q 718 1094 718 1126 q 708 1057 718 1076 q 683 1024 699 1038 q 619 1003 654 1003 m 619 1024 q 669 1040 646 1024 q 689 1066 682 1051 q 696 1094 696 1081 q 678 1140 696 1121 l 575 1250 q 518 1275 551 1275 q 460 1250 482 1275 l 357 1140 q 343 1118 349 1131 q 338 1094 338 1106 q 344 1066 338 1081 q 365 1040 351 1051 q 390 1028 376 1032 q 414 1024 403 1024 q 474 1049 449 1024 l 517 1097 l 563 1049 q 589 1029 574 1035 q 619 1024 604 1024 m 619 1043 q 579 1061 593 1043 l 518 1126 l 456 1061 q 419 1044 442 1046 q 379 1056 397 1042 q 360 1090 363 1069 q 372 1126 357 1111 l 476 1238 q 518 1254 490 1254 q 558 1238 543 1254 l 661 1126 q 674 1090 676 1111 q 654 1056 672 1069 q 619 1043 639 1043 z "},"":{"ha":757,"x_min":44,"x_max":711,"o":"m 378 0 q 267 18 321 0 q 168 72 213 36 q 90 160 121 108 q 46 269 58 211 q 45 275 46 271 q 44 282 44 279 l 44 846 q 53 889 44 868 q 77 925 63 910 q 111 949 92 940 q 153 958 131 958 q 228 925 197 958 q 260 846 260 892 l 260 304 q 276 276 265 293 q 296 251 286 260 q 335 231 314 239 q 378 224 357 224 q 422 231 400 224 q 461 251 443 239 q 483 276 472 263 q 497 304 493 289 l 497 846 q 528 925 497 892 q 604 958 560 958 q 680 925 649 958 q 711 846 711 892 l 711 289 q 711 276 711 282 q 710 263 711 269 l 710 265 q 667 158 699 207 q 589 72 636 108 q 490 18 544 36 q 378 0 436 0 m 378 25 q 482 42 431 25 q 575 92 533 60 q 646 172 617 126 q 686 269 675 218 q 688 280 688 276 q 688 289 688 283 l 688 846 q 664 908 688 882 q 604 933 640 933 q 546 908 571 933 q 521 846 521 882 l 521 297 q 503 263 515 279 q 475 232 490 246 q 378 199 433 199 q 328 208 354 199 q 282 232 301 217 q 255 262 267 243 q 236 297 243 281 l 236 846 q 212 908 236 882 q 153 933 188 933 q 94 908 118 933 q 69 846 69 882 l 69 274 q 111 173 82 219 q 182 92 140 126 q 274 42 224 58 q 378 25 325 25 m 378 50 q 283 65 329 50 q 196 113 236 81 q 131 185 157 143 q 94 275 106 226 q 94 282 94 279 q 93 289 93 285 l 93 846 q 110 890 93 872 q 153 908 128 908 q 194 890 178 908 q 211 846 211 872 l 211 296 q 268 211 224 246 q 378 174 317 174 q 489 211 443 174 q 544 296 531 244 l 544 846 q 563 890 544 872 q 604 908 581 908 q 647 890 629 908 q 664 846 664 872 l 664 289 q 663 275 664 281 q 626 185 653 226 q 561 113 600 143 q 475 65 522 81 q 378 50 428 50 m 481 1003 q 440 1011 460 1003 q 406 1035 421 1019 l 407 1035 l 379 1065 l 350 1035 q 275 1003 322 1003 q 243 1008 260 1003 q 213 1024 226 1013 q 187 1057 196 1038 q 178 1094 178 1076 q 201 1154 178 1128 l 201 1153 l 304 1264 l 304 1263 q 379 1294 332 1294 q 418 1287 399 1294 q 453 1264 438 1279 l 556 1153 l 556 1154 q 579 1094 579 1126 q 569 1057 579 1076 q 544 1024 560 1038 q 481 1003 515 1003 m 481 1024 q 531 1040 507 1024 q 550 1066 543 1051 q 557 1094 557 1081 q 539 1140 557 1121 l 436 1250 q 379 1275 413 1275 q 321 1250 343 1275 l 218 1140 q 204 1118 210 1131 q 199 1094 199 1106 q 206 1066 199 1081 q 226 1040 213 1051 q 251 1028 238 1032 q 275 1024 264 1024 q 335 1049 310 1024 l 378 1097 l 424 1049 q 450 1029 435 1035 q 481 1024 465 1024 m 481 1043 q 440 1061 454 1043 l 379 1126 l 317 1061 q 281 1044 303 1046 q 240 1056 258 1042 q 221 1090 224 1069 q 233 1126 218 1111 l 338 1238 q 379 1254 351 1254 q 419 1238 404 1254 l 522 1126 q 535 1090 538 1111 q 515 1056 533 1069 q 481 1043 500 1043 z "},"":{"ha":463,"x_min":31,"x_max":432,"o":"m 333 1017 q 397 996 368 1017 q 422 963 413 982 q 432 925 432 943 q 408 865 432 893 l 408 867 l 306 756 q 271 733 290 740 q 232 725 251 725 q 157 757 185 725 l 157 756 l 54 867 l 54 865 q 31 925 31 892 q 40 963 31 943 q 65 996 49 982 q 96 1012 79 1007 q 128 1017 113 1017 q 203 985 175 1017 l 232 954 l 260 985 l 258 985 q 293 1008 274 1000 q 333 1017 313 1017 m 333 996 q 303 990 318 996 q 276 971 288 985 l 231 922 l 188 971 q 128 996 163 996 q 103 992 117 996 q 79 979 90 988 q 58 953 65 968 q 51 925 51 939 q 57 901 51 914 q 71 879 63 889 l 174 769 q 232 744 196 744 q 289 769 265 744 l 392 879 q 410 925 410 899 q 403 953 410 939 q 383 979 396 968 q 333 996 360 996 m 333 976 q 368 964 353 976 q 388 929 386 950 q 375 893 390 908 l 272 782 q 232 765 257 765 q 190 782 204 765 l 86 893 q 74 929 71 908 q 93 964 76 950 q 133 976 111 978 q 169 958 156 974 l 232 893 l 293 958 q 333 976 307 976 z "},"":{"ha":750,"x_min":31,"x_max":704,"o":"m 535 254 q 482 232 510 239 q 426 229 454 225 q 371 247 397 232 q 321 283 344 261 q 253 411 272 335 q 244 483 244 449 q 247 526 244 504 q 256 567 249 547 q 302 661 271 619 q 376 724 333 703 q 444 738 406 738 q 491 731 468 738 q 535 711 514 725 q 615 699 572 688 q 682 750 658 710 q 696 792 693 771 q 694 835 699 814 q 676 874 689 856 q 646 904 664 892 q 444 963 551 963 q 364 954 404 963 q 285 926 324 946 q 140 808 203 886 q 50 629 78 729 q 31 485 31 556 q 44 356 31 415 q 94 229 61 290 q 172 122 128 168 q 278 46 218 76 q 400 6 338 15 q 420 5 410 6 q 444 4 431 4 q 549 19 497 4 q 646 63 600 33 q 693 131 682 88 q 682 215 704 175 q 615 267 657 256 q 535 256 572 279 l 535 254 m 547 233 q 609 244 576 253 q 661 203 642 235 q 670 138 679 172 q 633 83 661 103 q 542 42 590 56 q 444 29 493 29 q 422 30 432 29 q 401 31 413 31 q 288 67 343 39 q 189 140 233 94 q 114 242 144 185 q 68 363 83 299 q 58 424 61 393 q 54 485 54 454 q 58 556 54 521 q 74 624 63 590 q 158 792 100 718 q 296 904 217 865 q 444 938 367 938 q 633 882 546 938 q 670 828 661 864 q 661 761 679 793 q 609 723 642 732 q 546 733 576 714 q 444 763 500 763 q 405 759 425 763 q 365 746 385 756 q 285 678 319 724 q 233 574 250 633 q 221 483 221 532 q 229 404 221 442 q 258 328 240 364 q 304 265 276 293 q 422 204 354 213 q 547 233 490 196 m 560 211 q 419 179 493 171 q 349 202 383 185 q 288 247 315 219 q 239 315 260 276 q 207 399 218 354 q 197 490 196 443 q 210 582 197 538 q 267 694 229 644 q 356 768 304 744 q 458 788 404 792 q 560 754 513 785 q 604 748 581 742 q 642 775 628 754 q 648 824 654 799 q 621 861 642 849 q 465 913 549 907 q 306 882 382 918 q 176 776 232 846 q 96 617 121 706 q 92 368 61 494 q 135 253 106 307 q 206 158 165 199 q 298 90 246 115 q 406 56 350 64 q 425 54 415 54 q 444 54 435 54 q 535 67 490 54 q 621 104 581 79 q 648 144 642 119 q 642 190 654 168 q 604 219 628 214 q 560 211 581 225 m 475 1003 q 435 1011 454 1003 q 400 1035 415 1019 l 401 1035 l 374 1065 l 344 1035 q 269 1003 317 1003 q 238 1008 254 1003 q 207 1024 221 1013 q 181 1057 190 1038 q 172 1094 172 1076 q 196 1154 172 1128 l 196 1153 l 299 1264 l 299 1263 q 374 1294 326 1294 q 413 1287 393 1294 q 447 1264 432 1279 l 550 1153 l 550 1154 q 574 1094 574 1126 q 564 1057 574 1076 q 539 1024 554 1038 q 475 1003 510 1003 m 475 1024 q 525 1040 501 1024 q 544 1066 538 1051 q 551 1094 551 1081 q 533 1140 551 1121 l 431 1250 q 374 1275 407 1275 q 315 1250 338 1275 l 213 1140 q 199 1118 204 1131 q 193 1094 193 1106 q 200 1066 193 1081 q 221 1040 207 1051 q 245 1028 232 1032 q 269 1024 258 1024 q 329 1049 304 1024 l 372 1097 l 418 1049 q 444 1029 429 1035 q 475 1024 460 1024 m 475 1043 q 435 1061 449 1043 l 374 1126 l 311 1061 q 275 1044 297 1046 q 235 1056 253 1042 q 215 1090 218 1069 q 228 1126 213 1111 l 332 1238 q 374 1254 346 1254 q 414 1238 399 1254 l 517 1126 q 530 1090 532 1111 q 510 1056 528 1069 q 475 1043 494 1043 z "},"":{"ha":756,"x_min":31,"x_max":699,"o":"m 590 508 l 433 508 q 358 476 389 508 q 326 396 326 443 q 358 316 326 349 q 433 283 389 283 l 483 283 l 483 228 q 454 223 468 224 q 426 224 440 222 q 321 279 368 232 q 253 406 272 328 q 244 478 244 443 q 247 521 244 500 q 256 561 249 542 q 302 656 271 614 q 376 718 333 697 q 444 733 410 733 q 491 727 468 733 q 535 706 514 721 q 615 693 572 682 q 682 744 658 704 q 696 788 693 765 q 694 831 699 810 q 676 869 689 851 q 646 899 664 888 q 549 942 600 928 q 444 957 497 957 q 364 949 404 957 q 285 921 324 940 q 140 803 203 881 q 50 625 78 725 q 31 479 31 550 q 34 415 31 447 q 44 351 38 382 q 94 224 61 285 q 172 117 128 163 q 278 40 218 71 q 400 1 338 10 q 420 -1 410 0 q 444 -1 431 -1 q 549 13 497 -1 q 646 57 600 28 q 683 99 669 72 q 697 153 697 125 l 697 396 q 666 476 697 443 q 590 508 635 508 m 590 483 q 649 458 624 483 q 674 396 674 432 l 674 153 q 663 111 674 132 q 633 78 653 90 q 542 37 590 50 q 444 24 493 24 q 422 24 432 24 q 401 26 413 25 q 288 62 343 33 q 189 136 233 90 q 114 237 144 181 q 68 357 83 293 q 58 419 61 389 q 54 479 54 449 q 58 550 54 515 q 74 618 63 585 q 158 786 100 713 q 296 899 217 860 q 444 932 367 932 q 542 919 493 932 q 633 878 590 906 q 670 824 661 858 q 661 757 679 789 q 609 717 642 726 q 546 728 576 708 q 497 751 522 743 q 444 758 471 758 q 365 740 401 758 q 285 674 319 719 q 233 569 250 628 q 221 478 221 525 q 229 400 221 438 q 258 323 240 358 q 304 260 276 288 q 359 219 328 235 q 422 199 390 204 l 424 199 q 507 208 467 194 l 507 308 l 433 308 q 374 334 399 308 q 350 396 350 360 q 374 458 350 432 q 433 483 399 483 l 590 483 m 590 458 l 433 458 q 392 440 410 458 q 374 396 374 422 q 392 351 374 369 q 433 333 410 333 l 531 333 l 531 192 q 419 174 478 167 q 288 243 346 185 q 239 310 260 272 q 207 393 218 349 q 197 485 196 438 q 210 576 197 532 q 267 690 229 640 q 356 763 304 739 q 458 783 404 786 q 560 750 513 779 q 604 742 581 736 q 642 771 628 749 q 648 818 654 793 q 621 857 642 843 q 465 908 549 903 q 306 876 382 913 q 176 770 232 840 q 96 611 121 700 q 78 489 79 553 q 92 364 76 425 q 135 248 106 301 q 206 153 165 194 q 298 85 246 111 q 406 51 350 58 q 425 49 415 50 q 444 49 435 49 q 621 100 539 49 q 650 153 650 118 l 650 396 q 632 440 650 422 q 590 458 614 458 m 478 1003 q 438 1011 457 1003 q 403 1035 418 1019 l 404 1035 l 376 1065 l 347 1035 q 272 1003 319 1003 q 240 1008 257 1003 q 210 1024 224 1013 q 184 1057 193 1038 q 175 1094 175 1076 q 199 1154 175 1128 l 199 1153 l 301 1264 l 301 1263 q 376 1294 329 1294 q 415 1287 396 1294 q 450 1264 435 1279 l 553 1153 l 553 1154 q 576 1094 576 1126 q 567 1057 576 1076 q 542 1024 557 1038 q 478 1003 513 1003 m 478 1024 q 528 1040 504 1024 q 547 1066 540 1051 q 554 1094 554 1081 q 536 1140 554 1121 l 433 1250 q 376 1275 410 1275 q 318 1250 340 1275 l 215 1140 q 201 1118 207 1131 q 196 1094 196 1106 q 203 1066 196 1081 q 224 1040 210 1051 q 248 1028 235 1032 q 272 1024 261 1024 q 332 1049 307 1024 l 375 1097 l 421 1049 q 447 1029 432 1035 q 478 1024 463 1024 m 478 1043 q 438 1061 451 1043 l 376 1126 l 314 1061 q 278 1044 300 1046 q 238 1056 256 1042 q 218 1090 221 1069 q 231 1126 215 1111 l 335 1238 q 376 1254 349 1254 q 417 1238 401 1254 l 519 1126 q 533 1090 535 1111 q 513 1056 531 1069 q 478 1043 497 1043 z "},"":{"ha":767,"x_min":50,"x_max":717,"o":"m 610 960 q 534 927 565 960 q 503 847 503 894 l 503 593 l 264 593 l 264 847 q 233 927 264 894 q 157 960 201 960 q 81 927 113 960 q 50 847 50 894 l 50 114 q 81 34 50 67 q 157 1 113 1 q 233 34 201 1 q 264 114 264 67 l 264 368 l 503 368 l 503 114 q 534 34 503 67 q 610 1 565 1 q 685 34 654 1 q 717 114 717 67 l 717 847 q 685 927 717 894 q 610 960 654 960 m 610 935 q 668 909 643 935 q 693 847 693 883 l 693 114 q 668 52 693 78 q 610 26 643 26 q 550 52 574 26 q 526 114 526 78 l 526 393 l 240 393 l 240 114 q 216 52 240 78 q 157 26 192 26 q 98 52 122 26 q 74 114 74 78 l 74 847 q 98 909 74 883 q 157 935 122 935 q 216 909 192 935 q 240 847 240 883 l 240 568 l 526 568 l 526 847 q 550 909 526 883 q 610 935 574 935 m 610 910 q 567 892 585 910 q 550 847 550 874 l 550 543 l 217 543 l 217 847 q 199 892 217 874 q 157 910 181 910 q 115 892 132 910 q 97 847 97 874 l 97 114 q 115 69 97 86 q 157 51 132 51 q 199 69 181 51 q 217 114 217 86 l 217 418 l 550 418 l 550 114 q 567 69 550 86 q 610 51 585 51 q 651 69 633 51 q 669 114 669 86 l 669 847 q 651 892 669 874 q 610 910 633 910 m 483 1003 q 443 1011 463 1003 q 408 1035 424 1019 l 410 1035 l 382 1065 l 353 1035 q 278 1003 325 1003 q 246 1008 263 1003 q 215 1024 229 1013 q 190 1057 199 1038 q 181 1094 181 1076 q 204 1154 181 1128 l 204 1153 l 307 1264 l 307 1263 q 382 1294 335 1294 q 421 1287 401 1294 q 456 1264 440 1279 l 558 1153 l 558 1154 q 582 1094 582 1126 q 572 1057 582 1076 q 547 1024 563 1038 q 483 1003 518 1003 m 483 1024 q 533 1040 510 1024 q 553 1066 546 1051 q 560 1094 560 1081 q 542 1140 560 1121 l 439 1250 q 382 1275 415 1275 q 324 1250 346 1275 l 221 1140 q 207 1118 213 1131 q 201 1094 201 1106 q 208 1066 201 1081 q 229 1040 215 1051 q 253 1028 240 1032 q 278 1024 267 1024 q 338 1049 313 1024 l 381 1097 l 426 1049 q 453 1029 438 1035 q 483 1024 468 1024 m 483 1043 q 443 1061 457 1043 l 382 1126 l 319 1061 q 283 1044 306 1046 q 243 1056 261 1042 q 224 1090 226 1069 q 236 1126 221 1111 l 340 1238 q 382 1254 354 1254 q 422 1238 407 1254 l 525 1126 q 538 1090 540 1111 q 518 1056 536 1069 q 483 1043 503 1043 z "},"":{"ha":736,"x_min":43,"x_max":689,"o":"m 372 1 q 226 31 297 1 q 149 73 185 47 q 90 129 114 99 q 73 151 79 142 q 60 172 67 161 q 46 215 49 193 q 49 257 43 236 q 67 296 54 278 q 99 326 79 314 q 178 333 135 347 q 244 283 221 319 q 251 274 246 279 q 303 238 272 250 q 383 225 339 222 q 422 232 403 226 q 457 246 442 238 q 467 251 460 247 q 476 257 474 256 l 476 736 l 213 736 q 138 768 168 736 q 107 847 107 800 q 138 926 107 893 q 213 960 168 960 l 582 960 q 658 926 626 960 q 689 847 689 893 l 689 214 q 669 150 689 178 q 557 47 631 89 q 479 15 521 26 q 393 1 438 4 l 372 1 m 372 26 l 392 26 q 546 68 478 31 q 604 110 578 86 q 650 163 631 135 q 665 214 665 185 l 665 847 q 642 909 665 883 q 582 935 618 935 l 213 935 q 155 909 179 935 q 131 847 131 883 q 155 786 131 811 q 213 761 179 761 l 500 761 l 500 246 q 486 235 493 239 q 468 224 479 231 q 385 200 432 203 q 339 202 361 197 q 294 215 317 207 q 261 234 278 222 q 235 257 244 246 l 224 272 q 175 314 208 304 q 111 304 142 324 q 72 251 81 285 q 82 186 64 218 q 94 165 88 176 q 108 146 101 154 q 165 92 132 118 q 235 53 199 67 q 372 26 300 26 m 372 51 q 243 76 303 51 q 178 112 207 90 q 126 161 149 133 q 113 180 119 171 q 101 197 107 189 q 95 245 89 221 q 122 282 101 269 q 168 290 144 296 q 203 260 192 283 q 209 251 206 256 q 217 242 213 246 q 247 213 229 226 q 286 192 265 200 q 386 175 332 172 q 479 201 435 176 q 503 217 493 208 q 524 235 514 225 l 524 785 l 213 785 q 172 803 189 785 q 154 847 154 821 q 172 891 154 872 q 213 910 189 910 l 582 910 q 624 891 607 910 q 642 847 642 872 l 642 214 q 631 178 642 193 q 588 130 613 151 q 535 90 564 108 q 392 51 472 56 l 372 51 m 508 1003 q 468 1011 488 1003 q 433 1035 449 1019 l 435 1035 l 407 1065 l 378 1035 q 303 1003 350 1003 q 271 1008 288 1003 q 240 1024 254 1013 q 215 1057 224 1038 q 206 1094 206 1076 q 229 1154 206 1128 l 229 1153 l 332 1264 l 332 1263 q 407 1294 360 1294 q 446 1287 426 1294 q 481 1264 465 1279 l 583 1153 l 583 1154 q 607 1094 607 1126 q 597 1057 607 1076 q 572 1024 588 1038 q 508 1003 543 1003 m 508 1024 q 558 1040 535 1024 q 578 1066 571 1051 q 585 1094 585 1081 q 567 1140 585 1121 l 464 1250 q 407 1275 440 1275 q 349 1250 371 1275 l 246 1140 q 232 1118 238 1131 q 226 1094 226 1106 q 233 1066 226 1081 q 254 1040 240 1051 q 278 1028 265 1032 q 303 1024 292 1024 q 363 1049 338 1024 l 406 1097 l 451 1049 q 478 1029 463 1035 q 508 1024 493 1024 m 508 1043 q 468 1061 482 1043 l 407 1126 l 344 1061 q 308 1044 331 1046 q 268 1056 286 1042 q 249 1090 251 1069 q 261 1126 246 1111 l 365 1238 q 407 1254 379 1254 q 447 1238 432 1254 l 550 1126 q 563 1090 565 1111 q 543 1056 561 1069 q 508 1043 528 1043 z "},"":{"ha":706,"x_min":39,"x_max":669,"o":"m 617 446 q 499 546 578 501 q 444 570 465 563 q 403 586 422 578 l 379 593 q 339 608 360 600 q 301 625 318 615 q 261 658 274 639 l 261 657 q 256 668 258 663 q 254 681 253 674 q 259 694 256 688 q 267 707 263 701 q 308 732 281 725 q 340 738 324 736 q 372 736 356 739 q 471 676 438 725 l 469 676 q 508 640 485 653 q 558 626 532 626 q 586 631 571 626 q 617 646 601 635 q 651 688 639 663 q 664 739 664 713 q 660 769 664 754 q 646 801 657 785 q 542 906 606 864 q 404 960 479 947 q 378 962 392 961 q 349 963 365 963 q 299 959 324 963 q 247 947 274 956 q 111 861 168 922 q 65 785 83 826 q 42 700 47 744 q 51 609 39 654 q 89 526 63 564 l 89 528 q 206 425 128 468 l 206 426 q 265 399 236 410 q 321 379 293 389 l 319 379 l 332 374 q 369 360 351 367 q 404 344 388 354 q 447 311 436 328 q 453 300 450 306 q 454 288 456 294 q 442 260 453 272 q 399 233 428 242 l 400 235 q 367 228 385 229 q 335 229 350 228 q 280 252 304 236 q 240 292 256 268 q 174 342 217 332 q 93 326 132 351 q 64 296 75 314 q 49 256 53 278 q 47 213 44 235 q 61 171 50 190 q 163 66 99 108 q 301 11 226 24 l 300 11 q 331 6 317 7 q 361 4 346 4 q 412 8 388 4 q 458 18 436 11 q 597 108 539 46 q 644 185 626 143 q 667 271 663 228 q 657 363 669 318 q 617 446 644 408 m 597 432 q 634 355 622 396 q 643 274 646 314 l 643 272 q 623 194 640 233 q 582 125 606 156 q 522 77 557 99 q 451 43 488 56 q 407 33 429 36 q 361 29 385 29 q 304 35 328 29 l 306 35 q 176 86 236 46 q 81 185 117 126 q 70 251 63 215 q 106 306 78 286 q 169 317 136 325 q 221 279 201 310 q 267 232 238 251 q 332 206 296 213 q 407 210 374 201 l 406 210 q 458 243 440 221 q 478 285 475 263 q 465 326 479 307 q 414 367 453 347 q 377 384 394 378 q 340 397 360 390 l 328 403 q 272 422 300 413 q 217 447 244 432 q 108 540 144 488 q 74 617 85 576 q 65 697 63 657 q 86 775 71 738 q 128 843 101 813 q 254 924 181 900 q 301 935 278 932 q 349 938 325 938 q 376 937 364 938 q 401 935 389 936 q 531 885 472 924 q 628 788 590 846 q 640 739 640 763 q 604 665 640 693 q 558 651 582 651 q 519 662 538 651 q 489 690 500 672 q 440 736 471 717 q 376 761 410 756 q 301 757 335 767 q 250 724 272 749 q 231 683 233 704 q 233 663 229 674 q 242 643 236 651 q 292 603 256 624 q 328 585 310 592 q 367 571 347 578 q 374 568 369 568 l 401 560 q 440 545 421 553 q 488 524 460 538 q 597 432 563 483 m 579 417 q 479 501 542 467 q 425 524 451 514 q 372 543 399 533 l 371 543 q 324 560 347 551 q 281 581 301 569 q 222 628 243 600 q 207 685 206 656 q 215 715 208 700 q 232 742 221 729 q 260 765 243 754 q 296 781 276 775 q 379 786 338 794 q 454 758 419 779 q 510 704 489 736 q 547 677 522 682 q 590 686 571 672 q 616 726 611 701 q 607 774 621 751 q 517 863 572 826 q 397 910 463 899 q 261 900 329 919 q 146 828 192 879 q 108 766 122 800 q 89 696 93 732 q 96 624 86 660 q 128 556 106 588 q 228 469 163 504 q 281 444 254 454 q 335 426 308 435 l 336 425 q 383 408 360 417 q 425 389 406 400 q 485 342 467 368 q 501 283 506 313 q 476 226 499 251 q 413 186 453 199 q 328 181 369 175 q 253 211 288 189 q 200 265 219 233 q 163 293 186 288 q 119 285 140 299 q 93 245 99 269 q 101 199 88 221 q 188 108 133 144 q 308 60 243 71 q 361 54 332 54 q 404 58 383 54 q 446 67 425 61 q 510 97 481 78 q 564 143 540 115 q 619 275 613 199 q 612 348 622 311 q 579 417 601 385 m 454 1003 q 414 1011 433 1003 q 379 1035 394 1019 l 381 1035 l 353 1065 l 324 1035 q 249 1003 296 1003 q 217 1008 233 1003 q 186 1024 200 1013 q 160 1057 169 1038 q 151 1094 151 1076 q 175 1154 151 1128 l 175 1153 l 278 1264 l 278 1263 q 353 1294 306 1294 q 392 1287 372 1294 q 426 1264 411 1279 l 529 1153 l 529 1154 q 553 1094 553 1126 q 543 1057 553 1076 q 518 1024 533 1038 q 454 1003 489 1003 m 454 1024 q 504 1040 481 1024 q 524 1066 517 1051 q 531 1094 531 1081 q 513 1140 531 1121 l 410 1250 q 353 1275 386 1275 q 294 1250 317 1275 l 192 1140 q 178 1118 183 1131 q 172 1094 172 1106 q 179 1066 172 1081 q 200 1040 186 1051 q 224 1028 211 1032 q 249 1024 238 1024 q 308 1049 283 1024 l 351 1097 l 397 1049 q 424 1029 408 1035 q 454 1024 439 1024 m 454 1043 q 414 1061 428 1043 l 353 1126 l 290 1061 q 254 1044 276 1046 q 214 1056 232 1042 q 194 1090 197 1069 q 207 1126 192 1111 l 311 1238 q 353 1254 325 1254 q 393 1238 378 1254 l 496 1126 q 509 1090 511 1111 q 489 1056 507 1069 q 454 1043 474 1043 z "},"":{"ha":771,"x_min":49,"x_max":721,"o":"m 158 4 q 104 19 129 4 q 64 61 79 35 q 51 120 49 89 q 69 176 53 151 l 68 176 l 414 738 l 158 738 q 83 770 114 738 q 51 850 51 803 q 83 930 51 897 q 158 963 114 963 l 611 963 q 665 947 640 963 q 706 904 690 932 q 719 845 721 876 q 700 789 717 814 l 701 789 l 357 228 l 611 228 q 687 195 656 228 q 718 115 718 163 q 687 37 718 69 q 611 4 656 4 l 158 4 m 611 29 q 671 54 647 29 q 694 115 694 79 q 671 177 694 151 q 611 203 647 203 l 313 203 l 682 803 q 694 847 693 822 q 683 893 694 872 q 653 925 672 913 q 611 938 635 938 l 158 938 q 99 912 124 938 q 75 850 75 886 q 99 788 75 814 q 158 763 124 763 l 457 763 l 89 163 q 76 119 78 143 q 86 74 75 94 q 117 41 97 53 q 158 29 136 29 l 611 29 m 611 54 l 158 54 q 128 63 143 54 q 106 86 114 71 q 108 150 90 118 l 501 788 l 158 788 q 116 806 133 788 q 99 850 99 824 q 116 894 99 876 q 158 913 133 913 l 611 913 q 664 881 646 913 q 672 848 672 865 q 661 817 671 831 l 268 178 l 611 178 q 653 160 636 178 q 671 115 671 142 q 653 72 671 89 q 611 54 636 54 m 488 1294 q 551 1274 522 1294 q 576 1240 567 1260 q 586 1203 586 1221 q 563 1143 586 1171 l 563 1144 l 460 1033 q 425 1010 444 1018 q 386 1003 406 1003 q 311 1035 339 1003 l 311 1033 l 208 1144 l 208 1143 q 185 1203 185 1169 q 194 1240 185 1221 q 219 1274 203 1260 q 250 1290 233 1285 q 282 1294 267 1294 q 357 1263 329 1294 l 386 1232 l 414 1263 l 413 1263 q 447 1286 428 1278 q 488 1294 467 1294 m 488 1274 q 457 1268 472 1274 q 431 1249 442 1263 l 385 1200 l 342 1249 q 282 1274 317 1274 q 258 1269 271 1274 q 233 1257 244 1265 q 213 1231 219 1246 q 206 1203 206 1217 q 211 1179 206 1192 q 225 1157 217 1167 l 328 1047 q 386 1022 350 1022 q 443 1047 419 1022 l 546 1157 q 564 1203 564 1176 q 557 1231 564 1217 q 538 1257 550 1246 q 488 1274 514 1274 m 488 1254 q 522 1242 507 1254 q 542 1207 540 1228 q 529 1171 544 1186 l 426 1060 q 386 1043 411 1043 q 344 1060 358 1043 l 240 1171 q 228 1207 225 1186 q 247 1242 231 1228 q 288 1253 265 1256 q 324 1236 310 1251 l 386 1171 l 447 1236 q 488 1254 461 1254 z "},"":{"ha":771,"x_min":49,"x_max":721,"o":"m 158 4 q 104 19 129 4 q 64 61 79 35 q 51 120 49 89 q 69 176 53 151 l 68 176 l 414 738 l 158 738 q 83 770 114 738 q 51 850 51 803 q 83 930 51 897 q 158 963 114 963 l 611 963 q 665 947 640 963 q 706 904 690 932 q 719 845 721 876 q 700 789 717 814 l 701 789 l 357 228 l 611 228 q 687 195 656 228 q 718 115 718 163 q 687 37 718 69 q 611 4 656 4 l 158 4 m 611 29 q 671 54 647 29 q 694 115 694 79 q 671 177 694 151 q 611 203 647 203 l 313 203 l 682 803 q 694 847 693 822 q 683 893 694 872 q 653 925 672 913 q 611 938 635 938 l 158 938 q 99 912 124 938 q 75 850 75 886 q 99 788 75 814 q 158 763 124 763 l 457 763 l 89 163 q 76 119 78 143 q 86 74 75 94 q 117 41 97 53 q 158 29 136 29 l 611 29 m 611 54 l 158 54 q 128 63 143 54 q 106 86 114 71 q 108 150 90 118 l 501 788 l 158 788 q 116 806 133 788 q 99 850 99 824 q 116 894 99 876 q 158 913 133 913 l 611 913 q 664 881 646 913 q 672 848 672 865 q 661 817 671 831 l 268 178 l 611 178 q 653 160 636 178 q 671 115 671 142 q 653 72 671 89 q 611 54 636 54 m 488 1294 q 551 1274 522 1294 q 576 1240 567 1260 q 586 1203 586 1221 q 563 1143 586 1171 l 563 1144 l 460 1033 q 425 1010 444 1018 q 386 1003 406 1003 q 311 1035 339 1003 l 311 1033 l 208 1144 l 208 1143 q 185 1203 185 1169 q 194 1240 185 1221 q 219 1274 203 1260 q 250 1290 233 1285 q 282 1294 267 1294 q 357 1263 329 1294 l 386 1232 l 414 1263 l 413 1263 q 447 1286 428 1278 q 488 1294 467 1294 m 488 1274 q 457 1268 472 1274 q 431 1249 442 1263 l 385 1200 l 342 1249 q 282 1274 317 1274 q 258 1269 271 1274 q 233 1257 244 1265 q 213 1231 219 1246 q 206 1203 206 1217 q 211 1179 206 1192 q 225 1157 217 1167 l 328 1047 q 386 1022 350 1022 q 443 1047 419 1022 l 546 1157 q 564 1203 564 1176 q 557 1231 564 1217 q 538 1257 550 1246 q 488 1274 514 1274 m 488 1254 q 522 1242 507 1254 q 542 1207 540 1228 q 529 1171 544 1186 l 426 1060 q 386 1043 411 1043 q 344 1060 358 1043 l 240 1171 q 228 1207 225 1186 q 247 1242 231 1228 q 288 1253 265 1256 q 324 1236 310 1251 l 386 1171 l 447 1236 q 488 1254 461 1254 z "},"":{"ha":764,"x_min":28,"x_max":738,"o":"m 724 150 l 485 883 q 444 938 472 917 q 382 958 417 958 q 318 938 346 958 q 279 883 290 917 l 40 149 q 48 63 28 104 q 108 6 68 22 q 143 0 124 0 q 206 21 178 0 q 244 76 233 42 l 272 160 l 493 160 l 519 76 q 541 38 526 54 q 574 11 556 21 q 615 0 593 1 q 657 6 636 -1 q 718 63 699 21 q 724 150 738 106 m 701 140 q 697 74 713 106 q 650 31 682 42 q 585 33 617 18 q 542 83 553 49 l 510 185 l 256 185 l 222 83 q 192 41 214 57 q 143 25 171 25 q 115 31 129 25 q 67 73 83 42 q 63 140 51 104 l 301 875 q 333 917 311 901 q 382 933 354 933 q 431 917 410 933 q 461 875 453 901 l 701 140 m 678 133 l 439 868 q 417 898 432 888 q 382 908 401 908 q 325 868 339 908 l 85 133 q 89 85 78 108 q 124 54 100 63 q 143 50 132 50 q 177 61 163 50 q 199 92 192 72 l 238 210 l 528 210 l 564 92 q 594 56 572 68 q 640 54 617 44 q 675 85 664 63 q 678 133 686 108 m 482 1003 q 442 1011 461 1003 q 407 1035 422 1019 l 408 1035 l 381 1065 l 351 1035 q 276 1003 324 1003 q 244 1008 261 1003 q 214 1024 228 1013 q 188 1057 197 1038 q 179 1094 179 1076 q 203 1154 179 1128 l 203 1153 l 306 1264 l 306 1263 q 381 1294 333 1294 q 419 1287 400 1294 q 454 1264 439 1279 l 557 1153 l 557 1154 q 581 1094 581 1126 q 571 1057 581 1076 q 546 1024 561 1038 q 482 1003 517 1003 m 482 1024 q 532 1040 508 1024 q 551 1066 544 1051 q 558 1094 558 1081 q 540 1140 558 1121 l 438 1250 q 381 1275 414 1275 q 322 1250 344 1275 l 219 1140 q 206 1118 211 1131 q 200 1094 200 1106 q 207 1066 200 1081 q 228 1040 214 1051 q 252 1028 239 1032 q 276 1024 265 1024 q 336 1049 311 1024 l 379 1097 l 425 1049 q 451 1029 436 1035 q 482 1024 467 1024 m 482 1043 q 442 1061 456 1043 l 381 1126 l 318 1061 q 282 1044 304 1046 q 242 1056 260 1042 q 222 1090 225 1069 q 235 1126 219 1111 l 339 1238 q 381 1254 353 1254 q 421 1238 406 1254 l 524 1126 q 537 1090 539 1111 q 517 1056 535 1069 q 482 1043 501 1043 m 278 333 l 382 653 l 486 333 l 278 333 m 453 358 l 382 576 l 311 358 l 453 358 m 344 383 l 382 497 l 419 383 l 344 383 z "},"":{"ha":764,"x_min":28,"x_max":738,"o":"m 724 150 l 485 883 q 444 938 472 917 q 382 958 417 958 q 318 938 346 958 q 279 883 290 917 l 40 149 q 48 63 28 104 q 108 6 68 22 q 143 0 124 0 q 206 21 178 0 q 244 76 233 42 l 272 160 l 493 160 l 519 76 q 541 38 526 54 q 574 11 556 21 q 615 0 593 1 q 657 6 636 -1 q 718 63 699 21 q 724 150 738 106 m 701 140 q 697 74 713 106 q 650 31 682 42 q 585 33 617 18 q 542 83 553 49 l 510 185 l 256 185 l 222 83 q 192 41 214 57 q 143 25 171 25 q 115 31 129 25 q 67 73 83 42 q 63 140 51 104 l 301 875 q 333 917 311 901 q 382 933 354 933 q 431 917 410 933 q 461 875 453 901 l 701 140 m 678 133 l 439 868 q 417 898 432 888 q 382 908 401 908 q 325 868 339 908 l 85 133 q 89 85 78 108 q 124 54 100 63 q 143 50 132 50 q 177 61 163 50 q 199 92 192 72 l 238 210 l 528 210 l 564 92 q 594 56 572 68 q 640 54 617 44 q 675 85 664 63 q 678 133 686 108 m 433 1011 q 378 1021 406 1011 l 379 1021 q 360 1028 368 1025 q 346 1036 353 1032 q 331 1024 339 1029 q 311 1015 322 1018 q 246 1017 278 1004 q 201 1058 214 1031 l 201 1057 q 192 1090 194 1072 q 196 1122 190 1107 q 236 1176 207 1154 q 304 1206 265 1199 q 344 1206 324 1208 q 383 1197 365 1204 l 382 1199 q 399 1190 390 1194 q 414 1181 407 1186 q 450 1203 431 1197 q 516 1201 485 1213 q 560 1161 547 1189 q 565 1096 575 1125 l 565 1097 q 525 1040 554 1064 q 494 1022 510 1029 q 458 1013 478 1015 q 444 1011 451 1011 q 433 1011 438 1011 m 433 1028 q 444 1028 438 1028 q 454 1029 450 1028 q 485 1038 469 1032 q 511 1053 500 1044 q 531 1074 522 1063 q 543 1100 540 1086 q 540 1154 551 1131 q 507 1185 531 1176 q 458 1186 483 1193 q 418 1154 431 1178 q 374 1181 399 1171 q 341 1189 358 1186 q 307 1189 324 1192 q 276 1180 292 1186 q 250 1164 261 1174 q 230 1144 239 1156 q 218 1118 221 1132 q 221 1064 208 1088 q 256 1034 232 1044 q 303 1032 279 1024 q 342 1064 332 1042 q 361 1050 350 1057 q 388 1036 372 1043 q 433 1028 413 1028 m 278 333 l 382 653 l 486 333 l 278 333 m 433 1046 q 397 1053 415 1046 q 368 1069 379 1060 q 347 1086 357 1078 q 338 1094 343 1090 q 331 1100 333 1099 q 326 1100 326 1100 l 324 1100 l 321 1097 l 321 1094 q 320 1067 328 1079 q 296 1049 313 1054 q 264 1049 279 1043 q 242 1071 249 1056 q 238 1114 231 1090 q 265 1151 244 1136 q 313 1171 288 1167 q 364 1165 338 1175 q 393 1149 382 1158 q 413 1132 404 1139 l 431 1117 l 435 1117 l 438 1119 q 439 1121 439 1119 l 439 1125 q 440 1151 432 1138 q 465 1169 449 1164 q 497 1169 482 1175 q 519 1149 513 1163 q 524 1104 531 1128 q 496 1067 517 1082 q 449 1047 476 1051 q 433 1046 444 1046 m 453 358 l 382 576 l 311 358 l 453 358 m 344 383 l 382 497 l 419 383 l 344 383 z "},"":{"ha":764,"x_min":28,"x_max":738,"o":"m 724 150 q 718 63 738 106 q 657 6 699 21 q 615 0 636 -1 q 574 11 593 1 q 541 38 556 21 q 519 76 526 54 l 493 160 l 272 160 l 244 76 q 206 21 233 42 q 143 0 178 0 q 108 6 124 0 q 48 63 68 22 q 40 149 28 104 l 279 883 q 318 938 290 917 q 382 958 346 958 q 444 938 417 958 q 485 883 472 917 l 724 150 m 461 875 q 431 917 453 901 q 382 933 410 933 q 333 917 354 933 q 301 875 311 901 l 63 140 q 67 73 51 104 q 115 31 83 42 q 143 25 129 25 q 192 41 171 25 q 222 83 214 57 l 256 185 l 510 185 l 542 83 q 585 33 553 49 q 650 31 617 18 q 697 74 682 42 q 701 140 713 106 l 461 875 m 678 133 q 675 85 686 108 q 640 54 664 63 q 594 56 617 44 q 564 92 572 68 l 528 210 l 238 210 l 199 92 q 177 61 192 72 q 143 50 163 50 q 124 54 132 50 q 89 85 100 63 q 85 133 78 108 l 325 868 q 382 908 339 908 q 417 898 401 908 q 439 868 432 888 l 678 133 m 486 333 l 382 653 l 278 333 l 486 333 m 568 1163 q 576 1152 572 1157 q 581 1142 579 1147 q 583 1124 583 1136 q 578 1106 582 1115 q 572 1090 575 1097 q 510 1038 551 1056 q 500 1033 504 1033 q 493 1033 496 1033 q 476 1036 483 1033 q 411 1090 435 1054 q 401 1124 401 1107 q 404 1142 401 1133 l 403 1142 q 408 1152 404 1147 q 415 1163 411 1157 q 430 1173 422 1168 q 449 1179 438 1178 q 464 1182 457 1182 q 467 1181 465 1182 q 469 1181 468 1181 l 478 1181 l 493 1175 q 498 1178 496 1178 q 506 1181 500 1179 l 514 1181 q 517 1181 515 1181 q 521 1182 518 1182 q 528 1181 525 1182 q 536 1179 532 1179 q 553 1173 544 1178 q 568 1163 561 1168 m 347 1163 q 355 1152 351 1157 q 360 1142 358 1147 q 361 1124 363 1131 q 358 1106 361 1115 q 351 1090 354 1097 q 289 1038 331 1056 q 278 1033 282 1033 q 271 1033 275 1033 q 256 1036 263 1033 q 190 1090 214 1054 q 181 1124 181 1107 q 181 1135 179 1131 q 183 1142 182 1139 l 182 1142 q 187 1152 183 1147 q 194 1163 190 1157 q 208 1172 201 1168 q 226 1179 215 1176 l 228 1179 q 243 1182 236 1182 q 246 1181 244 1182 q 249 1181 247 1181 l 257 1181 l 271 1175 q 277 1178 275 1178 q 285 1181 279 1179 l 293 1181 q 296 1181 294 1181 q 300 1182 297 1182 q 308 1181 304 1182 q 315 1179 311 1179 q 332 1173 324 1178 q 347 1163 340 1168 m 311 358 l 382 576 l 453 358 l 311 358 m 347 1139 q 338 1157 346 1146 q 326 1164 332 1160 q 313 1169 319 1168 l 314 1168 q 306 1171 310 1169 q 300 1172 303 1172 q 296 1172 297 1172 q 293 1171 294 1171 l 289 1171 l 271 1164 q 267 1165 269 1164 q 261 1168 264 1167 l 253 1171 l 249 1171 q 246 1172 247 1171 q 243 1172 244 1172 q 236 1171 240 1172 q 229 1168 232 1169 l 229 1169 q 215 1164 222 1168 q 204 1157 208 1160 q 194 1139 196 1146 q 193 1122 192 1129 q 201 1094 193 1108 q 261 1046 224 1060 q 271 1043 267 1043 q 282 1046 279 1043 q 340 1094 322 1064 q 346 1108 343 1101 q 350 1122 349 1115 q 347 1139 351 1129 m 568 1139 q 558 1157 567 1146 q 547 1164 553 1160 q 533 1169 540 1168 l 535 1168 q 527 1171 531 1169 q 521 1172 524 1172 q 517 1172 518 1172 q 514 1171 515 1171 l 510 1171 q 500 1167 504 1168 q 493 1164 496 1167 q 488 1165 490 1164 q 482 1168 485 1167 l 474 1171 l 469 1171 q 467 1172 468 1171 q 464 1172 465 1172 q 457 1171 461 1172 q 450 1168 453 1169 l 451 1169 q 437 1164 443 1168 q 425 1157 431 1160 q 415 1139 417 1146 q 414 1122 413 1129 q 422 1094 414 1108 q 482 1046 444 1060 q 493 1043 488 1043 q 503 1046 500 1043 q 561 1094 543 1064 q 567 1108 564 1101 q 571 1122 569 1115 q 568 1139 572 1129 m 556 1138 q 558 1124 561 1131 q 556 1112 558 1118 q 550 1099 553 1106 q 496 1054 533 1069 q 493 1053 494 1053 q 488 1054 490 1053 q 433 1099 451 1069 q 426 1124 426 1115 q 428 1138 425 1128 q 435 1150 429 1142 q 453 1160 446 1158 q 464 1161 457 1161 l 474 1161 q 493 1151 485 1157 q 510 1161 499 1157 l 521 1161 q 532 1160 528 1161 q 549 1150 538 1158 q 556 1138 553 1146 m 335 1138 q 338 1124 340 1131 q 335 1112 338 1118 q 329 1099 332 1106 q 275 1054 313 1069 q 271 1053 274 1053 q 267 1054 269 1053 q 213 1099 231 1069 q 206 1124 206 1115 q 207 1138 204 1128 q 214 1150 210 1146 q 232 1160 225 1158 q 243 1161 236 1161 l 253 1161 q 271 1151 267 1156 q 289 1161 279 1158 l 300 1161 q 311 1160 307 1161 q 328 1150 317 1158 q 335 1138 333 1142 m 419 383 l 382 497 l 344 383 l 419 383 z "},"`":{"ha":400,"x_min":24,"x_max":375,"o":"m 326 861 q 366 816 357 846 q 360 760 375 786 q 314 725 344 735 q 254 725 283 715 l 88 788 q 38 833 53 801 q 38 897 24 865 q 90 943 53 929 q 163 943 126 957 l 169 939 l 326 861 m 160 922 l 153 925 q 97 925 125 936 q 57 890 69 914 q 57 840 46 865 q 96 804 68 815 l 263 743 q 307 743 285 736 q 342 768 329 750 q 347 810 353 788 q 317 844 340 833 l 160 922 m 151 906 l 307 828 q 326 806 322 821 q 324 778 331 792 q 300 760 315 765 q 269 761 285 756 l 104 822 q 76 847 85 829 q 76 883 68 865 q 105 909 85 901 q 144 908 125 917 q 151 906 146 908 z "},"":{"ha":400,"x_min":25,"x_max":376,"o":"m 231 939 l 238 943 q 310 943 274 957 q 363 897 347 929 q 362 833 376 865 q 313 788 347 801 l 146 725 q 86 725 117 715 q 40 760 56 735 q 34 816 25 786 q 74 861 43 846 l 231 939 m 83 844 q 53 810 60 833 q 58 768 47 788 q 93 743 71 750 q 138 743 115 736 l 304 804 q 343 840 332 815 q 343 890 354 865 q 303 925 331 914 q 247 925 275 936 l 240 922 l 83 844 m 249 906 q 256 908 254 908 q 295 909 275 917 q 324 883 315 901 q 324 847 332 865 q 296 822 315 829 l 131 761 q 100 760 115 756 q 76 778 85 765 q 74 806 69 792 q 93 828 78 821 l 249 906 z "},"":{"ha":661,"x_min":39,"x_max":622,"o":"m 183 968 l 189 975 q 256 998 217 999 q 322 974 296 997 q 343 913 346 949 q 313 854 340 878 l 178 738 q 122 717 154 718 q 67 735 90 717 q 41 786 43 754 q 63 842 39 818 l 183 968 m 460 968 l 465 975 q 533 998 493 999 q 599 974 572 997 q 619 913 622 949 q 589 854 617 878 l 454 738 q 399 717 431 718 q 343 735 367 717 q 317 786 319 754 q 339 842 315 818 l 460 968 m 354 829 q 338 788 336 811 q 357 749 339 764 q 398 737 375 736 q 440 753 421 738 l 575 867 q 599 914 597 886 q 582 961 601 942 q 533 980 563 979 q 481 961 503 981 l 475 956 l 354 829 m 78 829 q 61 788 60 811 q 81 749 63 764 q 122 737 99 736 q 164 753 144 738 l 299 867 q 323 914 321 886 q 306 961 325 942 q 256 980 286 979 q 204 961 226 981 l 199 956 l 78 829 m 213 943 q 218 949 214 947 q 255 963 233 964 q 290 947 276 963 q 302 914 304 933 q 285 881 300 894 l 151 767 q 122 756 138 756 q 94 764 106 756 q 83 790 83 775 q 93 817 82 806 l 213 943 m 489 943 q 494 949 490 947 q 531 963 510 964 q 567 947 553 963 q 578 914 581 933 q 561 881 576 894 l 428 767 q 398 756 414 756 q 371 764 382 756 q 359 790 360 775 q 369 817 358 806 l 489 943 z "},"":{"ha":756,"x_min":44,"x_max":746,"o":"m 378 0 q 267 18 321 0 q 168 72 213 36 q 90 160 121 108 q 46 269 58 211 q 45 275 46 271 q 44 282 44 279 l 44 846 q 53 889 44 868 q 77 925 63 910 q 111 949 92 940 q 153 958 131 958 q 228 925 197 958 q 260 846 260 892 l 260 304 q 276 276 265 293 q 296 251 286 260 q 335 231 314 239 q 378 224 357 224 q 422 231 400 224 q 461 251 443 239 q 483 276 472 263 q 497 304 493 289 l 497 846 q 528 925 497 892 q 604 958 560 958 q 680 925 649 958 q 711 846 711 892 l 711 289 q 711 276 711 282 q 710 263 711 269 l 710 265 q 667 158 699 207 q 589 72 636 108 q 490 18 544 36 q 378 0 436 0 m 378 25 q 482 42 431 25 q 575 92 533 60 q 646 172 617 126 q 686 269 675 218 q 688 280 688 276 q 688 289 688 283 l 688 846 q 664 908 688 882 q 604 933 640 933 q 546 908 571 933 q 521 846 521 882 l 521 297 q 503 263 515 279 q 475 232 490 246 q 378 199 433 199 q 328 208 354 199 q 282 232 301 217 q 255 262 267 243 q 236 297 243 281 l 236 846 q 212 908 236 882 q 153 933 188 933 q 94 908 118 933 q 69 846 69 882 l 69 274 q 111 173 82 219 q 182 92 140 126 q 274 42 224 58 q 378 25 325 25 m 378 50 q 283 65 329 50 q 196 113 236 81 q 131 185 157 143 q 94 275 106 226 q 94 282 94 279 q 93 289 93 285 l 93 846 q 110 890 93 872 q 153 908 128 908 q 194 890 178 908 q 211 846 211 872 l 211 296 q 268 211 224 246 q 378 174 317 174 q 489 211 443 174 q 544 296 531 244 l 544 846 q 563 890 544 872 q 604 908 581 908 q 647 890 629 908 q 664 846 664 872 l 664 289 q 663 275 664 281 q 626 185 653 226 q 561 113 600 143 q 475 65 522 81 q 378 50 428 50 m 307 1246 l 313 1253 q 380 1276 340 1276 q 446 1251 419 1275 q 467 1191 469 1226 q 436 1132 464 1156 l 301 1015 q 246 995 278 996 q 190 1013 214 994 q 165 1064 167 1032 q 186 1119 163 1096 l 307 1246 m 583 1246 l 589 1253 q 656 1276 617 1276 q 722 1251 696 1275 q 743 1191 746 1226 q 713 1132 740 1156 l 578 1015 q 522 995 554 996 q 467 1013 490 994 q 441 1064 443 1032 q 463 1119 439 1096 l 583 1246 m 201 1107 q 185 1065 183 1089 q 204 1026 186 1042 q 245 1015 222 1014 q 288 1031 268 1015 l 422 1144 q 447 1192 444 1164 q 429 1239 449 1219 q 380 1258 410 1257 q 328 1239 350 1258 l 322 1233 l 201 1107 m 478 1107 q 461 1065 460 1089 q 481 1026 463 1042 q 522 1015 499 1014 q 564 1031 544 1015 l 699 1144 q 723 1192 721 1164 q 706 1239 725 1219 q 656 1258 686 1257 q 604 1239 626 1258 l 599 1233 l 478 1107 m 336 1221 q 342 1226 338 1225 q 378 1241 357 1242 q 414 1225 400 1240 q 426 1192 428 1211 q 408 1158 424 1172 l 275 1044 q 245 1033 261 1033 q 218 1042 229 1033 q 206 1068 207 1053 q 217 1094 206 1083 l 336 1221 m 613 1221 q 618 1226 614 1225 q 655 1241 633 1242 q 690 1225 676 1240 q 702 1192 704 1211 q 685 1158 700 1172 l 551 1044 q 522 1033 538 1033 q 494 1042 506 1033 q 483 1068 483 1053 q 493 1094 482 1083 l 613 1221 z "},"":{"ha":1038,"x_min":32,"x_max":1006,"o":"m 990 735 q 928 854 971 803 q 864 910 900 886 q 790 947 828 933 q 745 958 767 954 q 701 961 724 961 q 621 950 663 961 q 567 928 593 942 q 518 897 540 914 q 470 928 496 914 q 417 950 444 942 q 336 961 372 961 q 292 958 314 961 q 247 947 271 954 q 173 910 210 933 q 108 854 136 886 q 46 733 65 803 q 35 672 39 706 q 33 608 32 639 q 52 505 36 560 q 94 396 68 450 q 165 282 124 338 q 254 177 206 226 q 357 87 303 128 q 468 15 411 46 q 493 6 481 8 q 519 3 506 3 q 572 17 550 3 l 569 15 q 785 175 688 75 q 943 396 882 275 q 985 505 969 450 q 1004 608 1001 560 q 1001 672 1006 638 q 990 735 997 707 m 967 728 q 977 670 974 701 q 979 611 981 639 q 962 512 976 563 q 921 407 947 461 q 769 192 861 286 q 558 38 676 97 l 560 39 q 540 30 550 32 q 519 28 529 28 q 499 30 510 28 q 478 39 489 32 l 479 38 q 269 192 361 97 q 117 407 176 286 q 75 511 89 460 q 58 611 61 563 q 60 669 57 639 q 71 726 64 700 q 94 787 81 758 q 128 839 108 815 q 187 889 153 867 q 256 924 221 911 q 336 936 294 936 q 410 926 376 936 q 469 901 442 915 q 519 865 496 888 q 628 926 565 907 q 701 936 661 936 q 782 924 742 936 q 852 889 818 911 q 910 839 886 867 q 943 788 929 815 q 967 728 957 760 m 943 721 q 892 822 925 782 q 775 900 842 879 q 701 911 738 911 q 636 903 667 911 q 519 829 565 882 q 403 903 471 882 q 336 911 369 911 q 263 900 300 911 q 147 822 196 879 q 94 721 111 781 q 84 668 88 696 q 83 613 81 640 q 99 519 86 567 q 139 418 113 471 q 288 210 197 301 q 490 60 378 118 q 519 53 503 53 q 547 60 535 53 q 750 210 660 118 q 899 418 840 301 q 954 613 950 521 q 943 721 958 668 m 831 618 q 786 474 826 551 q 674 308 742 382 q 519 186 606 235 q 364 308 432 235 q 251 474 296 382 q 208 618 210 554 q 215 687 206 654 q 243 743 224 719 q 269 766 254 757 q 300 782 285 775 q 336 786 318 786 q 368 782 351 786 q 428 746 401 772 q 447 715 439 731 q 457 681 454 699 q 478 644 461 658 q 519 629 496 629 q 560 644 543 629 q 581 681 576 658 q 611 746 586 715 q 669 782 635 771 q 701 786 686 786 q 738 782 721 786 q 768 766 753 775 q 794 743 783 757 q 823 687 814 719 q 831 618 832 654 m 806 619 q 776 726 808 686 q 756 745 768 738 q 729 758 743 753 l 731 758 q 716 761 724 761 q 701 761 708 761 q 689 761 694 761 q 676 758 683 761 q 629 728 649 749 l 631 731 q 606 676 611 704 q 576 624 600 644 q 519 604 551 604 q 463 624 488 604 q 432 676 439 644 q 423 705 429 692 q 407 731 417 718 l 408 728 q 361 758 388 750 q 349 761 354 761 q 336 761 343 761 q 322 761 329 761 q 307 758 315 761 l 308 758 q 282 745 294 753 q 261 726 269 738 l 263 728 q 233 619 229 686 q 244 556 235 590 q 274 485 254 522 q 378 331 315 400 q 519 214 442 263 q 660 331 597 263 q 764 485 722 400 q 793 556 783 522 q 806 619 803 590 m 781 621 q 742 494 776 567 q 521 244 665 338 q 391 354 450 290 q 296 494 332 418 q 258 621 260 568 q 263 671 257 647 q 281 711 268 694 q 297 725 288 719 q 317 735 306 731 l 314 735 q 324 736 318 736 q 336 736 329 736 q 343 736 339 736 q 354 733 347 736 q 392 713 376 726 q 407 672 403 694 q 446 606 414 632 q 519 579 478 579 q 591 606 560 579 q 629 672 622 632 q 637 694 632 683 q 649 714 642 706 q 666 727 657 722 q 685 735 675 732 q 692 736 688 736 q 701 736 697 736 q 713 736 707 736 q 721 735 718 736 q 740 724 731 731 q 757 711 750 718 q 775 672 768 694 q 781 621 782 649 m 726 1246 l 732 1253 q 799 1276 760 1276 q 865 1251 839 1275 q 886 1191 889 1226 q 856 1132 883 1156 l 721 1015 q 665 995 697 996 q 610 1013 633 994 q 584 1064 586 1032 q 606 1119 582 1096 l 726 1246 m 450 1246 l 456 1253 q 523 1276 483 1276 q 589 1251 563 1275 q 610 1191 613 1226 q 579 1132 607 1156 l 444 1015 q 389 995 421 996 q 333 1013 357 994 q 308 1064 310 1032 q 329 1119 306 1096 l 450 1246 m 344 1107 q 328 1065 326 1089 q 347 1026 329 1042 q 388 1015 365 1014 q 431 1031 411 1015 l 565 1144 q 590 1192 588 1164 q 572 1239 592 1219 q 523 1258 553 1257 q 471 1239 493 1258 l 465 1233 l 344 1107 m 621 1107 q 604 1065 603 1089 q 624 1026 606 1042 q 665 1015 642 1014 q 707 1031 688 1015 l 842 1144 q 866 1192 864 1164 q 849 1239 868 1219 q 799 1258 829 1257 q 747 1239 769 1258 l 742 1233 l 621 1107 m 479 1221 q 485 1226 481 1225 q 522 1241 500 1242 q 557 1225 543 1240 q 569 1192 571 1211 q 551 1158 567 1172 l 418 1044 q 388 1033 404 1033 q 361 1042 372 1033 q 349 1068 350 1053 q 360 1094 349 1083 l 479 1221 m 756 1221 q 761 1226 757 1225 q 798 1241 776 1242 q 833 1225 819 1240 q 845 1192 847 1211 q 828 1158 843 1172 l 694 1044 q 665 1033 681 1033 q 638 1042 649 1033 q 626 1068 626 1053 q 636 1094 625 1083 l 756 1221 z "}}}
